<?xml version="1.0" encoding="utf-8"?>
<!-- Generator: Adobe Illustrator 28.1.0, SVG Export Plug-In . SVG Version: 6.00 Build 0)  -->
<svg version="1.1" xmlns="http://www.w3.org/2000/svg" xmlns:xlink="http://www.w3.org/1999/xlink" x="0px" y="0px"
	 viewBox="0 0 1920 1080" style="enable-background:new 0 0 1920 1080;" xml:space="preserve">
<style type="text/css">
	.st0{fill:#FFFFFF;}
	.st1{fill:url(#SVGID_1_);}
	.st2{fill:url(#SVGID_00000067958961918554934060000014724520388007487665_);}
	.st3{fill:url(#SVGID_00000101104307570960765230000012917102187421110966_);}
	.st4{fill:url(#SVGID_00000066507255122419137660000016393326770346270911_);}
	.st5{fill:url(#SVGID_00000060741963303303365230000014024382343405936027_);}
	.st6{fill:url(#SVGID_00000136378997556464509140000003557519417172707732_);}
	.st7{fill:url(#SVGID_00000013152426695818631650000005180396414684405688_);}
	.st8{fill:url(#SVGID_00000141436158639457575280000010519751619094210727_);}
	.st9{fill:url(#SVGID_00000154406394001066842310000011212017017702919327_);}
	.st10{fill:url(#SVGID_00000109023246697930500010000013301035002577984439_);}
	.st11{fill:url(#SVGID_00000044897597990102937650000006124364400935438263_);}
	.st12{fill:url(#SVGID_00000181805469937978079980000005570318806477598399_);}
	.st13{fill:url(#SVGID_00000151542863860768279920000009456403480859027647_);}
	.st14{fill:url(#SVGID_00000047025707314245009070000010895850077757192605_);}
	.st15{fill:url(#SVGID_00000163056216910057749550000004110105487256570782_);}
	.st16{fill:url(#SVGID_00000072272247666668135590000010658189103569043082_);}
	.st17{fill:url(#SVGID_00000162333771341207503120000005650170482871706275_);}
	.st18{fill:url(#SVGID_00000088125568673371701020000006007834699859255946_);}
	.st19{fill:url(#SVGID_00000090271990385176504440000014241184349850594983_);}
</style>
<g id="Layer_1">
</g>
<g id="Layer_2">
	<g>
		<g>
			<path class="st0" d="M272.9,738c-6.6-49.7-13.3-99.4-20.2-149.1c-0.3-2.1-1.9-4.6-3.7-5.9c-6.5-4.9-13.2-9.6-20.1-14
				c-2.1-1.3-5.4-2-7.7-1.5c-52.5,12.7-105,25.6-157.4,38.5c-1.5,0.4-3,1-4.8,1.6c4,15.7,7.8,30.9,11.8,46.6
				c46-11.2,91.3-22.2,137.1-33.4c2.1,15.5,4.1,30.5,6.2,46.1H208c-35.2,0-70.3,0-105.5,0c-1.9,0-4.3,0-5.7,1
				c-6.2,4.5-12.2,9.4-18,14.3c-1.1,1-1.7,2.8-2.1,4.3c-7.3,28.6-14.6,57.1-21.6,85.8c-0.5,1.9,0.4,4.8,1.8,6.4
				c4.2,5,9.5,9.1,13.2,14.3c6,8.7,13.3,9.4,23,7.7c46.7-8,93.5-15.3,140.3-22.7c2-0.3,4.4,1.2,6.4,2.3c3.1,1.6,5.9,4.1,9.1,5.4
				c4,1.6,8.3,2.5,12.4,3.6c9.3,2.6,18.5,5.1,28.3,7.8c4.3-15.6,8.5-30.8,12.9-46.4c-8.5-2.4-16.4-4.9-24.4-6.9
				C274.5,743.2,273.3,741.5,272.9,738z M111.9,748.1c0.1-1.4,0-2.5,0.3-3.5c2.1-8.4,4.3-16.8,6.3-25.2c0.6-2.6,1.6-4,4.6-3.9
				c31.3,0.1,62.6,0.1,93.9,0c2.6,0,4,0.5,4.2,3.5c0.2,3.6,0.9,7.2,1.4,11.5C185.5,736.4,148.9,742.2,111.9,748.1z"/>
			<path class="st0" d="M489.1,726c1.9,16.3,3.8,32.1,5.7,48.4c-16,1.9-31.2,3.7-46.3,5.5c-24.3,2.9-48.5,5.7-72.8,8.6
				c-12.2,1.4-24.4,3.1-36.7,4.2c-2.2,0.2-5.2-0.9-6.9-2.4c-6.4-5.9-12.5-12.1-18.3-18.4c-1.4-1.6-2.4-4.4-2.2-6.5
				c5.6-55.2,11.5-110.4,17.2-165.5c0.4-3.3,1.6-5.4,4.3-7.3c5.3-3.8,10.6-7.6,15.4-11.9c4.1-3.8,8.3-4.1,13.6-3.3
				c36.4,6.1,72.8,11.9,109.2,17.8c4.7,0.8,9.5,1.6,15,2.5c-2.6,15.9-5.1,31.6-7.7,47.9c-34.6-5.6-68.6-11.1-103.4-16.7
				c-4.1,37.4-8.1,74.5-12.2,112.5C405.2,736.1,446.8,731.1,489.1,726z"/>
			<path class="st0" d="M721.6,605c1.1,15.2,2.1,29.6,3.1,44.4c-5.4,0.5-10.3,1-15.3,1.4c-24.1,1.8-48.1,3.6-72.2,5.2
				c-4,0.3-5.6,1.6-6,5.9c-2.1,25.2-4.6,50.5-7,75.7c-0.1,0.8,0,1.6,0,3c25.1,7.2,50.3,14.4,75.8,21.6c-4.3,15.6-8.5,30.7-12.8,46.2
				c-2-0.5-3.6-0.8-5.1-1.2c-29.8-8.4-59.6-16.7-89.3-25.2c-2.4-0.7-5-2.6-6.5-4.7c-4.6-6.3-10.7-12.5-12.5-19.6
				c-1.8-7.2,0.8-15.5,1.5-23.2c2.1-22.4,4.3-44.8,6.4-67.2c0.1-1.5,0.2-3,0.3-5.1h-74.2c-1.4-16.5-2.7-32.4-4.1-48.8h82.9
				c1.3-14.6,2.6-28.8,4-43.7c16.1,1.6,32,3.1,48.6,4.7c-0.9,10.2-1.8,20.2-2.7,30.7H721.6z"/>
			<path class="st0" d="M1044.5,612.4c-1.3,1.8-2.3,3.3-3.3,4.8c-39.4,54.8-78.8,109.6-118.1,164.4c-2.3,3.2-4.3,4.1-8.2,3.4
				c-10.6-2-21.4-3.3-32-5.3c-1.6-0.3-3.4-2.8-4-4.7c-11.4-36.6-22.7-73.2-34-109.8c-7.8-25.3-15.6-50.6-23.4-75.9
				c-0.6-2.1-1.2-4.1-2-6.9c15.5-4.9,30.8-9.8,46.6-14.8c15,48.9,29.9,97.2,45.2,146.7c31.5-43.8,62.5-86.7,93.9-130.3
				C1018.6,593.7,1031.4,603,1044.5,612.4z"/>
			<path class="st0" d="M1420.6,550.2c4.9,18.4,9.7,36.4,14.7,54.9c-15.8,4.3-31.1,8.6-47.1,13c-4.9-18.3-9.7-36.3-14.7-54.9
				C1389.3,558.8,1404.6,554.6,1420.6,550.2z"/>
			<path class="st0" d="M1100.1,550.2c4.9,18.3,9.7,36.3,14.7,55c-15.9,4.4-31.2,8.6-47.2,13c-4.9-18.3-9.7-36.2-14.7-54.8
				C1068.6,558.9,1084,554.6,1100.1,550.2z"/>
			<path class="st0" d="M1432.9,637.1c-3.2,24.6-6.1,49.3-9.2,73.9c-3.3,26.6-6.6,53.3-9.9,79.9c-0.2,1.5-0.5,2.9-0.8,4.8
				c-16.3-1.9-32-3.7-48.5-5.6c6.8-54.9,13.5-109.3,20.3-164.4c8,0.9,15.6,1.7,23.1,2.6c6.8,0.8,13.5,2.2,20.3,2.4
				C1433.2,631,1433.4,633.1,1432.9,637.1z"/>
			<path class="st0" d="M1463.9,546.8c9.3,1.1,18.5,3.2,28.1,4.9c3.1-16.1,6.1-31.5,9.2-47.3c-44.4-8.2-88.1-16.3-132.1-24.5
				c2.1-16,4.1-31.5,6.2-47c0.4,0,0.8,0,1.3,0c2.5,11.5,5.1,22.9,7.7,34.6c1.4-0.2,2.4-0.3,3.3-0.5c40.7-8.5,81.3-16.9,122-25.5
				c1.8-0.4,3.7-2.1,4.6-3.8c4.3-8.1,8.4-16.3,12.1-24.7c0.8-1.9,0.8-4.9-0.1-6.8c-8-16.3-17-32.1-24.2-48.8
				c-5.4-12.4-13.2-21.2-25.7-25.7c-2.5-0.9-5.4-1.8-8-1.7c-17.1,1.2-34.2,2.6-51.3,4c-19.6,1.6-39.1,3.2-58.7,4.9
				c-4.1,0.3-21.5,16.9-22.2,20.9c-0.1,0.3-0.1,0.7-0.1,1c-5.9,44.1-11.9,88.2-17.9,132.2c-0.5,3.8,0.2,6.7,2.5,9.6
				c4.3,5.5,8.1,11.4,12.3,17c1,1.3,2.6,2.8,4.1,3.2c16.4,3.6,32.8,8,49.2,0.3c1.9-0.9,4.1-1.2,6.2-1.8c17.4-4.8,34.9-9.5,52.8-14.4
				c2.7,10.1,5.7,19.8,7.7,29.7C1454.4,543.1,1457.3,546.1,1463.9,546.8z M1381.3,387.8c0.2-1.1,2-2.6,3.2-2.7
				c22.9-1.8,45.8-3.4,68.7-5.2c3.5-0.3,5.4,0.8,6.9,4.1c2.4,5.4,5.3,10.7,8.3,16.5c-30.6,6.6-60.5,13.1-91.4,19.7
				C1378.5,408.8,1379.8,398.3,1381.3,387.8z"/>
			<path class="st0" d="M761.6,625.7c16.6,2,32.3,3.9,48.7,5.8c-6.8,54.9-13.5,109.3-20.3,164.2c-16.4-1.9-32.2-3.7-48.7-5.6
				C748.1,735.3,754.8,680.9,761.6,625.7z"/>
			<path class="st0" d="M686.2,526.8c0.9,1.3,2.8,2.7,4.3,2.7c25.2-0.1,50.5,2,75.1-6.6c18.3-6.4,37.4-10.5,56.5-15.8
				c1.7,6.1,3.3,11.8,4.8,17.6c1.6,5.8,4.2,6.8,9.1,3.2c6.2-4.5,12.4-9,18.3-13.9c1.5-1.2,2.7-3.8,2.6-5.8c-1.1-48-2.4-96-3.8-143.9
				c0-1.8-1.2-4.2-2.6-5.4c-5.7-4.8-11.7-9.4-17.7-13.9c-1.3-1-3.3-1.7-5-1.7c-42.3-0.1-84.7-0.1-127,0c-1.7,0-3.9,1-5.1,2.3
				c-5.7,5.9-11.1,12-16.5,18.1c-1.1,1.3-1.9,3.2-2,4.9c-3.1,43.2-6.1,86.4-9.1,129.7c-0.1,1.8,0.4,4,1.4,5.5
				C675,511.4,680.5,519.1,686.2,526.8z M724.5,391.2h80.8c0.8,30.1,1.5,59.7,2.3,89.6h-88.8C720.8,450.8,722.6,421.1,724.5,391.2z"
				/>
			<path class="st0" d="M1130.1,526.9c-1.6-6.1-3.3-12.2-5-18.3c-0.1-0.5-0.4-0.9-0.8-1.5c-7.5,2-15,4-23.3,6.2
				c18-81.4,35.8-161.9,53.7-243.1c15.9,3.5,31.2,6.8,47,10.2c-19,86.5-37.9,172.6-56.9,258.8c-0.5,0.1-0.8,0.2-1.1,0.2
				C1132.9,537.5,1132.9,537.5,1130.1,526.9z"/>
			<path class="st0" d="M1194.3,414.9c20.7-19.8,41.5-39.6,62.2-59.4c1.1-1,2.2-2,3.8-3.4c11.1,11.6,21.9,22.9,33.2,34.7
				c-20.9,19.9-41.8,39.8-62.7,59.8c26.2,22.8,52.2,45.4,78.7,68.5c-5.4,6.3-11.1,12.1-15.9,18.6c-4.4,6-9.2,7.8-16.8,6.9
				c-8.8-1-15.8-3.7-22.5-9.7c-24.3-21.9-49.1-43.1-73.7-64.5c-2.5-2.2-3.9-4.4-3.4-7.7c0.1-0.8,0-1.7,0-2.5
				c0-8.2-2.2-17.2,0.7-24.2C1180.6,425.1,1188.6,420.4,1194.3,414.9z"/>
			<path class="st0" d="M500.3,530.7c-4.2,0.1-4.9-1.5-5-5.2c-0.2-37.7-0.7-75.3-0.9-113c0-4.2-1.1-6.1-5.4-7.2
				c-11.4-2.8-22.7-6.2-34.8-9.6c-4.4,45.6-8.8,90.7-13.3,136.7c-16.4-1.3-32.1-2.6-48.3-3.9c0-1.5-0.1-2.8,0-4
				c5.1-53.8,10.3-107.5,15.6-161.2c0.2-2,1.6-4.3,3.2-5.6c6.8-5.1,13.7-10,20.9-14.6c2.1-1.3,5.4-2,7.7-1.4
				c25.6,6.6,51.1,13.6,76.6,20.4c2.4,0.6,5.3,0.6,7.7,0c24.5-6.7,49-13.6,73.5-20.6c3.6-1,6.2-0.6,9.1,1.7
				c6.8,5.3,14,10.2,20.8,15.5c1.5,1.2,2.9,3.4,2.9,5.2c2.9,54.4,5.6,108.8,8.3,163.3c0,0.8,0,1.6,0,3c-1.8,0.1-3.4,0.4-4.9,0.4
				c-12.8,0-25.7-0.1-38.5,0.1c-4.1,0.1-5.4-1.1-5.6-5.2c-2-40.9-4.3-81.9-6.5-122.8c-0.1-1.8-0.3-3.6-0.5-6
				c-13.4,3.6-26.4,7.1-39.5,10.7v122.9c-1.3,0.1-2.8,0.4-4.2,0.4C526.3,530.6,513.3,530.4,500.3,530.7z"/>
			<path class="st0" d="M1064.3,625.8c16.2,1.9,32.1,3.8,48.7,5.8c-6.8,54.8-13.5,109.2-20.3,164.2c-16.6-1.9-32.4-3.7-48.7-5.6
				C1050.8,735.3,1057.5,681,1064.3,625.8z"/>
			<path class="st0" d="M1639.4,608.8c-5.1-11.6-12.2-20.3-24.2-24.5c-3.2-1.1-6.6-2.3-9.9-2.2c-8.3,0.2-16.6,1.2-24.9,1.9
				c-26.5,2.1-53.1,4.3-79.6,6.2c-5.2,0.4-9.5,2-13,6.1c-3.2,3.6-7.2,6.5-10.3,10.1c-1.7,2-3.3,4.6-3.7,7.2
				c-5.2,37.4-10.3,74.9-15.3,112.4c-1.1,8.1-4.2,16.7-2.3,24.1c1.8,7.2,8.8,13.1,13.1,19.8c2.4,3.7,5.5,5.2,9.6,6
				c37.1,6.8,74.2,13.7,111.3,20.5c13,2.4,26,4.8,39.6,7.3c3.1-15.9,6.2-31.4,9.3-47.4c-44.2-8.2-88.1-16.4-132.1-24.5
				c2.2-16.4,4.2-32.2,6.3-48c0.3,0,0.6-0.1,0.9-0.1c2.6,11.8,5.3,23.6,8,35.8c1.3-0.2,1.9-0.2,2.6-0.4
				c40.8-8.5,81.7-16.9,122.5-25.6c1.9-0.4,4-2.3,5-4.1c4.2-7.9,7.9-16.2,12.1-24.1c1.4-2.7,1.2-4.8-0.1-7.4
				C1655.7,641.7,1646.8,625.6,1639.4,608.8z M1514.7,672.2c1.5-11.5,2.9-22.4,4.5-33.2c0.1-0.8,1.8-1.9,2.8-1.9
				c22.9-1.8,45.8-3.4,68.7-5.2c3.7-0.3,5.7,0.9,7.2,4.3c2.4,5.4,5.3,10.6,8.2,16.3C1575.4,659.1,1545.5,665.6,1514.7,672.2z"/>
			<path class="st0" d="M1347.5,645.4c0.3,3.3-0.6,4.3-3.9,4.6c-27.9,1.9-55.8,4-83.7,6.1c-2.6,0.2-5.1,0.2-5.4,4.1
				c-2.3,26.1-4.8,52.1-7.2,78.1c-0.1,0.6,0.1,1.3,0.2,2.2c25.1,7.2,50.1,14.3,75.6,21.6c-4.3,15.5-8.5,30.6-12.8,46.1
				c-1.7-0.3-3.1-0.5-4.5-0.9c-30.1-8.4-60.2-16.8-90.2-25.5c-2.3-0.7-4.7-2.5-6.1-4.4c-4.6-6.3-10.7-12.5-12.5-19.6
				c-1.8-7.2,0.7-15.5,1.4-23.2c2.1-22.4,4.3-44.8,6.4-67.2c0.2-1.6,0-3.2,0-5.3h-73.9c-1.4-16.3-2.7-32.2-4.1-49h82.9
				c1.3-14.6,2.6-28.8,4-43.5c16.4,1.6,32.2,3.2,48.6,4.8c-0.9,10.3-1.8,20.2-2.8,30.6h84.7c0.2,2,0.5,3.5,0.6,5.1
				C1345.8,621.8,1346.5,633.6,1347.5,645.4z"/>
			<path class="st0" d="M934.1,527.5c-16.3-2.5-32.1-4.8-48.5-7.3c2-13,3.8-25.3,5.7-37.6c4.6-30.3,9.1-60.6,14-90.9
				c0.5-3.3,2.4-6.9,4.7-9.4c14.5-15.1,14.6-14.8,38.2-18.2c30.6-4.5,61.1-9.7,91.6-14.3c2.1-0.3,5,0.4,6.7,1.7
				c6.8,5,13.4,10.4,19.9,15.9c1.4,1.2,2.7,3.5,2.8,5.3c2.4,47.9,4.7,95.9,7.1,143.8c0.1,2.9-0.8,4.1-3.6,4.8
				c-10.1,2.6-20.1,5.9-30.4,8.1c-4.4,1-9.2,0.2-14.6,0.2c-2.1-42.5-4.3-84.9-6.4-127.9c-8.1,1.3-15.6,2.4-23,3.6
				c-13.6,2.2-27.2,4.5-40.9,6.6c-4.3,0.6-6.3,2.1-7,6.9c-4.9,34.5-10.1,68.9-15.3,103.4C934.8,523.7,934.5,525.3,934.1,527.5z"/>
			<path class="st0" d="M1863.6,711.1c-15.7,27.7-31.5,55.3-47.5,82.8c-0.8,1.5-2.6,2.4-3.9,3.6c-0.2,0.2-0.6,0.2-0.9,0.4
				c-14.7,10.7-30.4,6.8-46.3,3.6c-27.9-5.6-55.9-10.5-83.8-15.7c-2.1-0.4-4.2-0.9-6.7-1.4c3.1-15.9,6.1-31.4,9.2-47.5
				c15.5,2.9,30.4,5.7,45.2,8.6c16.3,3.1,32.6,6.3,49,9.3c1.6,0.3,4.4-0.2,5.1-1.3c6.9-11.4,13.5-22.9,20.5-35
				c-11-1.6-21.3-3.1-31.5-4.5c-24.4-3.4-48.8-6.8-73.1-10.3c-1.6-0.2-3.2-1.5-4.5-2.7c-1.2-1.1-1.9-2.8-3.1-3.9
				c-11.9-11-14.6-24.2-12.1-40c2.7-16.9,2.8-34.2,4.4-51.3c0.3-3,2.1-6.1,4-8.5c2.9-3.6,7-6.3,9.8-9.9c4.3-5.7,10.1-6.7,16.6-7.2
				c33.2-2.5,66.4-5.2,99.6-7.8c7.1-0.5,14.2-1,21.8-1.5c1,16.2,2,31.9,3.1,48.3c-35.8,2.7-71.1,5.4-107.2,8.1
				c-0.8,10.1-1.7,20.3-2.5,31c9,1.3,17.5,2.5,26,3.8c30.6,4.4,61.2,8.7,91.8,13.2c1.4,0.2,3,1.5,3.7,2.7
				c4.8,9.2,9.4,18.4,13.8,27.7C1864.6,707.2,1864.4,709.7,1863.6,711.1z"/>
			<path class="st0" d="M750.2,563.2c5,18.7,9.8,36.6,14.7,54.9c16.1-4.5,31.5-8.7,47.1-13c-5-18.7-9.8-36.6-14.7-54.9
				C781.4,554.6,766.1,558.8,750.2,563.2z"/>
		</g>
		<g>
			<linearGradient id="SVGID_1_" gradientUnits="userSpaceOnUse" x1="959.597" y1="808.32" x2="959.597" y2="270.31">
				<stop  offset="0" style="stop-color:#FFAD00"/>
				<stop  offset="1" style="stop-color:#FFD160"/>
			</linearGradient>
			<path class="st1" d="M272.9,738c-6.6-49.7-13.3-99.4-20.2-149.1c-0.3-2.1-1.9-4.6-3.7-5.9c-6.5-4.9-13.2-9.6-20.1-14
				c-2.1-1.3-5.4-2-7.7-1.5c-52.5,12.7-105,25.6-157.4,38.5c-1.5,0.4-3,1-4.8,1.6c4,15.7,7.8,30.9,11.8,46.6
				c46-11.2,91.3-22.2,137.1-33.4c2.1,15.5,4.1,30.5,6.2,46.1H208c-35.2,0-70.3,0-105.5,0c-1.9,0-4.3,0-5.7,1
				c-6.2,4.5-12.2,9.4-18,14.3c-1.1,1-1.7,2.8-2.1,4.3c-7.3,28.6-14.6,57.1-21.6,85.8c-0.5,1.9,0.4,4.8,1.8,6.4
				c4.2,5,9.5,9.1,13.2,14.3c6,8.7,13.3,9.4,23,7.7c46.7-8,93.5-15.3,140.3-22.7c2-0.3,4.4,1.2,6.4,2.3c3.1,1.6,5.9,4.1,9.1,5.4
				c4,1.6,8.3,2.5,12.4,3.6c9.3,2.6,18.5,5.1,28.3,7.8c4.3-15.6,8.5-30.8,12.9-46.4c-8.5-2.4-16.4-4.9-24.4-6.9
				C274.5,743.2,273.3,741.5,272.9,738z M111.9,748.1c0.1-1.4,0-2.5,0.3-3.5c2.1-8.4,4.3-16.8,6.3-25.2c0.6-2.6,1.6-4,4.6-3.9
				c31.3,0.1,62.6,0.1,93.9,0c2.6,0,4,0.5,4.2,3.5c0.2,3.6,0.9,7.2,1.4,11.5C185.5,736.4,148.9,742.2,111.9,748.1z"/>
			
				<linearGradient id="SVGID_00000159442667662595619510000017001962882222870676_" gradientUnits="userSpaceOnUse" x1="959.597" y1="808.32" x2="959.597" y2="270.31">
				<stop  offset="0" style="stop-color:#FFAD00"/>
				<stop  offset="1" style="stop-color:#FFD160"/>
			</linearGradient>
			<path style="fill:url(#SVGID_00000159442667662595619510000017001962882222870676_);" d="M489.1,726c1.9,16.3,3.8,32.1,5.7,48.4
				c-16,1.9-31.2,3.7-46.3,5.5c-24.3,2.9-48.5,5.7-72.8,8.6c-12.2,1.4-24.4,3.1-36.7,4.2c-2.2,0.2-5.2-0.9-6.9-2.4
				c-6.4-5.9-12.5-12.1-18.3-18.4c-1.4-1.6-2.4-4.4-2.2-6.5c5.6-55.2,11.5-110.4,17.2-165.5c0.4-3.3,1.6-5.4,4.3-7.3
				c5.3-3.8,10.6-7.6,15.4-11.9c4.1-3.8,8.3-4.1,13.6-3.3c36.4,6.1,72.8,11.9,109.2,17.8c4.7,0.8,9.5,1.6,15,2.5
				c-2.6,15.9-5.1,31.6-7.7,47.9c-34.6-5.6-68.6-11.1-103.4-16.7c-4.1,37.4-8.1,74.5-12.2,112.5C405.2,736.1,446.8,731.1,489.1,726z
				"/>
			
				<linearGradient id="SVGID_00000125596820448104138750000010512434919786748572_" gradientUnits="userSpaceOnUse" x1="959.597" y1="808.32" x2="959.597" y2="270.31">
				<stop  offset="0" style="stop-color:#FFAD00"/>
				<stop  offset="1" style="stop-color:#FFD160"/>
			</linearGradient>
			<path style="fill:url(#SVGID_00000125596820448104138750000010512434919786748572_);" d="M721.6,605c1.1,15.2,2.1,29.6,3.1,44.4
				c-5.4,0.5-10.3,1-15.3,1.4c-24.1,1.8-48.1,3.6-72.2,5.2c-4,0.3-5.6,1.6-6,5.9c-2.1,25.2-4.6,50.5-7,75.7c-0.1,0.8,0,1.6,0,3
				c25.1,7.2,50.3,14.4,75.8,21.6c-4.3,15.6-8.5,30.7-12.8,46.2c-2-0.5-3.6-0.8-5.1-1.2c-29.8-8.4-59.6-16.7-89.3-25.2
				c-2.4-0.7-5-2.6-6.5-4.7c-4.6-6.3-10.7-12.5-12.5-19.6c-1.8-7.2,0.8-15.5,1.5-23.2c2.1-22.4,4.3-44.8,6.4-67.2
				c0.1-1.5,0.2-3,0.3-5.1h-74.2c-1.4-16.5-2.7-32.4-4.1-48.8h82.9c1.3-14.6,2.6-28.8,4-43.7c16.1,1.6,32,3.1,48.6,4.7
				c-0.9,10.2-1.8,20.2-2.7,30.7H721.6z"/>
			
				<linearGradient id="SVGID_00000007411976267439766160000008253003072638603180_" gradientUnits="userSpaceOnUse" x1="959.597" y1="808.32" x2="959.597" y2="270.31">
				<stop  offset="0" style="stop-color:#FFAD00"/>
				<stop  offset="1" style="stop-color:#FFD160"/>
			</linearGradient>
			<path style="fill:url(#SVGID_00000007411976267439766160000008253003072638603180_);" d="M1044.5,612.4c-1.3,1.8-2.3,3.3-3.3,4.8
				c-39.4,54.8-78.8,109.6-118.1,164.4c-2.3,3.2-4.3,4.1-8.2,3.4c-10.6-2-21.4-3.3-32-5.3c-1.6-0.3-3.4-2.8-4-4.7
				c-11.4-36.6-22.7-73.2-34-109.8c-7.8-25.3-15.6-50.6-23.4-75.9c-0.6-2.1-1.2-4.1-2-6.9c15.5-4.9,30.8-9.8,46.6-14.8
				c15,48.9,29.9,97.2,45.2,146.7c31.5-43.8,62.5-86.7,93.9-130.3C1018.6,593.7,1031.4,603,1044.5,612.4z"/>
			
				<linearGradient id="SVGID_00000028324953221939847000000012601292172307119494_" gradientUnits="userSpaceOnUse" x1="959.597" y1="808.32" x2="959.597" y2="270.31">
				<stop  offset="0" style="stop-color:#FFAD00"/>
				<stop  offset="1" style="stop-color:#FFD160"/>
			</linearGradient>
			<path style="fill:url(#SVGID_00000028324953221939847000000012601292172307119494_);" d="M1420.6,550.2
				c4.9,18.4,9.7,36.4,14.7,54.9c-15.8,4.3-31.1,8.6-47.1,13c-4.9-18.3-9.7-36.3-14.7-54.9C1389.3,558.8,1404.6,554.6,1420.6,550.2z
				"/>
			
				<linearGradient id="SVGID_00000114755198352704455780000016549010825201461433_" gradientUnits="userSpaceOnUse" x1="959.597" y1="808.32" x2="959.597" y2="270.31">
				<stop  offset="0" style="stop-color:#FFAD00"/>
				<stop  offset="1" style="stop-color:#FFD160"/>
			</linearGradient>
			<path style="fill:url(#SVGID_00000114755198352704455780000016549010825201461433_);" d="M1100.1,550.2
				c4.9,18.3,9.7,36.3,14.7,55c-15.9,4.4-31.2,8.6-47.2,13c-4.9-18.3-9.7-36.2-14.7-54.8C1068.6,558.9,1084,554.6,1100.1,550.2z"/>
			
				<linearGradient id="SVGID_00000123420302393407499110000003479576481485133206_" gradientUnits="userSpaceOnUse" x1="959.597" y1="808.32" x2="959.597" y2="270.31">
				<stop  offset="0" style="stop-color:#FFAD00"/>
				<stop  offset="1" style="stop-color:#FFD160"/>
			</linearGradient>
			<path style="fill:url(#SVGID_00000123420302393407499110000003479576481485133206_);" d="M1432.9,637.1
				c-3.2,24.6-6.1,49.3-9.2,73.9c-3.3,26.6-6.6,53.3-9.9,79.9c-0.2,1.5-0.5,2.9-0.8,4.8c-16.3-1.9-32-3.7-48.5-5.6
				c6.8-54.9,13.5-109.3,20.3-164.4c8,0.9,15.6,1.7,23.1,2.6c6.8,0.8,13.5,2.2,20.3,2.4C1433.2,631,1433.4,633.1,1432.9,637.1z"/>
			
				<linearGradient id="SVGID_00000097487206948584751950000004762247351673657472_" gradientUnits="userSpaceOnUse" x1="959.597" y1="808.32" x2="959.597" y2="270.31">
				<stop  offset="0" style="stop-color:#FFAD00"/>
				<stop  offset="1" style="stop-color:#FFD160"/>
			</linearGradient>
			<path style="fill:url(#SVGID_00000097487206948584751950000004762247351673657472_);" d="M1463.9,546.8
				c9.3,1.1,18.5,3.2,28.1,4.9c3.1-16.1,6.1-31.5,9.2-47.3c-44.4-8.2-88.1-16.3-132.1-24.5c2.1-16,4.1-31.5,6.2-47
				c0.4,0,0.8,0,1.3,0c2.5,11.5,5.1,22.9,7.7,34.6c1.4-0.2,2.4-0.3,3.3-0.5c40.7-8.5,81.3-16.9,122-25.5c1.8-0.4,3.7-2.1,4.6-3.8
				c4.3-8.1,8.4-16.3,12.1-24.7c0.8-1.9,0.8-4.9-0.1-6.8c-8-16.3-17-32.1-24.2-48.8c-5.4-12.4-13.2-21.2-25.7-25.7
				c-2.5-0.9-5.4-1.8-8-1.7c-17.1,1.2-34.2,2.6-51.3,4c-19.6,1.6-39.1,3.2-58.7,4.9c-4.1,0.3-21.5,16.9-22.2,20.9
				c-0.1,0.3-0.1,0.7-0.1,1c-5.9,44.1-11.9,88.2-17.9,132.2c-0.5,3.8,0.2,6.7,2.5,9.6c4.3,5.5,8.1,11.4,12.3,17
				c1,1.3,2.6,2.8,4.1,3.2c16.4,3.6,32.8,8,49.2,0.3c1.9-0.9,4.1-1.2,6.2-1.8c17.4-4.8,34.9-9.5,52.8-14.4
				c2.7,10.1,5.7,19.8,7.7,29.7C1454.4,543.1,1457.3,546.1,1463.9,546.8z M1381.3,387.8c0.2-1.1,2-2.6,3.2-2.7
				c22.9-1.8,45.8-3.4,68.7-5.2c3.5-0.3,5.4,0.8,6.9,4.1c2.4,5.4,5.3,10.7,8.3,16.5c-30.6,6.6-60.5,13.1-91.4,19.7
				C1378.5,408.8,1379.8,398.3,1381.3,387.8z"/>
			
				<linearGradient id="SVGID_00000113311701231323230810000000077795054093852300_" gradientUnits="userSpaceOnUse" x1="959.597" y1="808.32" x2="959.597" y2="270.31">
				<stop  offset="0" style="stop-color:#FFAD00"/>
				<stop  offset="1" style="stop-color:#FFD160"/>
			</linearGradient>
			<path style="fill:url(#SVGID_00000113311701231323230810000000077795054093852300_);" d="M761.6,625.7c16.6,2,32.3,3.9,48.7,5.8
				c-6.8,54.9-13.5,109.3-20.3,164.2c-16.4-1.9-32.2-3.7-48.7-5.6C748.1,735.3,754.8,680.9,761.6,625.7z"/>
			
				<linearGradient id="SVGID_00000015351130919117477540000011490344300732014486_" gradientUnits="userSpaceOnUse" x1="959.597" y1="808.32" x2="959.597" y2="270.31">
				<stop  offset="0" style="stop-color:#FFAD00"/>
				<stop  offset="1" style="stop-color:#FFD160"/>
			</linearGradient>
			<path style="fill:url(#SVGID_00000015351130919117477540000011490344300732014486_);" d="M686.2,526.8c0.9,1.3,2.8,2.7,4.3,2.7
				c25.2-0.1,50.5,2,75.1-6.6c18.3-6.4,37.4-10.5,56.5-15.8c1.7,6.1,3.3,11.8,4.8,17.6c1.6,5.8,4.2,6.8,9.1,3.2
				c6.2-4.5,12.4-9,18.3-13.9c1.5-1.2,2.7-3.8,2.6-5.8c-1.1-48-2.4-96-3.8-143.9c0-1.8-1.2-4.2-2.6-5.4c-5.7-4.8-11.7-9.4-17.7-13.9
				c-1.3-1-3.3-1.7-5-1.7c-42.3-0.1-84.7-0.1-127,0c-1.7,0-3.9,1-5.1,2.3c-5.7,5.9-11.1,12-16.5,18.1c-1.1,1.3-1.9,3.2-2,4.9
				c-3.1,43.2-6.1,86.4-9.1,129.7c-0.1,1.8,0.4,4,1.4,5.5C675,511.4,680.5,519.1,686.2,526.8z M724.5,391.2h80.8
				c0.8,30.1,1.5,59.7,2.3,89.6h-88.8C720.8,450.8,722.6,421.1,724.5,391.2z"/>
			
				<linearGradient id="SVGID_00000069398847897065189560000012435176289825774748_" gradientUnits="userSpaceOnUse" x1="959.597" y1="808.32" x2="959.597" y2="270.31">
				<stop  offset="0" style="stop-color:#FFAD00"/>
				<stop  offset="1" style="stop-color:#FFD160"/>
			</linearGradient>
			<path style="fill:url(#SVGID_00000069398847897065189560000012435176289825774748_);" d="M1130.1,526.9c-1.6-6.1-3.3-12.2-5-18.3
				c-0.1-0.5-0.4-0.9-0.8-1.5c-7.5,2-15,4-23.3,6.2c18-81.4,35.8-161.9,53.7-243.1c15.9,3.5,31.2,6.8,47,10.2
				c-19,86.5-37.9,172.6-56.9,258.8c-0.5,0.1-0.8,0.2-1.1,0.2C1132.9,537.5,1132.9,537.5,1130.1,526.9z"/>
			
				<linearGradient id="SVGID_00000079488494456189856440000002498738713250881192_" gradientUnits="userSpaceOnUse" x1="959.597" y1="808.32" x2="959.597" y2="270.31">
				<stop  offset="0" style="stop-color:#FFAD00"/>
				<stop  offset="1" style="stop-color:#FFD160"/>
			</linearGradient>
			<path style="fill:url(#SVGID_00000079488494456189856440000002498738713250881192_);" d="M1194.3,414.9
				c20.7-19.8,41.5-39.6,62.2-59.4c1.1-1,2.2-2,3.8-3.4c11.1,11.6,21.9,22.9,33.2,34.7c-20.9,19.9-41.8,39.8-62.7,59.8
				c26.2,22.8,52.2,45.4,78.7,68.5c-5.4,6.3-11.1,12.1-15.9,18.6c-4.4,6-9.2,7.8-16.8,6.9c-8.8-1-15.8-3.7-22.5-9.7
				c-24.3-21.9-49.1-43.1-73.7-64.5c-2.5-2.2-3.9-4.4-3.4-7.7c0.1-0.8,0-1.7,0-2.5c0-8.2-2.2-17.2,0.7-24.2
				C1180.6,425.1,1188.6,420.4,1194.3,414.9z"/>
			
				<linearGradient id="SVGID_00000084523435253997158290000000246544146258239371_" gradientUnits="userSpaceOnUse" x1="959.597" y1="808.32" x2="959.597" y2="270.31">
				<stop  offset="0" style="stop-color:#FFAD00"/>
				<stop  offset="1" style="stop-color:#FFD160"/>
			</linearGradient>
			<path style="fill:url(#SVGID_00000084523435253997158290000000246544146258239371_);" d="M500.3,530.7c-4.2,0.1-4.9-1.5-5-5.2
				c-0.2-37.7-0.7-75.3-0.9-113c0-4.2-1.1-6.1-5.4-7.2c-11.4-2.8-22.7-6.2-34.8-9.6c-4.4,45.6-8.8,90.7-13.3,136.7
				c-16.4-1.3-32.1-2.6-48.3-3.9c0-1.5-0.1-2.8,0-4c5.1-53.8,10.3-107.5,15.6-161.2c0.2-2,1.6-4.3,3.2-5.6
				c6.8-5.1,13.7-10,20.9-14.6c2.1-1.3,5.4-2,7.7-1.4c25.6,6.6,51.1,13.6,76.6,20.4c2.4,0.6,5.3,0.6,7.7,0
				c24.5-6.7,49-13.6,73.5-20.6c3.6-1,6.2-0.6,9.1,1.7c6.8,5.3,14,10.2,20.8,15.5c1.5,1.2,2.9,3.4,2.9,5.2
				c2.9,54.4,5.6,108.8,8.3,163.3c0,0.8,0,1.6,0,3c-1.8,0.1-3.4,0.4-4.9,0.4c-12.8,0-25.7-0.1-38.5,0.1c-4.1,0.1-5.4-1.1-5.6-5.2
				c-2-40.9-4.3-81.9-6.5-122.8c-0.1-1.8-0.3-3.6-0.5-6c-13.4,3.6-26.4,7.1-39.5,10.7v122.9c-1.3,0.1-2.8,0.4-4.2,0.4
				C526.3,530.6,513.3,530.4,500.3,530.7z"/>
			
				<linearGradient id="SVGID_00000088128479391033045890000015965549450396505531_" gradientUnits="userSpaceOnUse" x1="959.597" y1="808.32" x2="959.597" y2="270.31">
				<stop  offset="0" style="stop-color:#FFAD00"/>
				<stop  offset="1" style="stop-color:#FFD160"/>
			</linearGradient>
			<path style="fill:url(#SVGID_00000088128479391033045890000015965549450396505531_);" d="M1064.3,625.8
				c16.2,1.9,32.1,3.8,48.7,5.8c-6.8,54.8-13.5,109.2-20.3,164.2c-16.6-1.9-32.4-3.7-48.7-5.6C1050.8,735.3,1057.5,681,1064.3,625.8
				z"/>
			
				<linearGradient id="SVGID_00000050645964995323493910000013952260450766963128_" gradientUnits="userSpaceOnUse" x1="959.597" y1="808.32" x2="959.597" y2="270.31">
				<stop  offset="0" style="stop-color:#FFAD00"/>
				<stop  offset="1" style="stop-color:#FFD160"/>
			</linearGradient>
			<path style="fill:url(#SVGID_00000050645964995323493910000013952260450766963128_);" d="M1639.4,608.8
				c-5.1-11.6-12.2-20.3-24.2-24.5c-3.2-1.1-6.6-2.3-9.9-2.2c-8.3,0.2-16.6,1.2-24.9,1.9c-26.5,2.1-53.1,4.3-79.6,6.2
				c-5.2,0.4-9.5,2-13,6.1c-3.2,3.6-7.2,6.5-10.3,10.1c-1.7,2-3.3,4.6-3.7,7.2c-5.2,37.4-10.3,74.9-15.3,112.4
				c-1.1,8.1-4.2,16.7-2.3,24.1c1.8,7.2,8.8,13.1,13.1,19.8c2.4,3.7,5.5,5.2,9.6,6c37.1,6.8,74.2,13.7,111.3,20.5
				c13,2.4,26,4.8,39.6,7.3c3.1-15.9,6.2-31.4,9.3-47.4c-44.2-8.2-88.1-16.4-132.1-24.5c2.2-16.4,4.2-32.2,6.3-48
				c0.3,0,0.6-0.1,0.9-0.1c2.6,11.8,5.3,23.6,8,35.8c1.3-0.2,1.9-0.2,2.6-0.4c40.8-8.5,81.7-16.9,122.5-25.6c1.9-0.4,4-2.3,5-4.1
				c4.2-7.9,7.9-16.2,12.1-24.1c1.4-2.7,1.2-4.8-0.1-7.4C1655.7,641.7,1646.8,625.6,1639.4,608.8z M1514.7,672.2
				c1.5-11.5,2.9-22.4,4.5-33.2c0.1-0.8,1.8-1.9,2.8-1.9c22.9-1.8,45.8-3.4,68.7-5.2c3.7-0.3,5.7,0.9,7.2,4.3
				c2.4,5.4,5.3,10.6,8.2,16.3C1575.4,659.1,1545.5,665.6,1514.7,672.2z"/>
			
				<linearGradient id="SVGID_00000038415321615871669420000016843156576598853264_" gradientUnits="userSpaceOnUse" x1="959.597" y1="808.32" x2="959.597" y2="270.31">
				<stop  offset="0" style="stop-color:#FFAD00"/>
				<stop  offset="1" style="stop-color:#FFD160"/>
			</linearGradient>
			<path style="fill:url(#SVGID_00000038415321615871669420000016843156576598853264_);" d="M1347.5,645.4c0.3,3.3-0.6,4.3-3.9,4.6
				c-27.9,1.9-55.8,4-83.7,6.1c-2.6,0.2-5.1,0.2-5.4,4.1c-2.3,26.1-4.8,52.1-7.2,78.1c-0.1,0.6,0.1,1.3,0.2,2.2
				c25.1,7.2,50.1,14.3,75.6,21.6c-4.3,15.5-8.5,30.6-12.8,46.1c-1.7-0.3-3.1-0.5-4.5-0.9c-30.1-8.4-60.2-16.8-90.2-25.5
				c-2.3-0.7-4.7-2.5-6.1-4.4c-4.6-6.3-10.7-12.5-12.5-19.6c-1.8-7.2,0.7-15.5,1.4-23.2c2.1-22.4,4.3-44.8,6.4-67.2
				c0.2-1.6,0-3.2,0-5.3h-73.9c-1.4-16.3-2.7-32.2-4.1-49h82.9c1.3-14.6,2.6-28.8,4-43.5c16.4,1.6,32.2,3.2,48.6,4.8
				c-0.9,10.3-1.8,20.2-2.8,30.6h84.7c0.2,2,0.5,3.5,0.6,5.1C1345.8,621.8,1346.5,633.6,1347.5,645.4z"/>
			
				<linearGradient id="SVGID_00000005248875083200635590000005003860226160065702_" gradientUnits="userSpaceOnUse" x1="959.597" y1="808.32" x2="959.597" y2="270.31">
				<stop  offset="0" style="stop-color:#FFAD00"/>
				<stop  offset="1" style="stop-color:#FFD160"/>
			</linearGradient>
			<path style="fill:url(#SVGID_00000005248875083200635590000005003860226160065702_);" d="M934.1,527.5
				c-16.3-2.5-32.1-4.8-48.5-7.3c2-13,3.8-25.3,5.7-37.6c4.6-30.3,9.1-60.6,14-90.9c0.5-3.3,2.4-6.9,4.7-9.4
				c14.5-15.1,14.6-14.8,38.2-18.2c30.6-4.5,61.1-9.7,91.6-14.3c2.1-0.3,5,0.4,6.7,1.7c6.8,5,13.4,10.4,19.9,15.9
				c1.4,1.2,2.7,3.5,2.8,5.3c2.4,47.9,4.7,95.9,7.1,143.8c0.1,2.9-0.8,4.1-3.6,4.8c-10.1,2.6-20.1,5.9-30.4,8.1
				c-4.4,1-9.2,0.2-14.6,0.2c-2.1-42.5-4.3-84.9-6.4-127.9c-8.1,1.3-15.6,2.4-23,3.6c-13.6,2.2-27.2,4.5-40.9,6.6
				c-4.3,0.6-6.3,2.1-7,6.9c-4.9,34.5-10.1,68.9-15.3,103.4C934.8,523.7,934.5,525.3,934.1,527.5z"/>
			
				<linearGradient id="SVGID_00000059273418653483021100000015038470252178049938_" gradientUnits="userSpaceOnUse" x1="959.597" y1="808.32" x2="959.597" y2="270.31">
				<stop  offset="0" style="stop-color:#FFAD00"/>
				<stop  offset="1" style="stop-color:#FFD160"/>
			</linearGradient>
			<path style="fill:url(#SVGID_00000059273418653483021100000015038470252178049938_);" d="M1863.6,711.1
				c-15.7,27.7-31.5,55.3-47.5,82.8c-0.8,1.5-2.6,2.4-3.9,3.6c-0.2,0.2-0.6,0.2-0.9,0.4c-14.7,10.7-30.4,6.8-46.3,3.6
				c-27.9-5.6-55.9-10.5-83.8-15.7c-2.1-0.4-4.2-0.9-6.7-1.4c3.1-15.9,6.1-31.4,9.2-47.5c15.5,2.9,30.4,5.7,45.2,8.6
				c16.3,3.1,32.6,6.3,49,9.3c1.6,0.3,4.4-0.2,5.1-1.3c6.9-11.4,13.5-22.9,20.5-35c-11-1.6-21.3-3.1-31.5-4.5
				c-24.4-3.4-48.8-6.8-73.1-10.3c-1.6-0.2-3.2-1.5-4.5-2.7c-1.2-1.1-1.9-2.8-3.1-3.9c-11.9-11-14.6-24.2-12.1-40
				c2.7-16.9,2.8-34.2,4.4-51.3c0.3-3,2.1-6.1,4-8.5c2.9-3.6,7-6.3,9.8-9.9c4.3-5.7,10.1-6.7,16.6-7.2c33.2-2.5,66.4-5.2,99.6-7.8
				c7.1-0.5,14.2-1,21.8-1.5c1,16.2,2,31.9,3.1,48.3c-35.8,2.7-71.1,5.4-107.2,8.1c-0.8,10.1-1.7,20.3-2.5,31c9,1.3,17.5,2.5,26,3.8
				c30.6,4.4,61.2,8.7,91.8,13.2c1.4,0.2,3,1.5,3.7,2.7c4.8,9.2,9.4,18.4,13.8,27.7C1864.6,707.2,1864.4,709.7,1863.6,711.1z"/>
			
				<linearGradient id="SVGID_00000141449176845690054790000010682019060064288384_" gradientUnits="userSpaceOnUse" x1="959.597" y1="808.32" x2="959.597" y2="270.31">
				<stop  offset="0" style="stop-color:#FFAD00"/>
				<stop  offset="1" style="stop-color:#FFD160"/>
			</linearGradient>
			<path style="fill:url(#SVGID_00000141449176845690054790000010682019060064288384_);" d="M750.2,563.2c5,18.7,9.8,36.6,14.7,54.9
				c16.1-4.5,31.5-8.7,47.1-13c-5-18.7-9.8-36.6-14.7-54.9C781.4,554.6,766.1,558.8,750.2,563.2z"/>
		</g>
	</g>
	<g>
		<path d="M1900.3,700c-7.4-14.7-14.5-29.6-22.2-44.1c-4.4-8.3-3.2-17.2-3.9-25.9c-2.3-31.4-4.1-62.8-6.1-94.2
			c0-0.8-0.2-1.6-0.4-2.8c-10.5,0.8-20.7,1.5-31,2.3c-41.5,3.2-83,6.5-124.5,9.7c-2.5,0.2-5,0.9-7.5,0.6
			c-12.5-1.4-21.5,4.3-29.1,13.6c-4.2,5.2-8.9,9.9-14,15.5c-5.8-11.8-16.8-13.9-25.6-19c-19.4-11.2-19.5-10.7-41.8-8.5
			c-21.4,2.1-42.8,3.6-64.2,5.4c-0.6,0.1-1.3-0.1-2.5-0.3c4.9-25.3,9.8-50.4,14.8-76c-4.1-0.9-7.9-1.7-11.6-2.6
			c4.6-0.8,6.8-3.6,8.7-7.7c8.5-17.9,17.5-35.5,26.1-53.3c0.8-1.8,0.9-4.6,0.1-6.3c-14.8-29.6-29.7-59.2-44.8-88.6
			c-0.9-1.8-2.7-3.4-4.5-4.3c-10.9-6.1-21.9-12-32.9-17.8c-2.2-1.2-5-1.9-7.5-1.8c-35.2,2.7-70.4,5.6-105.5,8.5
			c-9,0.7-17.9,1.4-26.9,2.4c-2,0.2-4.1,1.2-5.6,2.6c-10.2,9.5-20.4,19.2-30.4,28.9c-2.2,2.1-3.8,4.7-6,7.4
			c-13-13.6-26.5-27.6-40.1-41.9c-11.4,10.8-22.7,21.6-33.9,32.2c-0.4-0.2-0.7-0.4-1.1-0.6c5.8-26.6,11.6-53.2,17.5-80.2
			c-14.3-3.1-28.4-6.2-42.5-9.3c-22.9-5-45.8-10-68.8-15c-0.9-0.2-1.8-0.7-2.7-1h-2c-5.7,25.3-11.3,50.7-17,76
			c-3.3,14.9-6.6,29.9-10.1,45.4c-1.6-1.1-2.8-1.9-3.9-2.7c-13.4-10.7-26.9-21.4-40.2-32.2c-2.6-2.1-4.9-2.5-8.2-2
			c-45.4,7.3-90.7,14.5-136.1,21.5c-4,0.6-7.1,2-9.9,5c-4.6,4.8-9.7,9.1-14.6,13.6c0.4,0.3,0,0.2,0,0c0,0,0,0,0,0
			c1.4-7.3-2.7-11.4-8.1-15.5c-11.6-8.7-22.7-18-34.2-26.9c-1.9-1.5-4.7-2.6-7.1-2.6c-50.8-0.1-101.7-0.1-152.5,0
			c-2.1,0-4.8,1.2-6.3,2.8c-7.9,8.3-15.5,17-23.4,25.8c-12.8-9.4-25.7-18.2-37.8-28c-6.4-5.1-11.9-6-19.8-3.6
			c-24.5,7.5-49.2,14.1-74,20.8c-2.9,0.8-6.3,0.8-9.1,0.1c-27.7-7.3-55.2-14.9-82.9-22.2c-2-0.5-5-0.1-6.7,1.1
			C410,315.4,394,326.7,378,338.2c-1.6,1.1-2.9,3.6-3.1,5.6c-2.8,26.5-5.3,53-7.8,79.5c-3.8,38.9-7.5,77.9-11.2,116.7
			c-0.5,0.3-0.8,0.7-1,0.6c-7.2-2.3-12.7,0.2-18.4,4.9c-11.7,9.6-23.9,18.6-36.2,27.5c-3.5,2.5-4.8,5.5-5.1,9.5
			c-0.8,9.6-1.9,19.2-3.8,28.8c-1.8-13.1-3.7-26.3-5.2-39.4c-0.5-4.8-2.3-8.1-6.5-10.8c-14.9-9.8-29.4-20.2-44.2-30.1
			c-1.7-1.1-4.4-1.9-6.3-1.4C159,546.6,88.9,563.9,18.8,581.1c-0.6,0.2-1.2,0.5-2.3,0.9c2.6,10.5,5.2,21,7.8,31.4
			c5.4,21.5,10.9,42.9,16.3,64.4c0.6,2.3,0.8,5,0.2,7.3c-8.2,32.8-16.5,65.5-24.8,98.2c-0.1,0.6-0.6,1.1-0.9,1.7v2
			c9.2,9.4,18.3,18.7,27.4,28.2c6.9,7.2,13.9,14.3,20.5,21.8c2.5,2.8,4.9,3.6,8.6,3c27.9-4.6,55.8-9,83.8-13.5
			c21.5-3.5,43-7,64.6-10.3c2.5-0.4,5.3,0,7.8,0.7c28.5,7.9,57,15.9,86,23.9c1.4-4.6,2.8-9.2,3.8-12.4c4.2,0.4,7.7,1.2,11.1,0.9
			c35.4-4,70.8-8.2,106.2-12.3c32.2-3.8,64.5-7.5,96.7-11.3c0.5,0,0.9-0.3,2.1-0.8c-4.1-35.5-8.3-71.1-12.5-107.1h22.3
			c-1,10.4-1.9,20.6-2.9,30.8c-1.1,11.8-2.4,23.5-3.3,35.3c-0.2,2.1,0.6,4.6,1.8,6.4c8.2,12.4,16.4,24.7,25,36.8
			c1.7,2.5,4.7,4.8,7.6,5.6c44.1,12.6,88.3,24.9,132.5,37.4c1.7,0.5,3.3,1.3,4.9,2h3c2.4-9.5,4.7-18.9,7.2-28.9
			c34,4,67.5,7.9,101.4,11.8c3.8-30.2,7.5-60.2,11.2-90.1c0.4,0,0.7,0,1,0c4.6,14.9,10,29.6,13.3,44.8c1.4,6.4-1.5,13.7-2.5,20.6
			c-0.6,4.4-1.3,8.8-2.2,14.3c3.9-1.1,7.2-2,10.4-3c24-7.4,24-7,48.7-3.3c9.8,1.5,18,4.8,25.6,11c5.2,4.3,10.9,7.9,17.1,12.3
			c1.7-10.9,3.2-21.1,5-31.2c0.4-2.4,1.2-4.9,2.6-6.8c21.6-30.2,43.3-60.3,65-90.5c0.5-0.7,1-1.3,2.6-1.7
			c-4.5,36.4-8.9,72.8-13.5,109.9c39.5,4.6,78.6,9.2,118.4,13.9c5.7-45.7,11.3-91.2,17-137.1h26.4c-0.9,10.5-1.8,20.8-2.8,31
			c-1.1,11.8-2.4,23.5-3.4,35.3c-0.2,2,0.5,4.3,1.6,6c8.6,12.9,17.2,25.8,26.2,38.4c1.5,2.1,4.6,3.7,7.3,4.4
			c45,12.8,89.9,25.4,134.9,38c0.9,0.3,1.8,0.7,2.7,1.1h2c2.4-9.5,4.8-18.9,7.4-28.9c33.9,3.9,67.4,7.9,101.3,11.8
			c1.4-11.2,2.8-22.2,4.3-33.1c3.1,5.6,8.5,5.7,13.5,6.6c64.6,12,129.2,24,193.8,36c0.6,0.1,1.3,0.2,2.4,0.3
			c1.7-8.6,3.5-17.2,5.3-26.2c11.2,2.1,22,4,32.7,6c32.7,6.1,65.4,12.2,98.1,18.1c2.1,0.4,4.6-0.3,6.6-1.2
			c11.7-5.1,23.5-10.3,35-15.8c2.5-1.2,4.9-3.4,6.3-5.8c20.2-34.8,40.1-69.8,60.2-104.7c0.9-1.5,2.1-2.8,3.2-4.2v-3
			C1903.4,705.3,1901.7,702.7,1900.3,700z M1256.6,355.5c1.1-1,2.2-2,3.8-3.4c11.1,11.6,21.9,22.9,33.2,34.7
			c-20.9,19.9-41.8,39.8-62.7,59.8c26.2,22.8,52.2,45.4,78.7,68.5c-5.4,6.3-11.1,12.1-15.9,18.6c-4.4,6-9.2,7.8-16.8,6.9
			c-8.8-1-15.8-3.7-22.5-9.7c-24.3-21.9-49.1-43.1-73.7-64.5c-2.5-2.2-3.9-4.4-3.4-7.7c0.1-0.8,0-1.7,0-2.5c0-8.2-2.2-17.2,0.7-24.2
			c2.8-6.8,10.8-11.4,16.6-17C1215.1,395.1,1235.8,375.3,1256.6,355.5z M1289.9,439.2c-0.5,3.8-0.8,6.5-1.3,10.1
			c-1.8-1.5-3.3-2.6-5.2-4.1C1285.8,443.1,1287.5,441.4,1289.9,439.2z M1320,557.1c0.6-0.7,2.1-0.8,3.1-0.7c1.5,0.1,2.9,0.5,4.4,0.8
			c9.2,1.7,9.8,2.3,10.5,12.4h-29C1313.1,564.9,1316.5,560.9,1320,557.1z M1202.2,532.1c-0.1,0.3-0.2,0.6-0.3,0.9
			c-6.1-0.6-12.2-1.2-18.7-1.9c1-4.6,1.9-8.5,2.9-13.2C1191.8,523.1,1197,527.6,1202.2,532.1z M1180.2,549.2
			c-0.8,9-1.4,17.9-2.5,26.8c-0.1,0.9-2.4,1.5-3.7,2.3c-0.4-0.4-0.7-0.9-1.1-1.3c2.1-9.3,4.1-18.7,6.2-28
			C1179.5,549.1,1179.9,549.1,1180.2,549.2z M891.3,482.6c4.6-30.3,9.1-60.6,14-90.9c0.5-3.3,2.4-6.9,4.7-9.4
			c14.5-15.1,14.6-14.8,38.2-18.2c30.6-4.5,61.1-9.7,91.6-14.3c2.1-0.3,5,0.4,6.7,1.7c6.8,5,13.4,10.4,19.9,15.9
			c1.4,1.2,2.7,3.5,2.8,5.3c2.4,47.9,4.7,95.9,7.1,143.8c0.1,2.9-0.8,4.1-3.6,4.8c-10.1,2.6-20.1,5.9-30.4,8.1
			c-4.4,1-9.2,0.2-14.6,0.2c-2.1-42.5-4.3-84.9-6.4-127.9c-8.1,1.3-15.6,2.4-23,3.6c-13.6,2.2-27.2,4.5-40.9,6.6
			c-4.3,0.6-6.3,2.1-7,6.9c-4.9,34.5-10.1,68.9-15.3,103.4c-0.2,1.6-0.6,3.2-1,5.3c-16.3-2.5-32.1-4.8-48.5-7.3
			C887.6,507.2,889.5,494.9,891.3,482.6z M991.3,543c-21.7,30.4-43.5,60.6-65.3,90.8c-0.5,0.6-1,1.2-2.1,2.4
			c-8.1-26.2-16-51.8-24.1-78.1c21.5,3.3,42.4,6.5,63.8,9.8c1.5-9.7,2.9-19.1,4.3-28.6c4.6-30.4,9.2-60.9,13.6-91.3
			c0.6-4.2,2.3-5.4,6.6-4.5c0.8,15.2,1.6,30.5,2.3,45.8c0.8,15.8,1.7,31.6,2.4,47.4C992.9,538.6,992.5,541.3,991.3,543z M668.2,498
			c2.9-43.2,5.9-86.5,9.1-129.7c0.1-1.7,0.9-3.6,2-4.9c5.3-6.2,10.8-12.2,16.5-18.1c1.2-1.2,3.4-2.3,5.1-2.3
			c42.3-0.1,84.7-0.1,127,0c1.7,0,3.6,0.7,5,1.7c6,4.5,12,9.1,17.7,13.9c1.4,1.2,2.6,3.5,2.6,5.4c1.4,48,2.7,95.9,3.8,143.9
			c0.1,2-1.1,4.5-2.6,5.8c-5.9,4.9-12.1,9.4-18.3,13.9c-4.9,3.6-7.6,2.6-9.1-3.2c-1.6-5.7-3.2-11.5-4.8-17.6
			c-19.1,5.3-38.2,9.4-56.5,15.8c-24.7,8.7-49.9,6.5-75.1,6.6c-1.5,0-3.3-1.4-4.3-2.7c-5.7-7.6-11.2-15.4-16.5-23.2
			C668.6,502,668.1,499.8,668.2,498z M714.8,569.6h-39.3c-0.6-3,0-4.8,3.6-4.8c10.6,0.1,21.2,0.1,31.9,0
			C714.3,564.8,715.5,566.1,714.8,569.6z M289.5,797.3c-9.8-2.7-19-5.2-28.3-7.8c-4.2-1.2-8.5-2-12.4-3.6c-3.2-1.3-6-3.7-9.1-5.4
			c-2-1.1-4.4-2.6-6.4-2.3c-46.8,7.4-93.6,14.7-140.3,22.7c-9.8,1.7-17.1,1-23-7.7c-3.6-5.3-9-9.4-13.2-14.3
			c-1.3-1.6-2.2-4.5-1.8-6.4c7-28.6,14.3-57.2,21.6-85.8c0.4-1.6,1-3.4,2.1-4.3c5.9-4.9,11.8-9.8,18-14.3c1.4-1,3.8-1,5.7-1
			c35.2,0,70.3,0,105.5,0h6.2c-2.1-15.5-4.1-30.6-6.2-46.1c-45.8,11.1-91.1,22.2-137.1,33.4c-4-15.7-7.8-30.9-11.8-46.6
			c1.7-0.6,3.2-1.2,4.8-1.6c52.4-12.9,104.9-25.8,157.4-38.5c2.4-0.6,5.6,0.2,7.7,1.5c6.9,4.3,13.6,9,20.1,14
			c1.7,1.3,3.4,3.8,3.7,5.9c6.9,49.7,13.6,99.4,20.2,149.1c0.5,3.5,1.6,5.1,5.1,6c8,2,15.9,4.4,24.4,6.9
			C298.1,766.5,293.9,781.6,289.5,797.3z M448.4,779.9c-24.3,2.9-48.5,5.7-72.8,8.6c-12.2,1.4-24.4,3.1-36.7,4.2
			c-2.2,0.2-5.2-0.9-6.9-2.4c-6.4-5.9-12.5-12.1-18.3-18.4c-1.4-1.6-2.4-4.4-2.2-6.5c5.6-55.2,11.5-110.4,17.2-165.5
			c0.4-3.3,1.6-5.4,4.3-7.3c5.3-3.8,10.6-7.6,15.4-11.9c4.1-3.8,8.3-4.1,13.6-3.3c36.4,6.1,72.8,11.9,109.2,17.8
			c4.7,0.8,9.5,1.6,15,2.5c-2.6,15.9-5.1,31.6-7.7,47.9c-34.6-5.6-68.6-11.1-103.4-16.7c-4.1,37.4-8.1,74.5-12.2,112.5
			c42.4-5.1,84.1-10.2,126.3-15.3c1.9,16.3,3.8,32.1,5.7,48.4C478.8,776.3,463.6,778.1,448.4,779.9z M474.9,692.3
			c-24,2.9-47.7,5.7-72.4,8.7c1.1-10.5,2.1-20.6,3.2-31.3c7.7,1.2,14.8,2.3,22,3.4c13.4,2.2,26.8,4.8,40.3,6.5
			c5.3,0.6,6.8,2.8,6.6,7.4C474.7,688.6,474.8,690.2,474.9,692.3z M495.3,525.5c-0.2-37.7-0.7-75.3-0.9-113c0-4.2-1.1-6.1-5.4-7.2
			c-11.4-2.8-22.7-6.2-34.8-9.6c-4.4,45.6-8.8,90.7-13.3,136.7c-16.4-1.3-32.1-2.6-48.3-3.9c0-1.5-0.1-2.8,0-4
			c5.1-53.8,10.3-107.5,15.6-161.2c0.2-2,1.6-4.3,3.2-5.6c6.8-5.1,13.7-10,20.9-14.6c2.1-1.3,5.4-2,7.7-1.4
			c25.6,6.6,51.1,13.6,76.6,20.4c2.4,0.6,5.3,0.6,7.7,0c24.5-6.7,49-13.6,73.5-20.6c3.6-1,6.2-0.6,9.1,1.7
			c6.8,5.3,14,10.2,20.8,15.5c1.5,1.2,2.9,3.4,2.9,5.2c2.9,54.4,5.6,108.8,8.3,163.3c0,0.8,0,1.6,0,3c-1.8,0.1-3.4,0.4-4.9,0.4
			c-12.8,0-25.7-0.1-38.5,0.1c-4.1,0.1-5.4-1.1-5.6-5.2c-2-40.9-4.3-81.9-6.5-122.8c-0.1-1.8-0.3-3.6-0.5-6
			c-13.4,3.6-26.4,7.1-39.5,10.7v122.9c-1.3,0.1-2.8,0.4-4.2,0.4c-13,0-26-0.1-39,0.1C496.1,530.8,495.3,529.2,495.3,525.5z
			 M515.7,566.7c0-0.2,0-0.3,0-0.5h39.8c-0.3,3.8-0.6,7.4-0.9,11.3h-29.5c0.3-2.9,0.6-5.7,1-8.9C522.5,568,519.1,567.3,515.7,566.7z
			 M713.5,729.3c-16.9-4.8-33-9.4-49-14.2c-1.1-0.3-2.5-2.2-2.4-3.3c0.4-6.6,1-13.3,1.9-19.9c0.1-1,1.7-2.6,2.6-2.7
			c17.2-1.4,34.4-2.6,52.4-3.9C717.1,700.2,715.3,714.4,713.5,729.3z M709.5,650.7c-24.1,1.8-48.1,3.6-72.2,5.2
			c-4,0.3-5.6,1.6-6,5.9c-2.1,25.2-4.6,50.5-7,75.7c-0.1,0.8,0,1.6,0,3c25.1,7.2,50.3,14.4,75.8,21.6c-4.3,15.6-8.5,30.7-12.8,46.2
			c-2-0.5-3.6-0.8-5.1-1.2c-29.8-8.4-59.6-16.7-89.3-25.2c-2.4-0.7-5-2.6-6.5-4.7c-4.6-6.3-10.7-12.5-12.5-19.6
			c-1.8-7.2,0.8-15.5,1.5-23.2c2.1-22.4,4.3-44.8,6.4-67.2c0.1-1.5,0.2-3,0.3-5.1h-74.2c-1.4-16.5-2.7-32.4-4.1-48.8h82.9
			c1.3-14.6,2.6-28.8,4-43.7c16.1,1.6,32,3.1,48.6,4.7c-0.9,10.2-1.8,20.2-2.7,30.7h84.9c1.1,15.2,2.1,29.6,3.1,44.4
			C719.3,649.8,714.4,650.4,709.5,650.7z M790,795.8c-16.4-1.9-32.2-3.7-48.7-5.6c6.8-54.9,13.5-109.3,20.3-164.5
			c16.6,2,32.3,3.9,48.7,5.8C803.5,686.5,796.8,740.9,790,795.8z M764.9,618.1c-4.9-18.3-9.7-36.2-14.7-54.9
			c15.8-4.4,31.1-8.6,47.1-13c4.9,18.3,9.7,36.2,14.7,54.9C796.5,609.4,781,613.6,764.9,618.1z M923.1,781.6
			c-2.3,3.2-4.3,4.1-8.2,3.4c-10.6-2-21.4-3.3-32-5.3c-1.6-0.3-3.4-2.8-4-4.7c-11.4-36.6-22.7-73.2-34-109.8
			c-7.8-25.3-15.6-50.6-23.4-75.9c-0.6-2.1-1.2-4.1-2-6.9c15.5-4.9,30.8-9.8,46.6-14.8c15,48.9,29.9,97.2,45.2,146.7
			c31.5-43.8,62.5-86.7,93.9-130.3c13.4,9.7,26.2,18.9,39.3,28.4c-1.3,1.8-2.3,3.3-3.3,4.8C1001.8,672,962.4,726.8,923.1,781.6z
			 M1092.7,795.8c-16.6-1.9-32.4-3.7-48.7-5.6c6.8-54.9,13.5-109.2,20.3-164.4c16.2,1.9,32.1,3.8,48.7,5.8
			C1106.3,686.3,1099.5,740.8,1092.7,795.8z M1067.7,618.1c-4.9-18.3-9.7-36.2-14.7-54.8c15.6-4.3,31.1-8.6,47.1-13.1
			c4.9,18.3,9.7,36.3,14.7,55C1098.9,609.5,1083.6,613.7,1067.7,618.1z M1124.3,507.1c-7.5,2-15,4-23.3,6.2
			c18-81.4,35.8-161.9,53.7-243.1c15.9,3.5,31.2,6.8,47,10.2c-19,86.5-37.9,172.6-56.9,258.8c-0.5,0.1-0.8,0.2-1.1,0.2
			c-10.8-1.9-10.8-1.9-13.6-12.5c-1.6-6.1-3.3-12.2-5-18.3C1124.9,508.2,1124.6,507.8,1124.3,507.1z M1336.6,729.3
			c-17.4-5-34.3-9.8-51.9-14.8c0.8-8.5,1.6-16.6,2.4-25.1c18.3-1.4,36.3-2.7,54.9-4.1C1340.2,700.2,1338.5,714.5,1336.6,729.3z
			 M1343.6,649.9c-27.9,1.9-55.8,4-83.7,6.1c-2.6,0.2-5.1,0.2-5.4,4.1c-2.3,26.1-4.8,52.1-7.2,78.1c-0.1,0.6,0.1,1.3,0.2,2.2
			c25.1,7.2,50.1,14.3,75.6,21.6c-4.3,15.5-8.5,30.6-12.8,46.1c-1.7-0.3-3.1-0.5-4.5-0.9c-30.1-8.4-60.2-16.8-90.2-25.5
			c-2.3-0.7-4.7-2.5-6.1-4.4c-4.6-6.3-10.7-12.5-12.5-19.6c-1.8-7.2,0.7-15.5,1.4-23.2c2.1-22.4,4.3-44.8,6.4-67.2
			c0.2-1.6,0-3.2,0-5.3h-73.9c-1.4-16.3-2.7-32.2-4.1-49h82.9c1.3-14.6,2.6-28.8,4-43.5c16.4,1.6,32.2,3.2,48.6,4.8
			c-0.9,10.3-1.8,20.2-2.8,30.6h84.7c0.2,2,0.5,3.5,0.6,5.1c0.9,11.8,1.6,23.6,2.6,35.4C1347.8,648.6,1346.9,649.7,1343.6,649.9z
			 M1432.9,637.1c-3.2,24.6-6.1,49.3-9.2,73.9c-3.3,26.6-6.6,53.3-9.9,79.9c-0.2,1.5-0.5,2.9-0.8,4.8c-16.3-1.9-32-3.7-48.5-5.6
			c6.8-54.9,13.5-109.3,20.3-164.4c8,0.9,15.6,1.7,23.1,2.6c6.8,0.8,13.5,2.2,20.3,2.4C1433.2,631,1433.4,633.1,1432.9,637.1z
			 M1388.2,618.1c-4.9-18.3-9.7-36.3-14.7-54.9c15.8-4.4,31.1-8.6,47.1-13c4.9,18.4,9.7,36.4,14.7,54.9
			C1419.5,609.5,1404.2,613.7,1388.2,618.1z M1445.3,507c-17.9,4.9-35.4,9.7-52.8,14.4c-2.1,0.6-4.3,0.8-6.2,1.8
			c-16.5,7.7-32.9,3.3-49.2-0.3c-1.5-0.3-3.1-1.8-4.1-3.2c-4.2-5.6-8.1-11.4-12.3-17c-2.3-3-3-5.9-2.5-9.6
			c6.1-44.1,12-88.2,17.9-132.2c0.1-0.3,0.1-0.7,0.1-1c0.7-4,18.2-20.5,22.2-20.9c19.6-1.7,39.1-3.3,58.7-4.9
			c17.1-1.4,34.2-2.8,51.3-4c2.6-0.2,5.4,0.7,8,1.7c12.5,4.6,20.4,13.3,25.7,25.7c7.2,16.6,16.2,32.5,24.2,48.8
			c0.9,1.9,1,4.9,0.1,6.8c-3.7,8.3-7.8,16.6-12.1,24.7c-0.9,1.7-2.8,3.4-4.6,3.8c-40.6,8.6-81.3,17.1-122,25.5
			c-0.9,0.2-1.9,0.3-3.3,0.5c-2.6-11.7-5.1-23.1-7.7-34.6c-0.4,0-0.8,0-1.3,0c-2,15.5-4.1,31-6.2,47c44,8.2,87.7,16.3,132.1,24.5
			c-3.1,15.8-6.1,31.3-9.2,47.3c-9.6-1.7-18.8-3.8-28.1-4.9c-6.6-0.8-9.6-3.7-10.9-10.2C1451,526.8,1448,517.1,1445.3,507z
			 M1664.2,665.4c-4.2,8-7.9,16.2-12.1,24.1c-0.9,1.8-3.1,3.7-5,4.1c-40.8,8.7-81.6,17.1-122.5,25.6c-0.6,0.1-1.3,0.2-2.6,0.4
			c-2.7-12.2-5.4-24-8-35.8c-0.3,0-0.6,0.1-0.9,0.1c-2.1,15.8-4.1,31.6-6.3,48c44,8.2,87.9,16.3,132.1,24.5
			c-3.1,16-6.2,31.5-9.3,47.4c-13.6-2.5-26.6-4.9-39.6-7.3c-37.1-6.9-74.2-13.8-111.3-20.5c-4.2-0.8-7.3-2.2-9.6-6
			c-4.3-6.7-11.3-12.6-13.1-19.8c-1.8-7.4,1.3-16,2.3-24.1c5-37.5,10.1-75,15.3-112.4c0.4-2.5,2-5.2,3.7-7.2
			c3.2-3.6,7.2-6.5,10.3-10.1c3.5-4,7.8-5.7,13-6.1c26.5-2,53.1-4.1,79.6-6.2c8.3-0.7,16.6-1.6,24.9-1.9c3.3-0.1,6.7,1.1,9.9,2.2
			c12,4.2,19.1,12.9,24.2,24.5c7.4,16.7,16.2,32.8,24.6,49.1C1665.4,660.6,1665.6,662.7,1664.2,665.4z M1863.6,711.1
			c-15.7,27.7-31.5,55.3-47.5,82.8c-0.8,1.5-2.6,2.4-3.9,3.6c-0.2,0.2-0.6,0.2-0.9,0.4c-14.7,10.7-30.4,6.8-46.3,3.6
			c-27.9-5.6-55.9-10.5-83.8-15.7c-2.1-0.4-4.2-0.9-6.7-1.4c3.1-15.9,6.1-31.4,9.2-47.5c15.5,2.9,30.4,5.7,45.2,8.6
			c16.3,3.1,32.6,6.3,49,9.3c1.6,0.3,4.4-0.2,5.1-1.3c6.9-11.4,13.5-22.9,20.5-35c-11-1.6-21.3-3.1-31.5-4.5
			c-24.4-3.4-48.8-6.8-73.1-10.3c-1.6-0.2-3.2-1.5-4.5-2.7c-1.2-1.1-1.9-2.8-3.1-3.9c-11.9-11-14.6-24.2-12.1-40
			c2.7-16.9,2.8-34.2,4.4-51.3c0.3-3,2.1-6.1,4-8.5c2.9-3.6,7-6.3,9.8-9.9c4.3-5.7,10.1-6.7,16.6-7.2c33.2-2.5,66.4-5.2,99.6-7.8
			c7.1-0.5,14.2-1,21.8-1.5c1,16.2,2,31.9,3.1,48.3c-35.8,2.7-71.1,5.4-107.2,8.1c-0.8,10.1-1.7,20.3-2.5,31c9,1.3,17.5,2.5,26,3.8
			c30.6,4.4,61.2,8.7,91.8,13.2c1.4,0.2,3,1.5,3.7,2.7c4.8,9.2,9.4,18.4,13.8,27.7C1864.6,707.2,1864.4,709.7,1863.6,711.1z"/>
		<path d="M222.7,730.5c-37.2,5.9-73.8,11.7-110.7,17.6c0.1-1.4,0-2.5,0.3-3.5c2.1-8.4,4.3-16.8,6.3-25.2c0.6-2.6,1.6-4,4.6-3.9
			c31.3,0.1,62.6,0.1,93.9,0c2.6,0,4,0.6,4.2,3.5C221.5,722.7,222.1,726.3,222.7,730.5z"/>
		<path d="M1514.7,672.2c1.5-11.5,2.9-22.4,4.5-33.2c0.1-0.8,1.8-1.8,2.8-1.9c22.9-1.8,45.8-3.4,68.7-5.2c3.7-0.3,5.7,0.9,7.2,4.3
			c2.4,5.4,5.3,10.6,8.2,16.3C1575.4,659.1,1545.5,665.6,1514.7,672.2z"/>
		<path d="M1377,420.2c1.5-11.4,2.8-21.9,4.4-32.4c0.2-1.1,2-2.6,3.2-2.7c22.9-1.8,45.8-3.4,68.7-5.2c3.5-0.3,5.4,0.8,6.9,4.1
			c2.4,5.4,5.3,10.7,8.3,16.6C1437.8,407.1,1407.9,413.5,1377,420.2z"/>
		<path d="M805.4,391.2c0.8,30.1,1.5,59.7,2.3,89.6c-29.8,0-59,0-88.8,0c1.9-30,3.8-59.7,5.7-89.6
			C751.6,391.2,778.2,391.2,805.4,391.2z M771.2,445.5c0-6.4,0-12.4,0-19c-4,0-7.5-0.2-10.9,0.1c-1.1,0.1-2.8,1.8-2.9,2.9
			c-0.6,5.2-0.7,10.5-0.9,16C761.6,445.5,766.5,445.5,771.2,445.5z"/>
	</g>
</g>
</svg>
