<?xml version="1.0" encoding="UTF-8"?>
<svg id="Layer_1" data-name="Layer 1" xmlns="http://www.w3.org/2000/svg" viewBox="0 0 1919.8 627.91">
  <defs>
    <style>
      .cls-1, .cls-2, .cls-3 {
        stroke-width: 0px;
      }

      .cls-2 {
        fill: none;
      }

      .cls-3 {
        fill: #fff;
      }
    </style>
  </defs>
  <g>
    <path class="cls-2" d="m765.2,190.91c-2.1-2.3-5.2-3.3-8.2-3-1.6-.5-3.3-.6-5.2-.3-4.4.7-7.4,3.6-6.9,8.2.3,3,2.5,6.3,3,9.5,0,.3,0,.5.1.7,0,.6,0,1.2-.1,1.8-.5,1.9.6,3.7,2.4,4.3,4.4,1.4,7.1-.5,11.1-2.2.2-.1.4-.1.6-.2,1.1.3,2.4.1,3.2-1,1.5-.4,3-1,4.1-2,2.3-1.9,2.1-4.6,1-7.1-1.2-2.9-2.9-6.3-5.1-8.7Z"/>
    <path class="cls-3" d="m1871.1,464.91c-6.3-12.9-9.9-17.1-15.4-18.2-3.9-.8-31.7-4.7-61.4-9.1l-54.5-7.4,1.7-15.4c1.1-8.5,1.9-15.7,2.2-15.7.3-.3,24.2-2.2,53.1-4.4,29.2-2.2,53.7-4.4,54.2-5.2.6-.6.6-11.8-.3-25.3-1.7-26.7.8-24.2-24.2-22-6.1.6-33.9,2.8-62,5.2l-50.9,4.1-9.9,9.6-9.6,9.4-3.3,40.5-3,40.5,9.1,12.4,9.4,12.7,52.9,7.4c28.9,3.9,53.4,8,54.2,8.8s-3,9.4-8.8,19c-7.2,12.1-11.8,17.3-14.9,16.8-8.3-1.9-91.7-17.6-93.9-17.6-1.9,0-12.4,46.5-10.5,48.2.6.3,27.5,5.8,60,11.8l59.2,11,12.1-6.1c11-5.2,14.3-9.6,37.4-49.8l25.3-44.1-8.2-17.1Z"/>
    <path class="cls-3" d="m1630.2,357.21c-6.1-3.3-13.8-5.8-17.3-5.8-3.6.3-30.6,2.5-59.8,5.2l-53.1,4.4-9.9,9.9-9.6,9.9-9.6,70.8c-10.5,75.7-10.5,73.8,2.8,90,5.8,7.2,10.5,8.5,79,21.2,40.2,7.4,76,14,79.9,14.6,6.3.8,7.2-.3,11.8-22.3,2.5-12.7,4.4-23.7,3.6-24.2-.6-.6-30.6-6.6-66.6-13.5-35.8-6.6-65.8-12.4-66.1-12.9-.8-.8,4.1-39.9,5.5-44.6.6-1.7,2.5,5,4.4,14.3,2.5,12.7,4.7,17.3,8,17.3,2.5,0,32.2-5.8,65.8-12.9l61.7-12.9,8-16,8-16-17.6-35c-15.4-30.7-19.3-36-28.9-41.5Z"/>
    <path class="cls-3" d="m1499.1,314.31c2.5-7.2,9.4-43.8,8.3-44.9-.6-.6-30.6-6.6-66.6-13.5-35.8-6.6-65.8-12.4-66.1-12.9-.3-.3.8-11,2.5-24l3-23.4,4.1,17.1c2.8,12.7,5.2,17.3,8.5,17.3,2.5,0,31.1-5.5,63.3-12.4,32.2-6.9,59.8-12.4,61.1-12.4,1.1,0,5.8-7.4,10.5-16.5l8.3-16.5-17.6-35c-15.1-30.8-19-36.1-28.6-41.6-6.1-3.3-13.8-5.8-17.3-5.8-3.6.3-30.6,2.5-60,5.2l-53.4,4.7-9.9,10.7-9.9,10.7-9.4,70.8-9.1,70.5,8.5,12.4c7.7,11.3,9.9,12.9,24.2,15.7,8.8,1.7,18.2,3.3,20.9,3.9,2.5.8,19.8-3,38.5-8.3,18.4-5.2,35-8.8,36.6-8.3,1.7.6,4.4,8,6.3,16.5,2.8,12.1,4.7,15.7,9.4,16.8,27.9,5.9,32.8,6.2,33.9,3.2Z"/>
    <path class="cls-3" d="m1421.5,321.71c-5.2-.3-39.1,8.8-41.6,11.3-1.7,1.4,1.7,16.5,8.8,42.1l4.1,14,22.9-6.1c13.8-3.9,22.9-7.7,23.1-10.2.6-2.2-2.2-14.3-5.5-27.3-5.2-18.3-7.7-23.2-11.8-23.8Z"/>
    <path class="cls-3" d="m1412.9,399.41c-18.2-1.7-23.1-1.1-24,1.7-.8,2.2-5.2,36.6-9.9,76.8-4.7,40.2-9.1,76.3-9.9,80.4l-1.4,7.4,22.9,2.2c12.7,1.1,24,2.2,25.6,2.2,3,0,23.7-164.4,21.2-166.9-1-1.1-12.1-2.7-24.5-3.8Z"/>
    <path class="cls-3" d="m1348.4,377.21h-84.5v-32.2l-18.4-1.7c-33-3.3-30.3-5-32.5,20.1l-1.9,22h-84.8l1.7,21.2c.8,11.8,1.9,23.1,2.8,24.8.6,2.8,10.7,3.6,38.5,3.6h37.7l-1.7,14.3c-.8,8-3,30.3-5,49.6l-3,34.7,8,11.6q8,11.6,55.9,25.3c26.2,7.4,49.3,12.9,50.9,12.1,3-1.1,16-43,14-44.9-.6-.6-17.6-5.8-37.7-11.6-23.1-6.6-37.2-11.8-37.7-14.3-.8-5,6.6-79.3,8.3-81,.6-.6,21.8-2.8,47.1-4.7l46-3.3v-8.3c0-4.7-.8-15.1-1.7-23.1l-2-14.2Z"/>
    <path class="cls-3" d="m1181.2,211.01l-2.8,17.6,46.9,40.5c35,30.6,48.7,40.8,54,40.8s11-4.1,20.7-14.9l12.9-15.1-40.2-35.2-40.5-35.2,31.9-30.3,31.9-30.3-15.7-17.3c-8.8-9.4-17.1-17.1-18.4-17.1-1.7.3-20.9,17.9-43.2,39.7l-37.6,39.4.1,17.4h0Z"/>
    <path class="cls-3" d="m1131.8,300.81c4.7,5.8,12.9,4.1,14.6-2.8,11.3-49,55.9-256.6,55.3-257.5-.6-.6-9.1-2.8-18.4-5-9.6-2.2-20.1-4.4-23.1-5.2-5.8-1.1-9.4,13.2-55.3,223.9l-6.1,28.6,5.8-1.7c19.8-5.8,20.4-5.8,22.6,5.8,1,5.9,3,12.2,4.6,13.9Z"/>
    <path class="cls-3" d="m1095.7,321.21c-5,.3-42.1,10.5-43.8,12.1-.8.8,12.9,54.2,14.3,55.9.6.3,4.4-.6,8.8-1.9,4.4-1.4,14.9-4.7,23.7-6.9l15.4-4.4-7.2-27.5c-5.1-20.5-8.1-27.6-11.2-27.3Z"/>
    <path class="cls-3" d="m1085.6,399.41c-22-1.9-22.3-1.9-24,4.4-2.8,12.4-19.5,159.2-18.2,160.5,1.9,2.2,46.8,6.3,47.9,4.4,2.5-4.1,20.7-163.6,18.7-165.5-1-1.1-12.3-3-24.4-3.8Z"/>
    <path class="cls-3" d="m1074.8,288.71l-.8-19c-.3-10.5-1.9-45.7-3.3-78.2l-3-59.2-10.2-9.1c-5.5-5.2-12.1-10.2-14.3-11.3s-31.1,2.5-63.9,7.7c-59.8,9.9-60,9.9-69.4,19.5l-9.4,9.6-10.2,67.2c-5.5,36.6-9.4,67.5-8.8,68,1.4,1.4,47.1,9.1,48.2,8,.8-.6,17.1-108.2,17.1-112.9,0-2.8,68.6-16.5,70.8-14,.3.3,2.2,28.4,3.9,62.5,1.7,33.9,3.3,63.3,3.9,65,1.7,4.7,27,4.4,39.9-.3l9.5-3.5Z"/>
    <path class="cls-3" d="m1030.8,374.91c-5.2-3.9-13.8-10.2-19-14l-9.4-7.2-47.6,66.1c-25.9,36.3-47.5,65.5-48.2,65.5-.8-.8-45.2-144.8-45.2-146.5,0-1.9-1.9-1.4-25.3,6.1-16,5-21.5,8-21.5,11.3.3,2.5,13.5,47.9,30,101.1l29.7,96.4,20.1,3.6c11,1.9,20.9,2.8,22,1.4,6.1-6.3,123.9-172.1,123.9-174,.1-1.6-4.3-5.7-9.5-9.8Z"/>
    <path class="cls-3" d="m815,278.11c1.7,0,2.8,2.2,2.8,5s1.7,7.2,3.6,9.6c3,4.4,4.4,4.1,16.2-4.1l13.2-9.1v-31.7c0-17.3-.8-52.9-1.9-78.5l-1.7-47.1-11.6-8.8-11.6-8.8h-135.1l-9.6,10.7c-11.8,12.9-11.6,12.4-16.8,89.8l-4.1,60.6,10.2,15.1,10.2,15.1,31.4.8c28.4.6,34.1,0,66.9-9.1,19.5-5.1,36.6-9.5,37.9-9.5Zm-45.6-71.4c-1.2,1-2.6,1.5-4.1,2-.9,1.1-2.1,1.3-3.2,1-.2.1-.4.1-.6.2-3.9,1.7-6.7,3.6-11.1,2.2-1.8-.6-2.9-2.4-2.4-4.3.1-.6.2-1.2.1-1.8,0-.2-.1-.5-.1-.7-.5-3.1-2.7-6.5-3-9.5-.5-4.6,2.5-7.5,6.9-8.2,1.8-.3,3.6-.1,5.2.3,2.9-.3,6.1.7,8.2,3,2.2,2.4,3.9,5.8,5.2,8.8,1,2.4,1.1,5.1-1.1,7Z"/>
    <path class="cls-3" d="m785.7,321.21c-8.8.6-42.7,11.3-42.7,13.8,0,3,13.5,52.6,14.6,53.7.3.6,6.9-.8,14.3-3.3,7.7-2.2,18.2-5.2,23.7-6.6l9.9-2.8-7.2-27.5c-6-23.8-7.9-27.6-12.6-27.3Z"/>
    <path class="cls-3" d="m753.8,398.31c0,.6-4.7,38-10.5,83.4-6.9,54.8-9.4,82.3-7.4,83.2,6.9,2.2,44.6,5.8,46,4.1,2.8-2.8,21.8-163.8,19.5-165.8-1.9-1.9-47.1-6.6-47.6-4.9Z"/>
    <path class="cls-3" d="m712.6,377.21h-85.6l1.7-15.1c.8-8.3.6-15.7-.3-16.2-1.1-.6-12.7-1.9-25.9-3l-24.2-1.9v11.8c0,6.6-.8,16.8-1.7,22.3l-1.9,10.5h-84l1.4,12.9c.6,7.4,1.7,18.4,2.5,24.8l1.4,11.8h37.2c36.3,0,36.9,0,36.9,6.1,0,3.6-1.9,25.3-4.1,48.7l-4.1,42.4,7.7,12.1c6.6,10.5,9.4,12.7,25.3,17.3,32.8,9.6,78.5,22,81.5,22,4.7,0,16-44.3,12.1-46.8-1.7-1.1-18.2-6.1-36.6-11-18.4-5-34.4-9.9-35.5-10.7-1.7-1.7,4.7-82.6,6.9-84.5.6-.6,21.5-2.5,46.8-4.4l46-3.3v-14.3c0-7.7-.8-18.2-1.7-22.9l-1.8-8.6Z"/>
    <path class="cls-3" d="m481.9,297.31h49.6v-126.1l20.1-5.2,19.8-5.5,1.9,30.6c1.1,16.8,3,47.4,4.1,67.7l2.2,37.2,25.6.8,25.9.8-1.7-7.7c-.6-4.1-2.8-43.2-4.7-86.7l-3.3-79.3-14.6-11-14.3-10.7-42.4,11.8c-39.9,11.3-42.7,11.6-54.5,8.3-6.9-1.9-26.2-7.2-43-11.6l-30.8-8.3-12.9,9.4c-7.2,5-13.5,9.6-14,10.2-1.7,1.7-17.6,170.7-16.2,172.1.6.6,11.6,1.9,24.5,3l23.7,1.9,1.4-8.5c1.4-8.5,12.4-122.5,12.4-128,0-1.7,2.2-2.5,5-1.7,2.5.8,11.8,3.3,20.7,5.8l15.7,4.4v126.3h-.2Z"/>
    <path class="cls-3" d="m414.8,506.51c-32.2,3.9-60.6,7.2-63.1,7.2-3.6,0-3.6-6.1,1.9-55.1,3-30.3,6.3-55.9,7.2-56.4.8-.8,24,2.2,51.8,6.9,27.8,4.4,51.2,7.7,51.8,6.9,1.7-1.7,9.1-46,8-47.4-.6-.3-28.1-5-61.4-10.5-33-5.5-63.1-10.5-66.1-11-7.4-1.7-30.8,15.7-32.8,24.2-.6,3.3-5,43-9.6,88.1l-8.3,82.1,10.2,12.1c5.5,6.6,11.6,12.7,13.5,13.5,1.7.6,11.8,0,22.6-1.1,10.7-1.4,46.5-5.8,79.6-9.6,33-4.1,60.3-7.7,60.9-8.3,1.4-1.4-4.1-45.4-6.1-47.4-.9-.8-27.9,1.6-60.1,5.8Z"/>
    <path class="cls-3" d="m271.4,521.71l-14.9-4.4-7.2-52.9c-4.1-28.9-8.8-65.3-10.7-80.1l-3.3-27.3-12.7-9.1c-6.9-5.2-15.4-9.1-19.3-9.1-5.5.3-161.6,38-164.9,40.2-1.1.6,8.5,41.3,11,45.2,1.4,2.2,21.8-1.7,69.7-13.8,37.4-9.1,68.6-16.8,68.8-16.8.6,0,1.9,5.8,2.8,12.9,1.1,7.4,2.5,17.9,3.3,23.4l1.7,10.5h-120.3l-9.9,9.1c-9.4,8.3-10.7,11.8-21.8,54.8l-11.8,45.7,12.1,14c6.6,7.7,14,14,16.5,14,2.2,0,38.8-5.5,81-12.4,65.3-10.2,77.6-11.6,81.2-8.5,5.8,5.2,46.8,16.5,49.6,13.5,1.4-1.1,4.4-9.9,6.6-19.3,2.5-9.4,5.2-19,6.1-21.2.9-2.8-2.4-5-13.6-8.4Z"/>
  </g>
  <g>
    <path class="cls-2" d="m712.6,377.21h-85.6l1.7-15.1c.8-8.3.6-15.7-.3-16.2-1.1-.6-12.7-1.9-25.9-3l-24.2-1.9v11.8c0,6.6-.8,16.8-1.7,22.3l-1.9,10.5h-84l1.4,12.9c.6,7.4,1.7,18.4,2.5,24.8l1.4,11.8h37.2c36.3,0,36.9,0,36.9,6.1,0,3.6-1.9,25.3-4.1,48.7l-4.1,42.4,7.7,12.1c6.6,10.5,9.4,12.7,25.3,17.3,32.8,9.6,78.5,22,81.5,22,4.7,0,16-44.3,12.1-46.8-1.7-1.1-18.2-6.1-36.6-11-18.4-5-34.4-9.9-35.5-10.7-1.7-1.7,4.7-82.6,6.9-84.5.6-.6,21.5-2.5,46.8-4.4l46-3.3v-14.3c0-7.7-.8-18.2-1.7-22.9l-1.8-8.6Z"/>
    <path class="cls-2" d="m654.8,464.91c-1.1,1.9-2.2,7.7-2.2,13.2v9.9l25.3,7.2c26.7,7.7,29.7,7.2,29.7-5.2,0-3.3.8-11.6,1.7-18.7l1.9-12.7-16.2.6c-26.2.5-38,2.4-40.2,5.7Z"/>
    <path class="cls-2" d="m429.1,447.51c-17.3-3-33-5.5-34.7-5.5-3,0-6.6,14.3-6.6,26.2,0,5.8.3,5.8,36.6,1.4,33.9-3.9,36.3-4.7,37.2-10.5.6-3.3.6-6.1,0-6.1-.5,0-15.1-2.4-32.5-5.5Z"/>
    <path class="cls-2" d="m706.1,335.81c-.8-2.5-1.7-5-1.7-5.5,0-1.9-34.7-1.1-36.6.8-1.1.8-1.9,3.3-1.9,5.5,0,2.8,5.2,3.6,20.9,3.6,18,0,20.7-.6,19.3-4.4Z"/>
    <path class="cls-2" d="m753.8,398.31c0,.6-4.7,38-10.5,83.4-6.9,54.8-9.4,82.3-7.4,83.2,6.9,2.2,44.6,5.8,46,4.1,2.8-2.8,21.8-163.8,19.5-165.8-1.9-1.9-47.1-6.6-47.6-4.9Z"/>
    <path class="cls-2" d="m756.2,189.31c-7.2-.8-7.7-.3-7.7,8.8s.6,9.9,8.5,9.9,8.3-.6,7.4-9.1c-.4-7.4-2.1-9.1-8.2-9.6Z"/>
    <path class="cls-2" d="m785.7,321.21c-8.8.6-42.7,11.3-42.7,13.8,0,3,13.5,52.6,14.6,53.7.3.6,6.9-.8,14.3-3.3,7.7-2.2,18.2-5.2,23.7-6.6l9.9-2.8-7.2-27.5c-6-23.8-7.9-27.6-12.6-27.3Z"/>
    <path class="cls-2" d="m817.8,283.01c0,2.8,1.7,7.2,3.6,9.6,3,4.4,4.4,4.1,16.2-4.1l13.2-9.1v-31.7c0-17.3-.8-52.9-1.9-78.5l-1.7-47.1-11.6-8.8-11.6-8.8h-135.2l-9.6,10.7c-11.8,12.9-11.6,12.4-16.8,89.8l-4.1,60.6,10.2,15.1,10.2,15.1,31.4.8c28.4.6,34.1,0,66.9-9.1,19.5-5.2,36.6-9.6,38-9.6,1.7.2,2.8,2.4,2.8,5.1Zm-63.3-39.4h-46l1.4-11.8c1.1-6.3,2.5-26.7,3.6-45.4l1.9-33.6h81.8v14.3c0,8,.8,28.6,1.9,45.4l1.7,31.1h-46.3Z"/>
    <path class="cls-2" d="m414.8,506.51c-32.2,3.9-60.6,7.2-63.1,7.2-3.6,0-3.6-6.1,1.9-55.1,3-30.3,6.3-55.9,7.2-56.4.8-.8,24,2.2,51.8,6.9,27.8,4.4,51.2,7.7,51.8,6.9,1.7-1.7,9.1-46,8-47.4-.6-.3-28.1-5-61.4-10.5-33-5.5-63.1-10.5-66.1-11-7.4-1.7-30.8,15.7-32.8,24.2-.6,3.3-5,43-9.6,88.1l-8.3,82.1,10.2,12.1c5.5,6.6,11.6,12.7,13.5,13.5,1.7.6,11.8,0,22.6-1.1,10.7-1.4,46.5-5.8,79.6-9.6,33-4.1,60.3-7.7,60.9-8.3,1.4-1.4-4.1-45.4-6.1-47.4-.9-.8-27.9,1.6-60.1,5.8Z"/>
    <path class="cls-2" d="m1288.2,209.11c0,1.7,1.4,1.4,3.3-.6,1.7-1.7,2.5-3.9,1.9-4.7-1.9-1.9-5.2,1.4-5.2,5.3Z"/>
    <path class="cls-2" d="m271.4,521.71l-14.9-4.4-7.2-52.9c-4.1-28.9-8.8-65.3-10.7-80.1l-3.3-27.3-12.7-9.1c-6.9-5.2-15.4-9.1-19.3-9.1-5.5.3-161.6,38-164.9,40.2-1.1.6,8.5,41.3,11,45.2,1.4,2.2,21.8-1.7,69.7-13.8,37.4-9.1,68.6-16.8,68.8-16.8.6,0,1.9,5.8,2.8,12.9,1.1,7.4,2.5,17.9,3.3,23.4l1.7,10.5h-120.3l-9.9,9.1c-9.4,8.3-10.7,11.8-21.8,54.8l-11.8,45.7,12.1,14c6.6,7.7,14,14,16.5,14,2.2,0,38.8-5.5,81-12.4,65.3-10.2,77.6-11.6,81.2-8.5,5.8,5.2,46.8,16.5,49.6,13.5,1.4-1.1,4.4-9.9,6.6-19.3,2.5-9.4,5.2-19,6.1-21.2.9-2.8-2.4-5-13.6-8.4Zm-69-25.3v7.4l-51.5,8c-28.4,4.4-53.7,8.5-56.2,9.1-4.4,1.4-4.4.3-.6-15.4l4.1-16.8h104v7.7h.2Z"/>
    <path class="cls-2" d="m1181.2,211.01l-2.8,17.6,46.9,40.5c35,30.6,48.7,40.8,54,40.8s11-4.1,20.7-14.9l12.9-15.1-40.2-35.2-40.5-35.2,31.9-30.3,31.9-30.3-15.7-17.3c-8.8-9.4-17.1-17.1-18.4-17.1-1.7.3-20.9,17.9-43.2,39.7l-37.6,39.4.1,17.4h0Z"/>
    <path class="cls-2" d="m1326.5,340.21c15.7,0,16,0,14.6-7.2-.8-4.1-3.9-8-8-9.6-3.6-1.4-6.9-2.5-7.4-2.5-1.4,0-15.4,15.7-15.4,17.3-.1,1.1,7.1,2,16.2,2Z"/>
    <path class="cls-2" d="m403.1,297.11l23.7,1.9,1.4-8.5c1.4-8.5,12.4-122.5,12.4-128,0-1.7,2.2-2.5,5-1.7,2.5.8,11.8,3.3,20.7,5.8l15.7,4.4v126.4h49.6v-126.2l20.1-5.2,19.8-5.5,1.9,30.6c1.1,16.8,3,47.4,4.1,67.7l2.2,37.2,25.6.8,25.9.8-1.7-7.7c-.6-4.1-2.8-43.2-4.7-86.7l-3.3-79.3-14.6-11-14.3-10.7-42.4,11.8c-39.9,11.3-42.7,11.6-54.5,8.3-6.9-1.9-26.2-7.2-43-11.6l-30.8-8.3-12.9,9.4c-7.2,5-13.5,9.6-14,10.2-1.7,1.7-17.6,170.7-16.2,172.1.4.5,11.4,1.9,24.3,3Z"/>
    <path class="cls-2" d="m527.4,347.91c15.1-.8,16-1.1,16.8-8.5l.8-6.2h-32.5l-32.5-2.8,16.5,5.4c13.5,2.5,16.2,4.1,15.7,8-.7,4.3,1.2,4.9,15.2,4.1Z"/>
    <path class="cls-2" d="m1185.2,286.71c-4.1,11-1.9,14.3,10.7,15.4,6.9.6,12.4.3,12.1-.6,0-.8-5-5.5-10.7-10.5-8.5-7.3-10.7-8.1-12.1-4.3Z"/>
    <path class="cls-2" d="m1177.2,323.61c-1.1,6.9-2.8,15.1-3.9,18.4-.8,3.6-.3,6.3,1.4,6.3s3.9-5.5,4.7-11.8c2.8-17.3.6-29.1-2.2-12.9Z"/>
    <path class="cls-2" d="m1085.6,399.41c-22-1.9-22.3-1.9-24,4.4-2.8,12.4-19.5,159.2-18.2,160.5,1.9,2.2,46.8,6.3,47.9,4.4,2.5-4.1,20.7-163.6,18.7-165.5-1-1.1-12.3-3-24.4-3.8Z"/>
    <path class="cls-2" d="m1421.5,321.71c-5.2-.3-39.1,8.8-41.6,11.3-1.7,1.4,1.7,16.5,8.8,42.1l4.1,14,22.9-6.1c13.8-3.9,22.9-7.7,23.1-10.2.6-2.2-2.2-14.3-5.5-27.3-5.2-18.3-7.7-23.2-11.8-23.8Z"/>
    <path class="cls-2" d="m1412.9,399.41c-18.2-1.7-23.1-1.1-24,1.7-.8,2.2-5.2,36.6-9.9,76.8-4.7,40.2-9.1,76.3-9.9,80.4l-1.4,7.4,22.9,2.2c12.7,1.1,24,2.2,25.6,2.2,3,0,23.7-164.4,21.2-166.9-1-1.1-12.1-2.7-24.5-3.8Z"/>
    <path class="cls-2" d="m1499.1,314.31c2.5-7.2,9.4-43.8,8.3-44.9-.6-.6-30.6-6.6-66.6-13.5-35.8-6.6-65.8-12.4-66.1-12.9-.3-.3.8-11,2.5-24l3-23.4,4.1,17.1c2.8,12.7,5.2,17.3,8.5,17.3,2.5,0,31.1-5.5,63.3-12.4,32.2-6.9,59.8-12.4,61.1-12.4,1.1,0,5.8-7.4,10.5-16.5l8.3-16.5-17.6-35c-15.1-30.8-19-36.1-28.6-41.6-6.1-3.3-13.8-5.8-17.3-5.8-3.6.3-30.6,2.5-60,5.2l-53.4,4.7-9.9,10.7-9.9,10.7-9.4,70.8-9.1,70.5,8.5,12.4c7.7,11.3,9.9,12.9,24.2,15.7,8.8,1.7,18.2,3.3,20.9,3.9,2.5.8,19.8-3,38.5-8.3,18.4-5.2,35-8.8,36.6-8.3,1.7.6,4.4,8,6.3,16.5,2.8,12.1,4.7,15.7,9.4,16.8,27.9,5.9,32.8,6.2,33.9,3.2Zm-115.6-147.3c1.1-8.5,2.8-16.2,3.9-17.6.8-1.1,13.5-3,27.8-4.4,47.4-4.1,48.7-4.1,53.4,5.2,2.2,4.4,4.1,9.1,4.1,10.5s-7.2,4.1-15.7,5.8c-8.8,1.7-29.2,6.1-45.4,9.6l-29.7,6.3,1.6-15.4Z"/>
    <path class="cls-2" d="m1630.2,357.21c-6.1-3.3-13.8-5.8-17.3-5.8-3.6.3-30.6,2.5-59.8,5.2l-53.1,4.4-9.9,9.9-9.6,9.9-9.6,70.8c-10.5,75.7-10.5,73.8,2.8,90,5.8,7.2,10.5,8.5,79,21.2,40.2,7.4,76,14,79.9,14.6,6.3.8,7.2-.3,11.8-22.3,2.5-12.7,4.4-23.7,3.6-24.2-.6-.6-30.6-6.6-66.6-13.5-35.8-6.6-65.8-12.4-66.1-12.9-.8-.8,4.1-39.9,5.5-44.6.6-1.7,2.5,5,4.4,14.3,2.5,12.7,4.7,17.3,8,17.3,2.5,0,32.2-5.8,65.8-12.9l61.7-12.9,8-16,8-16-17.6-35c-15.4-30.7-19.3-36-28.9-41.5Zm-32.8,70.8c-8.8,1.7-29.2,6.1-45.4,9.6l-29.7,6.3,1.7-15.4c1.1-8.5,2.8-16.5,3.9-17.6,1.1-1.4,13.8-3.3,27.8-4.4,48.2-4.1,48.7-4.1,53.4,5.2,2.2,4.4,4.1,9.1,4.1,10.5-.1,1.4-7.2,4.1-15.8,5.8Z"/>
    <path class="cls-2" d="m1348.4,377.21h-84.5v-32.2l-18.4-1.7c-33-3.3-30.3-5-32.5,20.1l-1.9,22h-84.8l1.7,21.2c.8,11.8,1.9,23.1,2.8,24.8.6,2.8,10.7,3.6,38.5,3.6h37.7l-1.7,14.3c-.8,8-3,30.3-5,49.6l-3,34.7,8,11.6q8,11.6,55.9,25.3c26.2,7.4,49.3,12.9,50.9,12.1,3-1.1,16-43,14-44.9-.6-.6-17.6-5.8-37.7-11.6-23.1-6.6-37.2-11.8-37.7-14.3-.8-5,6.6-79.3,8.3-81,.6-.6,21.8-2.8,47.1-4.7l46-3.3v-8.3c0-4.7-.8-15.1-1.7-23.1l-2-14.2Z"/>
    <path class="cls-2" d="m1855.7,446.71c-3.9-.8-31.7-4.7-61.4-9.1l-54.5-7.4,1.7-15.4c1.1-8.5,1.9-15.7,2.2-15.7.3-.3,24.2-2.2,53.1-4.4,29.2-2.2,53.7-4.4,54.2-5.2.6-.6.6-11.8-.3-25.3-1.7-26.7.8-24.2-24.2-22-6.1.6-33.9,2.8-62,5.2l-50.9,4.1-9.9,9.6-9.6,9.4-3.3,40.5-3,40.5,9.1,12.4,9.4,12.7,52.9,7.4c28.9,3.9,53.4,8,54.2,8.8s-3,9.4-8.8,19c-7.2,12.1-11.8,17.3-14.9,16.8-8.3-1.9-91.7-17.6-93.9-17.6-1.9,0-12.4,46.5-10.5,48.2.6.3,27.5,5.8,60,11.8l59.2,11,12.1-6.1c11-5.2,14.3-9.6,37.4-49.8l25.3-44.1-8.3-17.1c-6.2-13-9.8-17.1-15.3-18.2Z"/>
    <path class="cls-2" d="m1302,461.01l-12.4,1.7-.8,12.7-.8,12.7,21.5,6.1c11.8,3.3,23.4,6.6,26.2,7.4,3.3,1.1,4.7-1.1,6.1-9.9.8-6.1,2.5-16,3.3-22l1.7-11-16.2.6c-9.1-.2-21.7.9-28.6,1.7Z"/>
    <path class="cls-2" d="m1074.8,288.71l-.8-19c-.3-10.5-1.9-45.7-3.3-78.2l-3-59.2-10.2-9.1c-5.5-5.2-12.1-10.2-14.3-11.3s-31.1,2.5-63.9,7.7c-59.8,9.9-60,9.9-69.4,19.5l-9.4,9.6-10.2,67.2c-5.5,36.6-9.4,67.5-8.8,68,1.4,1.4,47.1,9.1,48.2,8,.8-.6,17.1-108.2,17.1-112.9,0-2.8,68.6-16.5,70.8-14,.3.3,2.2,28.4,3.9,62.5,1.7,33.9,3.3,63.3,3.9,65,1.7,4.7,27,4.4,39.9-.3l9.5-3.5Z"/>
    <path class="cls-2" d="m1095.7,321.21c-5,.3-42.1,10.5-43.8,12.1-.8.8,12.9,54.2,14.3,55.9.6.3,4.4-.6,8.8-1.9,4.4-1.4,14.9-4.7,23.7-6.9l15.4-4.4-7.2-27.5c-5.1-20.5-8.1-27.6-11.2-27.3Z"/>
    <path class="cls-2" d="m1030.8,374.91c-5.2-3.9-13.8-10.2-19-14l-9.4-7.2-47.6,66.1c-25.9,36.3-47.5,65.5-48.2,65.5-.8-.8-45.2-144.8-45.2-146.5,0-1.9-1.9-1.4-25.3,6.1-16,5-21.5,8-21.5,11.3.3,2.5,13.5,47.9,30,101.1l29.7,96.4,20.1,3.6c11,1.9,20.9,2.8,22,1.4,6.1-6.3,123.9-172.1,123.9-174,.1-1.6-4.3-5.7-9.5-9.8Z"/>
    <path class="cls-2" d="m956.1,357.51l35-49-1.4-19.3c-.8-10.5-2.2-33.9-3.3-51.8-.8-17.6-2.8-32.2-4.1-32.2-3.9,0-3.9.8-13.5,66.1-5,32.5-9.4,59.8-9.9,60.3-.6.8-14.9-.8-31.9-3.3-16.8-2.8-31.1-4.1-31.7-3.6-1.7,1.4,20.9,76.5,23.7,79.6,1.1,1.1,17.9-20.1,37.1-46.8Z"/>
    <path class="cls-2" d="m1131.8,300.81c4.7,5.8,12.9,4.1,14.6-2.8,11.3-49,55.9-256.6,55.3-257.5-.6-.6-9.1-2.8-18.4-5-9.6-2.2-20.1-4.4-23.1-5.2-5.8-1.1-9.4,13.2-55.3,223.9l-6.1,28.6,5.8-1.7c19.8-5.8,20.4-5.8,22.6,5.8,1,5.9,3,12.2,4.6,13.9Z"/>
    <path class="cls-2" d="m1142.3,345.71c0,1.4,5.2,2.8,11.8,2.5,8.8,0,10.2-.6,6.1-2.5-7.7-3.3-17.9-3.3-17.9,0Z"/>
    <path class="cls-1" d="m1555.6,406.51c-14,1.1-26.7,3-27.8,4.4-1.1,1.1-2.8,9.1-3.9,17.6l-1.7,15.4,29.7-6.3c16.2-3.6,36.6-8,45.4-9.6,8.5-1.7,15.7-4.4,15.7-5.8s-1.9-6.1-4.1-10.5c-4.6-9.3-5.1-9.3-53.3-5.2Z"/>
    <path class="cls-1" d="m1904.6,451.81l-15.4-31.9-3.3-56.4c-1.7-31.1-3.9-57.3-5-58.1-.8-.8-42.1,1.7-91.7,5.5l-90,7.2-14,13.8c-11.8,11.8-14,12.9-17.1,9.4-1.9-2.5-11.8-9.1-22.3-14.6l-18.4-10.2-44.9,3.9c-24.5,2.2-45.4,3.3-46.3,3-1.1-.6,1.7-18.4,6.1-39.9s7.2-39.9,6.3-41.3c-.8-1.4-3.6-2.5-6.1-2.5-3.9,0-3.9-.3.3-3.6,2.5-1.7,10.7-16.8,18.4-33.3l14.3-29.7-24.5-47.9-24.2-47.9-20.1-11.3-20.1-11-70.8,5.8-70.8,6.1-17.9,16.8c-9.6,9.4-18.7,18.2-19.8,19.8-1.4,1.7-10.7-5.8-22.9-18.4l-20.9-20.9-18.2,16.8c-13.5,12.7-17.9,15.4-16.8,11,7.2-27.8,16.5-75.4,15.1-77.1-1.1-.8-14.6-4.4-30-8-32.8-7.4-86.7-9.4-88.9-3.3-.8,1.9-6.3,26.4-12.4,54.2s-11.6,51.2-12.4,52c-1.4,1.4-.8,1.9-28.4-20.1l-19.8-15.7-73.7,11.3-73.5,11.6-9.9,9.6c-9.1,8.5-10.2,8.8-11.3,4.1-.8-2.8-11.6-13.5-24.2-23.7l-22.6-18.2h-162.4l-12.4,13.8c-6.9,7.4-13.5,13.8-14.9,13.8s-12.7-7.4-25.1-16.5c-12.7-9.1-24.5-16-27-15.1-2.2.6-22.6,6.3-45.2,12.7l-41,11.6-46.7-12.8-46.8-12.7-26.7,19c-22.9,16.2-27,20.4-28.4,28.1-.8,5-5.8,52-10.5,104.6l-9.1,95.8h-7.2c-4.4.3-15.7,7.4-30.8,19.5l-24.2,19.3v13.5c0,21.2-5,18.7-6.9-3.9-2.2-23.4-1.9-23.1-35.2-45.7l-21.5-14.9-106.6,26.4L1.4,351.61l-.8,10.5C0,367.81,4.4,391.21,9.9,414.41l10.5,41.8-10.2,39.7c-6.3,24.5-10.2,45.9-10.2,56.4v17.1l22.6,24,22.9,24,80.1-12.7,80.1-12.9,44.6,12.7c24.5,6.9,45.7,11.8,47.1,11,1.7-.8,2.8-3.9,2.8-6.6,0-3.6,1.9-4.4,9.1-3.9,10.5,1.1,207.6-22.3,210.1-24.8,1.1-.8-.8-24.2-4.1-52s-5.8-52-5.8-54,4.1-3.3,11.3-3.3h11.6l-1.9,19.8c-5.5,59.2-6.6,50.4,10.2,75.2l15.4,21.8,71,20.1c39.1,11,72.4,20.1,74.3,20.1,1.7,0,3.9-4.7,5-10.5,3-19,.8-18.4,56.4-11.8,27.5,3.3,50.4,5.8,50.9,5.2.6-.6,2.8-18.2,5.2-39.4q6.6-56.2,14.6-31.7c5.5,17.3,6.3,24,5,41-1.4,17.3-1.1,20.1,2.5,18.7,15.1-5.8,29.2-7.7,46.3-6.1,15.7,1.7,21.8,3.9,34.7,12.4,17.3,11.8,18.2,11.6,20.9-9.4,1.4-11.3,6.6-20.4,36.6-62.5,19.3-27,35.2-48.7,35.8-48.2.6.6-2.2,25.6-5.8,55.6s-6.3,55.1-6.1,55.6c1.4,1.1,117.8,14.9,118.7,13.8.8-.8,17.9-133.5,17.9-138.2,0-.8,6.3-1.7,14-1.7h14.3l-1.7,11.6c-.8,6.6-2.5,22.9-3.6,36.6l-1.7,24.8,15.1,22,15.1,22,72.1,20.1c39.7,11.3,73,19.3,74.1,17.9,1.1-1.1,3.6-7.4,5.5-13.8,2.2-8,4.7-11.8,8-11.8,2.5,0,24.5,2.5,48.7,5.5s45.7,5.5,47.6,5.5,3.3-3.3,3.3-8c0-14.3,3.3-25.3,6.6-22.6,1.7,1.4,47.6,10.7,102.2,20.9,54.5,9.9,101.1,18.7,103.5,19.5,3.6,1.1,5.2-1.7,7.2-11.8,3-15.7-5.2-15.7,77.9-.6l62,11.3,22-10.7,22-10.5,32.8-57.5,32.8-57.5-15.2-31.8Zm-685.8-297.8c22.3-21.8,41.6-39.4,43.2-39.7,1.4,0,9.6,7.7,18.4,17.1l15.7,17.3-31.9,30.3-31.9,30.3,40.5,35.2,40.2,35.2-12.9,15.1c-9.6,10.7-15.1,14.9-20.7,14.9-5.2,0-19-10.2-54-40.8l-46.9-40.5,2.8-17.6v-17.6l37.5-39.2Zm72.7,54.5c-1.9,1.9-3.3,2.2-3.3.6,0-3.9,3.3-7.2,5.2-5.2.6.8-.2,3-1.9,4.6Zm34.2,112.4c.6,0,3.9,1.1,7.4,2.5,4.1,1.7,7.2,5.5,8,9.6,1.4,7.2,1.1,7.2-14.6,7.2-9.1,0-16.2-.8-16.2-1.9-.1-1.7,14-17.4,15.4-17.4Zm-117.6-19.3c.3.8-5.2,1.1-12.1.6-12.7-1.1-14.9-4.4-10.7-15.4,1.4-3.9,3.6-3,12.1,4.4,5.7,4.9,10.7,9.6,10.7,10.4Zm-28.6,35c-.8,6.3-3,11.8-4.7,11.8s-2.2-2.8-1.4-6.3c1.1-3.3,2.8-11.6,3.9-18.4,2.7-16.3,4.9-4.5,2.2,12.9ZM394.8,121.91c.6-.6,6.9-5.2,14-10.2l12.9-9.4,30.8,8.3c16.8,4.4,36.1,9.6,43,11.6,11.8,3.3,14.6,3,54.5-8.3l42.4-11.8,14.3,10.7,14.6,11,3.3,79.3c1.9,43.5,4.1,82.6,4.7,86.7l1.7,7.7-25.9-.8-25.6-.8-2.2-37.2c-1.1-20.4-3-50.9-4.1-67.7l-1.9-30.6-19.8,5.5-20.1,5.2v126.2h-49.6v-126.4l-15.7-4.4c-8.8-2.5-18.2-5-20.7-5.8-2.8-.8-5,0-5,1.7,0,5.5-11,119.5-12.4,128l-1.4,8.5-23.7-1.9c-12.9-1.1-24-2.5-24.5-3-1.2-1.3,14.8-170.4,16.4-172.1Zm101.8,213.9l-16.5-5.4,32.5,2.8h32.5l-.8,6.2c-.8,7.4-1.7,7.7-16.8,8.5-14,.8-16,.3-15.1-4.1.4-3.9-2.3-5.6-15.8-8Zm-211.8,194.5c-.8,2.2-3.6,11.8-6.1,21.2-2.2,9.4-5.2,18.2-6.6,19.3-2.8,3-43.8-8.3-49.6-13.5-3.6-3-16-1.7-81.2,8.5-42.1,6.9-78.7,12.4-81,12.4-2.5,0-9.9-6.3-16.5-14l-12.1-14,11.8-45.7c11-43,12.4-46.5,21.8-54.8l9.9-9.1h120.3l-1.7-10.5c-.8-5.5-2.2-16-3.3-23.4-.8-7.2-2.2-12.9-2.8-12.9-.3,0-31.4,7.7-68.8,16.8-47.9,12.1-68.3,16-69.7,13.8-2.5-3.9-12.1-44.6-11-45.2,3.3-2.2,159.4-39.9,164.9-40.2,3.9,0,12.4,3.9,19.3,9.1l12.7,9.1,3.3,27.3c1.9,14.9,6.6,51.2,10.7,80.1l7.2,52.9,14.9,4.4c11.4,3.2,14.7,5.4,13.6,8.4Zm196.1,17.7c-.6.6-27.8,4.1-60.9,8.3-33,3.9-68.8,8.3-79.6,9.6-10.7,1.1-20.9,1.7-22.6,1.1-1.9-.8-8-6.9-13.5-13.5l-10.2-12.1,8.3-82.1c4.7-45.2,9.1-84.8,9.6-88.1,1.9-8.5,25.3-25.9,32.8-24.2,3,.6,33,5.5,66.1,11,33.3,5.5,60.9,10.2,61.4,10.5,1.1,1.4-6.3,45.7-8,47.4-.6.8-24-2.5-51.8-6.9-27.8-4.7-50.9-7.7-51.8-6.9-.8.6-4.1,26.2-7.2,56.4-5.5,49-5.5,55.1-1.9,55.1,2.5,0,30.8-3.3,63.1-7.2,32.2-4.1,59.2-6.6,60-5.8,2.1,2,7.6,46.1,6.2,47.4Zm-19.3-88.9c-.8,5.8-3.3,6.6-37.2,10.5-36.3,4.4-36.6,4.4-36.6-1.4,0-11.8,3.6-26.2,6.6-26.2,1.7,0,17.3,2.5,34.7,5.5,17.3,3,31.9,5.5,32.5,5.5s.6,2.8,0,6.1Zm247.7,12.1c-.8,7.2-1.7,15.4-1.7,18.7,0,12.4-3,12.9-29.7,5.2l-25.3-7.2v-9.9c0-5.5,1.1-11.3,2.2-13.2,2.2-3.3,14-5.2,40.2-5.8l16.2-.6-1.9,12.8Zm6.6-48.3l-46,3.3c-25.3,1.9-46.3,3.9-46.8,4.4-2.2,1.9-8.5,82.9-6.9,84.5,1.1.8,17.1,5.8,35.5,10.7,18.4,5,35,9.9,36.6,11,3.9,2.5-7.4,46.8-12.1,46.8-3,0-48.7-12.4-81.5-22-16-4.7-18.7-6.9-25.3-17.3l-7.7-12.1,4.1-42.4c2.2-23.4,4.1-45.2,4.1-48.7,0-6.1-.6-6.1-36.9-6.1h-37.2l-1.4-11.8c-.8-6.3-1.9-17.3-2.5-24.8l-1.4-12.9h84l1.9-10.5c.8-5.5,1.7-15.7,1.7-22.3v-11.8l24.2,1.9c13.2,1.1,24.8,2.5,25.9,3,.8.6,1.1,8,.3,16.2l-1.5,15.2h85.7l1.7,8.5c.8,4.7,1.7,15.1,1.7,22.9v14.3h-.2Zm-50-86.3c0-2.2.8-4.7,1.9-5.5,1.9-1.9,36.6-2.8,36.6-.8,0,.6.8,3,1.7,5.5,1.4,3.9-1.4,4.4-19.3,4.4-15.6,0-20.9-.9-20.9-3.6Zm115.9,232.4c-1.4,1.7-39.1-1.9-46-4.1-1.9-.8.6-28.4,7.4-83.2,5.8-45.4,10.5-82.9,10.5-83.4.6-1.7,45.7,3,47.6,5,2.3,1.8-16.7,162.9-19.5,165.7Zm13.8-190.3c-5.5,1.4-16,4.4-23.7,6.6-7.4,2.5-14,3.9-14.3,3.3-1.1-1.1-14.6-50.7-14.6-53.7,0-2.5,33.9-13.2,42.7-13.8,4.7-.3,6.6,3.6,12.7,27.3l7.2,27.5-10,2.8Zm-18.6-91c-32.8,9.1-38.5,9.6-66.9,9.1l-31.4-.8-10.2-15.1-10.2-15.1,4.1-60.6c5.2-77.4,5-76.8,16.8-89.8l9.6-10.7h135.2l11.6,8.8,11.6,8.8,1.7,47.1c1.1,25.6,1.9,61.1,1.9,78.5v31.7l-13.2,9.1c-11.8,8.3-13.2,8.5-16.2,4.1-1.9-2.5-3.6-6.9-3.6-9.6s-1.1-5-2.8-5c-1.3-.1-18.4,4.3-38,9.5Zm139.5,270.8c-1.1,1.4-11,.6-22-1.4l-20.1-3.6-29.8-96.3c-16.5-53.1-29.7-98.6-30-101.1,0-3.3,5.5-6.3,21.5-11.3,23.4-7.4,25.3-8,25.3-6.1,0,1.7,44.3,145.7,45.2,146.5.7,0,22.3-29.2,48.2-65.5l47.6-66.1,9.4,7.2c5.2,3.9,13.8,10.2,19,14,5.2,4.1,9.6,8.3,9.6,9.6,0,2-117.8,167.8-123.9,174.1Zm-21.2-233.8c.6-.6,14.9.8,31.7,3.6,17.1,2.5,31.4,4.1,31.9,3.3.6-.6,5-27.8,9.9-60.3,9.6-65.3,9.6-66.1,13.5-66.1,1.4,0,3.3,14.6,4.1,32.2,1.1,17.9,2.5,41.3,3.3,51.8l1.4,19.3-35,49c-19.3,26.7-36.1,47.9-37.2,46.8-2.7-3-25.3-78.2-23.6-79.6Zm130-32.2c-.6-1.7-2.2-31.1-3.9-65-1.7-34.1-3.6-62.2-3.9-62.5-2.2-2.5-70.8,11.3-70.8,14,0,4.7-16.2,112.3-17.1,112.9-1.1,1.1-46.8-6.6-48.2-8-.6-.6,3.3-31.4,8.8-68l10.2-67.2,9.4-9.6c9.4-9.6,9.6-9.6,69.4-19.5,32.8-5.2,61.7-8.8,63.9-7.7s8.8,6.1,14.3,11.3l10.2,9.1,3,59.2c1.4,32.5,3,67.7,3.3,78.2l.8,19-9.6,3.6c-12.9,4.6-38.2,4.9-39.8.2Zm66,276.2c-1.1,1.9-46-2.2-47.9-4.4-1.4-1.4,15.4-148.1,18.2-160.5,1.7-6.3,1.9-6.3,24-4.4,12.1.8,23.4,2.8,24.5,3.9,1.9,1.8-16.3,161.3-18.8,165.4Zm7.5-188.3c-8.8,2.2-19.3,5.5-23.7,6.9-4.4,1.4-8.3,2.2-8.8,1.9-1.4-1.7-15.1-55.1-14.3-55.9,1.7-1.7,38.8-11.8,43.8-12.1,3-.3,6.1,6.9,11.3,27.3l7.2,27.5-15.5,4.4Zm5.8-99.2l-5.8,1.7,6.1-28.6c46-210.6,49.6-225,55.3-223.9,3,.8,13.5,3,23.1,5.2,9.4,2.2,17.9,4.4,18.4,5,.6.8-44.1,208.4-55.3,257.5-1.7,6.9-9.9,8.5-14.6,2.8-1.7-1.7-3.6-8-4.7-13.8-2.2-11.6-2.7-11.6-22.5-5.9Zm49.5,66.9c-6.6.3-11.8-1.1-11.8-2.5,0-3.3,10.2-3.3,17.9,0,4.1,2,2.7,2.5-6.1,2.5Zm190.8,121.5c-.8,6.1-2.5,16-3.3,22-1.4,8.8-2.8,11-6.1,9.9-2.8-.8-14.3-4.1-26.2-7.4l-21.5-6.1.8-12.7.8-12.7,12.4-1.7c6.9-.8,19.5-1.9,28.4-1.9l16.2-.6-1.5,11.2Zm7.1-46.7l-46,3.3c-25.3,1.9-46.5,4.1-47.1,4.7-1.7,1.7-9.1,76-8.3,81,.6,2.5,14.6,7.7,37.7,14.3,20.1,5.8,37.2,11,37.7,11.6,1.9,1.9-11,43.8-14,44.9-1.7.8-24.8-4.7-50.9-12.1q-47.9-13.8-55.9-25.3l-8-11.6,3-34.7c1.9-19.3,4.1-41.6,5-49.6l1.7-14.3h-37.7c-27.8,0-38-.8-38.5-3.6-.8-1.7-1.9-12.9-2.8-24.8l-1.7-21.2h84.8l1.9-22c2.2-25.1-.6-23.4,32.5-20.1l18.4,1.7v32.1h84.5l1.9,14.3c.8,8,1.7,18.4,1.7,23.1v8.3h.1Zm64.3,147.2c-1.7,0-12.9-1.1-25.6-2.2l-22.9-2.2,1.4-7.4c.8-4.1,5.2-40.2,9.9-80.4,4.7-40.2,9.1-74.6,9.9-76.8.8-2.8,5.8-3.3,24-1.7,12.4,1.1,23.4,2.8,24.5,3.9,2.4,2.4-18.2,166.8-21.2,166.8Zm22.5-197.2c-.3,2.5-9.4,6.3-23.1,10.2l-22.9,6.1-4.1-14c-7.2-25.6-10.5-40.8-8.8-42.1,2.5-2.5,36.3-11.6,41.6-11.3,4.1.6,6.6,5.5,11.8,24,3.3,12.8,6.1,24.9,5.5,27.1Zm17.1-78.5c-1.9-8.5-4.7-16-6.3-16.5-1.7-.6-18.2,3-36.6,8.3-18.7,5.2-36.1,9.1-38.5,8.3-2.8-.6-12.1-2.2-20.9-3.9-14.3-2.8-16.5-4.4-24.2-15.7l-8.5-12.4,9.1-70.5,9.4-70.8,9.9-10.7,9.9-10.7,53.4-4.7c29.5-2.8,56.4-5,60-5.2,3.6,0,11.3,2.5,17.3,5.8,9.6,5.5,13.5,10.7,28.6,41.6l17.6,35-8.3,16.5c-4.7,9.1-9.4,16.5-10.5,16.5-1.4,0-28.9,5.5-61.1,12.4s-60.9,12.4-63.3,12.4c-3.3,0-5.8-4.7-8.5-17.3l-4.1-17.1-3,23.4c-1.7,12.9-2.8,23.7-2.5,24,.3.6,30.3,6.3,66.1,12.9,36.1,6.9,66.1,12.9,66.6,13.5,1.1,1.1-5.8,37.7-8.3,44.9-1.1,3-6.1,2.8-33.9-3-4.7-1.3-6.6-4.8-9.4-17Zm212.6,155.3l-8,16-61.7,12.9c-33.6,7.2-63.3,12.9-65.8,12.9-3.3,0-5.5-4.7-8-17.3-1.9-9.4-3.9-16-4.4-14.3-1.4,4.7-6.3,43.8-5.5,44.6.3.6,30.3,6.3,66.1,12.9,36.1,6.9,66.1,12.9,66.6,13.5.8.6-1.1,11.6-3.6,24.2-4.7,22-5.5,23.1-11.8,22.3-3.9-.6-39.7-7.2-79.9-14.6-68.6-12.7-73.2-14-79-21.2-13.2-16.2-13.2-14.3-2.8-90l9.6-70.8,9.6-9.9,9.9-9.9,53.1-4.4c29.2-2.8,56.2-5,59.8-5.2,3.6,0,11.3,2.5,17.3,5.8,9.6,5.5,13.5,10.7,28.6,41.6l17.6,35-7.7,15.9Zm185.6,76.3c-23.1,40.2-26.4,44.6-37.4,49.8l-12.1,6.1-59.2-11c-32.5-6.1-59.5-11.6-60-11.8-1.9-1.7,8.5-48.2,10.5-48.2,2.2,0,85.6,15.7,93.9,17.6,3,.6,7.7-4.7,14.9-16.8,5.8-9.6,9.6-18.2,8.8-19s-25.3-5-54.2-8.8l-52.9-7.4-9.4-12.7-9.1-12.4,3-40.5,3.3-40.5,9.6-9.4,9.9-9.6,50.9-4.1c28.1-2.5,55.9-4.7,62-5.2,25.1-2.2,22.6-4.7,24.2,22,.8,13.5.8,24.8.3,25.3-.6.8-25.1,3-54.2,5.2-28.9,2.2-52.9,4.1-53.1,4.4-.3,0-1.1,7.2-2.2,15.7l-1.7,15.4,54.5,7.4c29.7,4.4,57.5,8.3,61.4,9.1,5.5,1.1,9.1,5.2,15.4,18.2l8.3,17.1-25.4,44.1Z"/>
    <path class="cls-1" d="m797.1,167.11v-14.3h-81.8l-1.9,33.6c-1.1,18.7-2.5,39.1-3.6,45.4l-1.4,11.8h92.3l-1.7-31.1c-1-16.8-1.9-37.4-1.9-45.4Zm-40,40.9c-8,0-8.5-.8-8.5-9.9s.6-9.6,7.7-8.8c6.1.6,7.7,2.2,8.3,9.6.7,8.5.2,9.1-7.5,9.1Z"/>
    <path class="cls-1" d="m98.3,488.71l-4.1,16.8c-3.9,15.7-3.9,16.8.6,15.4,2.5-.6,27.8-4.7,56.2-9.1l51.5-8v-15.1h-104.2Z"/>
    <path class="cls-1" d="m1457,166.41c8.5-1.7,15.7-4.4,15.7-5.8s-1.9-6.1-4.1-10.5c-4.7-9.4-6.1-9.4-53.4-5.2-14.3,1.4-27,3.3-27.8,4.4-1.1,1.4-2.8,9.1-3.9,17.6l-1.7,15.4,29.7-6.3c16.3-3.5,36.7-7.9,45.5-9.6Z"/>
  </g>
</svg>