<?xml version="1.0" encoding="utf-8"?>
<!-- Generator: Adobe Illustrator 27.8.1, SVG Export Plug-In . SVG Version: 6.00 Build 0)  -->
<svg version="1.1" id="Layer_1" xmlns="http://www.w3.org/2000/svg" xmlns:xlink="http://www.w3.org/1999/xlink" x="0px" y="0px"
	 viewBox="0 0 1920 1080" style="enable-background:new 0 0 1920 1080;" xml:space="preserve">
<style type="text/css">
	.st0{fill:none;}
	.st1{fill:#FFFFFF;}
</style>
<g>
	<g>
		<path class="st0" d="M765.2,333.7c-2.1-2.3-5.2-3.3-8.2-3c-1.6-0.5-3.3-0.6-5.2-0.3c-4.4,0.7-7.4,3.6-6.9,8.2c0.3,3,2.5,6.3,3,9.5
			c0,0.3,0,0.5,0.1,0.7c0,0.6,0,1.2-0.1,1.8c-0.5,1.9,0.6,3.7,2.4,4.3c4.4,1.4,7.1-0.5,11.1-2.2c0.2-0.1,0.4-0.1,0.6-0.2
			c1.1,0.3,2.4,0.1,3.2-1c1.5-0.4,3-1,4.1-2c2.3-1.9,2.1-4.6,1-7.1C769.1,339.5,767.4,336.1,765.2,333.7z"/>
		<path class="st1" d="M1871.1,607.7c-6.3-12.9-9.9-17.1-15.4-18.2c-3.9-0.8-31.7-4.7-61.4-9.1l-54.5-7.4l1.7-15.4
			c1.1-8.5,1.9-15.7,2.2-15.7c0.3-0.3,24.2-2.2,53.1-4.4c29.2-2.2,53.7-4.4,54.2-5.2c0.6-0.6,0.6-11.8-0.3-25.3
			c-1.7-26.7,0.8-24.2-24.2-22c-6.1,0.6-33.9,2.8-62,5.2l-50.9,4.1l-9.9,9.6l-9.6,9.4l-3.3,40.5l-3,40.5l9.1,12.4l9.4,12.7l52.9,7.4
			c28.9,3.9,53.4,8,54.2,8.8s-3,9.4-8.8,19c-7.2,12.1-11.8,17.3-14.9,16.8c-8.3-1.9-91.7-17.6-93.9-17.6c-1.9,0-12.4,46.5-10.5,48.2
			c0.6,0.3,27.5,5.8,60,11.8l59.2,11l12.1-6.1c11-5.2,14.3-9.6,37.4-49.8l25.3-44.1L1871.1,607.7z"/>
		<path class="st1" d="M1630.2,500c-6.1-3.3-13.8-5.8-17.3-5.8c-3.6,0.3-30.6,2.5-59.8,5.2l-53.1,4.4l-9.9,9.9l-9.6,9.9l-9.6,70.8
			c-10.5,75.7-10.5,73.8,2.8,90c5.8,7.2,10.5,8.5,79,21.2c40.2,7.4,76,14,79.9,14.6c6.3,0.8,7.2-0.3,11.8-22.3
			c2.5-12.7,4.4-23.7,3.6-24.2c-0.6-0.6-30.6-6.6-66.6-13.5c-35.8-6.6-65.8-12.4-66.1-12.9c-0.8-0.8,4.1-39.9,5.5-44.6
			c0.6-1.7,2.5,5,4.4,14.3c2.5,12.7,4.7,17.3,8,17.3c2.5,0,32.2-5.8,65.8-12.9l61.7-12.9l8-16l8-16l-17.6-35
			C1643.7,510.8,1639.8,505.5,1630.2,500z"/>
		<path class="st1" d="M1499.1,457.1c2.5-7.2,9.4-43.8,8.3-44.9c-0.6-0.6-30.6-6.6-66.6-13.5c-35.8-6.6-65.8-12.4-66.1-12.9
			c-0.3-0.3,0.8-11,2.5-24l3-23.4l4.1,17.1c2.8,12.7,5.2,17.3,8.5,17.3c2.5,0,31.1-5.5,63.3-12.4c32.2-6.9,59.8-12.4,61.1-12.4
			c1.1,0,5.8-7.4,10.5-16.5l8.3-16.5l-17.6-35c-15.1-30.8-19-36.1-28.6-41.6c-6.1-3.3-13.8-5.8-17.3-5.8c-3.6,0.3-30.6,2.5-60,5.2
			l-53.4,4.7l-9.9,10.7l-9.9,10.7l-9.4,70.8l-9.1,70.5l8.5,12.4c7.7,11.3,9.9,12.9,24.2,15.7c8.8,1.7,18.2,3.3,20.9,3.9
			c2.5,0.8,19.8-3,38.5-8.3c18.4-5.2,35-8.8,36.6-8.3c1.7,0.6,4.4,8,6.3,16.5c2.8,12.1,4.7,15.7,9.4,16.8
			C1493.1,459.8,1498,460.1,1499.1,457.1z"/>
		<path class="st1" d="M1421.5,464.5c-5.2-0.3-39.1,8.8-41.6,11.3c-1.7,1.4,1.7,16.5,8.8,42.1l4.1,14l22.9-6.1
			c13.8-3.9,22.9-7.7,23.1-10.2c0.6-2.2-2.2-14.3-5.5-27.3C1428.1,470,1425.6,465.1,1421.5,464.5z"/>
		<path class="st1" d="M1412.9,542.2c-18.2-1.7-23.1-1.1-24,1.7c-0.8,2.2-5.2,36.6-9.9,76.8c-4.7,40.2-9.1,76.3-9.9,80.4l-1.4,7.4
			l22.9,2.2c12.7,1.1,24,2.2,25.6,2.2c3,0,23.7-164.4,21.2-166.9C1436.4,544.9,1425.3,543.3,1412.9,542.2z"/>
		<path class="st1" d="M1348.4,520h-42.1h-42.4v-16.2v-16l-18.4-1.7c-33-3.3-30.3-5-32.5,20.1l-1.9,22h-42.4h-42.4l1.7,21.2
			c0.8,11.8,1.9,23.1,2.8,24.8c0.6,2.8,10.7,3.6,38.5,3.6h37.7l-1.7,14.3c-0.8,8-3,30.3-5,49.6l-3,34.7l8,11.6
			c8,11.6,8,11.6,55.9,25.3c26.2,7.4,49.3,12.9,50.9,12.1c3-1.1,16-43,14-44.9c-0.6-0.6-17.6-5.8-37.7-11.6
			c-23.1-6.6-37.2-11.8-37.7-14.3c-0.8-5,6.6-79.3,8.3-81c0.6-0.6,21.8-2.8,47.1-4.7l46-3.3v-8.3c0-4.7-0.8-15.1-1.7-23.1
			L1348.4,520z"/>
		<path class="st1" d="M1181.2,353.8l-2.8,17.6l46.9,40.5c35,30.6,48.7,40.8,54,40.8c5.5,0,11-4.1,20.7-14.9l12.9-15.1l-40.2-35.2
			l-40.5-35.2l31.9-30.3l31.9-30.3l-15.7-17.3c-8.8-9.4-17.1-17.1-18.4-17.1c-1.7,0.3-20.9,17.9-43.2,39.7l-37.6,39.4V353.8z"/>
		<path class="st1" d="M1131.8,443.6c4.7,5.8,12.9,4.1,14.6-2.8c11.3-49,55.9-256.6,55.3-257.5c-0.6-0.6-9.1-2.8-18.4-5
			c-9.6-2.2-20.1-4.4-23.1-5.2c-5.8-1.1-9.4,13.2-55.3,223.9l-6.1,28.6l5.8-1.7c19.8-5.8,20.4-5.8,22.6,5.8
			C1128.2,435.6,1130.2,441.9,1131.8,443.6z"/>
		<path class="st1" d="M1095.7,464c-5,0.3-42.1,10.5-43.8,12.1c-0.8,0.8,12.9,54.2,14.3,55.9c0.6,0.3,4.4-0.6,8.8-1.9
			c4.4-1.4,14.9-4.7,23.7-6.9l15.4-4.4l-7.2-27.5C1101.8,470.8,1098.8,463.7,1095.7,464z"/>
		<path class="st1" d="M1085.6,542.2c-22-1.9-22.3-1.9-24,4.4c-2.8,12.4-19.5,159.2-18.2,160.5c1.9,2.2,46.8,6.3,47.9,4.4
			c2.5-4.1,20.7-163.6,18.7-165.5C1109,544.9,1097.7,543,1085.6,542.2z"/>
		<path class="st1" d="M1074.8,431.5l-0.8-19c-0.3-10.5-1.9-45.7-3.3-78.2l-3-59.2l-10.2-9.1c-5.5-5.2-12.1-10.2-14.3-11.3
			s-31.1,2.5-63.9,7.7c-59.8,9.9-60,9.9-69.4,19.5l-9.4,9.6l-10.2,67.2c-5.5,36.6-9.4,67.5-8.8,68c1.4,1.4,47.1,9.1,48.2,8
			c0.8-0.6,17.1-108.2,17.1-112.9c0-2.8,68.6-16.5,70.8-14c0.3,0.3,2.2,28.4,3.9,62.5c1.7,33.9,3.3,63.3,3.9,65
			c1.7,4.7,27,4.4,39.9-0.3L1074.8,431.5z"/>
		<path class="st1" d="M1030.8,517.7c-5.2-3.9-13.8-10.2-19-14l-9.4-7.2l-47.6,66.1c-25.9,36.3-47.5,65.5-48.2,65.5
			c-0.8-0.8-45.2-144.8-45.2-146.5c0-1.9-1.9-1.4-25.3,6.1c-16,5-21.5,8-21.5,11.3c0.3,2.5,13.5,47.9,30,101.1l29.7,96.4l20.1,3.6
			c11,1.9,20.9,2.8,22,1.4c6.1-6.3,123.9-172.1,123.9-174C1040.4,525.9,1036,521.8,1030.8,517.7z"/>
		<path class="st1" d="M815,420.9c1.7,0,2.8,2.2,2.8,5s1.7,7.2,3.6,9.6c3,4.4,4.4,4.1,16.2-4.1l13.2-9.1v-31.7
			c0-17.3-0.8-52.9-1.9-78.5l-1.7-47.1l-11.6-8.8l-11.6-8.8H688.9l-9.6,10.7c-11.8,12.9-11.6,12.4-16.8,89.8l-4.1,60.6l10.2,15.1
			l10.2,15.1l31.4,0.8c28.4,0.6,34.1,0,66.9-9.1C796.6,425.3,813.7,420.9,815,420.9z M769.4,349.5c-1.2,1-2.6,1.5-4.1,2
			c-0.9,1.1-2.1,1.3-3.2,1c-0.2,0.1-0.4,0.1-0.6,0.2c-3.9,1.7-6.7,3.6-11.1,2.2c-1.8-0.6-2.9-2.4-2.4-4.3c0.1-0.6,0.2-1.2,0.1-1.8
			c0-0.2-0.1-0.5-0.1-0.7c-0.5-3.1-2.7-6.5-3-9.5c-0.5-4.6,2.5-7.5,6.9-8.2c1.8-0.3,3.6-0.1,5.2,0.3c2.9-0.3,6.1,0.7,8.2,3
			c2.2,2.4,3.9,5.8,5.2,8.8C771.5,344.9,771.6,347.6,769.4,349.5z"/>
		<path class="st1" d="M785.7,464c-8.8,0.6-42.7,11.3-42.7,13.8c0,3,13.5,52.6,14.6,53.7c0.3,0.6,6.9-0.8,14.3-3.3
			c7.7-2.2,18.2-5.2,23.7-6.6l9.9-2.8l-7.2-27.5C792.3,467.5,790.4,463.7,785.7,464z"/>
		<path class="st1" d="M753.8,541.1c0,0.6-4.7,38-10.5,83.4c-6.9,54.8-9.4,82.3-7.4,83.2c6.9,2.2,44.6,5.8,46,4.1
			c2.8-2.8,21.8-163.8,19.5-165.8C799.5,544.1,754.3,539.4,753.8,541.1z"/>
		<path class="st1" d="M712.6,520h-43H627l1.7-15.1c0.8-8.3,0.6-15.7-0.3-16.2c-1.1-0.6-12.7-1.9-25.9-3l-24.2-1.9v11.8
			c0,6.6-0.8,16.8-1.7,22.3l-1.9,10.5h-41.9h-42.1l1.4,12.9c0.6,7.4,1.7,18.4,2.5,24.8l1.4,11.8h37.2c36.3,0,36.9,0,36.9,6.1
			c0,3.6-1.9,25.3-4.1,48.7l-4.1,42.4l7.7,12.1c6.6,10.5,9.4,12.7,25.3,17.3c32.8,9.6,78.5,22,81.5,22c4.7,0,16-44.3,12.1-46.8
			c-1.7-1.1-18.2-6.1-36.6-11c-18.4-5-34.4-9.9-35.5-10.7c-1.7-1.7,4.7-82.6,6.9-84.5c0.6-0.6,21.5-2.5,46.8-4.4l46-3.3v-14.3
			c0-7.7-0.8-18.2-1.7-22.9L712.6,520z"/>
		<path class="st1" d="M481.9,440.1h24.8h24.8v-63.1V314l20.1-5.2l19.8-5.5l1.9,30.6c1.1,16.8,3,47.4,4.1,67.7l2.2,37.2l25.6,0.8
			l25.9,0.8l-1.7-7.7c-0.6-4.1-2.8-43.2-4.7-86.7l-3.3-79.3l-14.6-11l-14.3-10.7l-42.4,11.8c-39.9,11.3-42.7,11.6-54.5,8.3
			c-6.9-1.9-26.2-7.2-43-11.6l-30.8-8.3l-12.9,9.4c-7.2,5-13.5,9.6-14,10.2c-1.7,1.7-17.6,170.7-16.2,172.1c0.6,0.6,11.6,1.9,24.5,3
			l23.7,1.9l1.4-8.5c1.4-8.5,12.4-122.5,12.4-128c0-1.7,2.2-2.5,5-1.7c2.5,0.8,11.8,3.3,20.7,5.8l15.7,4.4v63.3V440.1z"/>
		<path class="st1" d="M414.8,649.3c-32.2,3.9-60.6,7.2-63.1,7.2c-3.6,0-3.6-6.1,1.9-55.1c3-30.3,6.3-55.9,7.2-56.4
			c0.8-0.8,24,2.2,51.8,6.9c27.8,4.4,51.2,7.7,51.8,6.9c1.7-1.7,9.1-46,8-47.4c-0.6-0.3-28.1-5-61.4-10.5c-33-5.5-63.1-10.5-66.1-11
			c-7.4-1.7-30.8,15.7-32.8,24.2c-0.6,3.3-5,43-9.6,88.1l-8.3,82.1l10.2,12.1c5.5,6.6,11.6,12.7,13.5,13.5c1.7,0.6,11.8,0,22.6-1.1
			c10.7-1.4,46.5-5.8,79.6-9.6c33-4.1,60.3-7.7,60.9-8.3c1.4-1.4-4.1-45.4-6.1-47.4C474,642.7,447,645.1,414.8,649.3z"/>
		<path class="st1" d="M271.4,664.5l-14.9-4.4l-7.2-52.9c-4.1-28.9-8.8-65.3-10.7-80.1l-3.3-27.3l-12.7-9.1
			c-6.9-5.2-15.4-9.1-19.3-9.1c-5.5,0.3-161.6,38-164.9,40.2c-1.1,0.6,8.5,41.3,11,45.2c1.4,2.2,21.8-1.7,69.7-13.8
			c37.4-9.1,68.6-16.8,68.8-16.8c0.6,0,1.9,5.8,2.8,12.9c1.1,7.4,2.5,17.9,3.3,23.4l1.7,10.5h-60.3h-60l-9.9,9.1
			c-9.4,8.3-10.7,11.8-21.8,54.8l-11.8,45.7l12.1,14c6.6,7.7,14,14,16.5,14c2.2,0,38.8-5.5,81-12.4c65.3-10.2,77.6-11.6,81.2-8.5
			c5.8,5.2,46.8,16.5,49.6,13.5c1.4-1.1,4.4-9.9,6.6-19.3c2.5-9.4,5.2-19,6.1-21.2C285.9,670.1,282.6,667.9,271.4,664.5z"/>
	</g>
	<g>
		<path class="st0" d="M712.6,520h-43H627l1.7-15.1c0.8-8.3,0.6-15.7-0.3-16.2c-1.1-0.6-12.7-1.9-25.9-3l-24.2-1.9v11.8
			c0,6.6-0.8,16.8-1.7,22.3l-1.9,10.5h-41.9h-42.1l1.4,12.9c0.6,7.4,1.7,18.4,2.5,24.8l1.4,11.8h37.2c36.3,0,36.9,0,36.9,6.1
			c0,3.6-1.9,25.3-4.1,48.7l-4.1,42.4l7.7,12.1c6.6,10.5,9.4,12.7,25.3,17.3c32.8,9.6,78.5,22,81.5,22c4.7,0,16-44.3,12.1-46.8
			c-1.7-1.1-18.2-6.1-36.6-11c-18.4-5-34.4-9.9-35.5-10.7c-1.7-1.7,4.7-82.6,6.9-84.5c0.6-0.6,21.5-2.5,46.8-4.4l46-3.3v-14.3
			c0-7.7-0.8-18.2-1.7-22.9L712.6,520z"/>
		<path class="st0" d="M654.8,607.7c-1.1,1.9-2.2,7.7-2.2,13.2v9.9l25.3,7.2c26.7,7.7,29.7,7.2,29.7-5.2c0-3.3,0.8-11.6,1.7-18.7
			l1.9-12.7l-16.2,0.6C668.8,602.5,657,604.4,654.8,607.7z"/>
		<path class="st0" d="M429.1,590.3c-17.3-3-33-5.5-34.7-5.5c-3,0-6.6,14.3-6.6,26.2c0,5.8,0.3,5.8,36.6,1.4
			c33.9-3.9,36.3-4.7,37.2-10.5c0.6-3.3,0.6-6.1,0-6.1C461.1,595.8,446.5,593.4,429.1,590.3z"/>
		<path class="st0" d="M706.1,478.6c-0.8-2.5-1.7-5-1.7-5.5c0-1.9-34.7-1.1-36.6,0.8c-1.1,0.8-1.9,3.3-1.9,5.5
			c0,2.8,5.2,3.6,20.9,3.6C704.8,483,707.5,482.4,706.1,478.6z"/>
		<path class="st0" d="M753.8,541.1c0,0.6-4.7,38-10.5,83.4c-6.9,54.8-9.4,82.3-7.4,83.2c6.9,2.2,44.6,5.8,46,4.1
			c2.8-2.8,21.8-163.8,19.5-165.8C799.5,544.1,754.3,539.4,753.8,541.1z"/>
		<path class="st0" d="M756.2,332.1c-7.2-0.8-7.7-0.3-7.7,8.8c0,9.1,0.6,9.9,8.5,9.9c7.7,0,8.3-0.6,7.4-9.1
			C764,334.3,762.3,332.6,756.2,332.1z"/>
		<path class="st0" d="M785.7,464c-8.8,0.6-42.7,11.3-42.7,13.8c0,3,13.5,52.6,14.6,53.7c0.3,0.6,6.9-0.8,14.3-3.3
			c7.7-2.2,18.2-5.2,23.7-6.6l9.9-2.8l-7.2-27.5C792.3,467.5,790.4,463.7,785.7,464z"/>
		<path class="st0" d="M817.8,425.8c0,2.8,1.7,7.2,3.6,9.6c3,4.4,4.4,4.1,16.2-4.1l13.2-9.1v-31.7c0-17.3-0.8-52.9-1.9-78.5
			l-1.7-47.1l-11.6-8.8l-11.6-8.8h-67.5h-67.7l-9.6,10.7c-11.8,12.9-11.6,12.4-16.8,89.8l-4.1,60.6l10.2,15.1l10.2,15.1l31.4,0.8
			c28.4,0.6,34.1,0,66.9-9.1c19.5-5.2,36.6-9.6,38-9.6C816.7,420.9,817.8,423.1,817.8,425.8z M754.5,386.4h-46l1.4-11.8
			c1.1-6.3,2.5-26.7,3.6-45.4l1.9-33.6h40.8h41v14.3c0,8,0.8,28.6,1.9,45.4l1.7,31.1H754.5z"/>
		<path class="st0" d="M414.8,649.3c-32.2,3.9-60.6,7.2-63.1,7.2c-3.6,0-3.6-6.1,1.9-55.1c3-30.3,6.3-55.9,7.2-56.4
			c0.8-0.8,24,2.2,51.8,6.9c27.8,4.4,51.2,7.7,51.8,6.9c1.7-1.7,9.1-46,8-47.4c-0.6-0.3-28.1-5-61.4-10.5c-33-5.5-63.1-10.5-66.1-11
			c-7.4-1.7-30.8,15.7-32.8,24.2c-0.6,3.3-5,43-9.6,88.1l-8.3,82.1l10.2,12.1c5.5,6.6,11.6,12.7,13.5,13.5c1.7,0.6,11.8,0,22.6-1.1
			c10.7-1.4,46.5-5.8,79.6-9.6c33-4.1,60.3-7.7,60.9-8.3c1.4-1.4-4.1-45.4-6.1-47.4C474,642.7,447,645.1,414.8,649.3z"/>
		<path class="st0" d="M1288.2,351.9c0,1.7,1.4,1.4,3.3-0.6c1.7-1.7,2.5-3.9,1.9-4.7C1291.5,344.7,1288.2,348,1288.2,351.9z"/>
		<path class="st0" d="M271.4,664.5l-14.9-4.4l-7.2-52.9c-4.1-28.9-8.8-65.3-10.7-80.1l-3.3-27.3l-12.7-9.1
			c-6.9-5.2-15.4-9.1-19.3-9.1c-5.5,0.3-161.6,38-164.9,40.2c-1.1,0.6,8.5,41.3,11,45.2c1.4,2.2,21.8-1.7,69.7-13.8
			c37.4-9.1,68.6-16.8,68.8-16.8c0.6,0,1.9,5.8,2.8,12.9c1.1,7.4,2.5,17.9,3.3,23.4l1.7,10.5h-60.3h-60l-9.9,9.1
			c-9.4,8.3-10.7,11.8-21.8,54.8l-11.8,45.7l12.1,14c6.6,7.7,14,14,16.5,14c2.2,0,38.8-5.5,81-12.4c65.3-10.2,77.6-11.6,81.2-8.5
			c5.8,5.2,46.8,16.5,49.6,13.5c1.4-1.1,4.4-9.9,6.6-19.3c2.5-9.4,5.2-19,6.1-21.2C285.9,670.1,282.6,667.9,271.4,664.5z
			 M202.4,639.2v7.4l-51.5,8c-28.4,4.4-53.7,8.5-56.2,9.1c-4.4,1.4-4.4,0.3-0.6-15.4l4.1-16.8h52h52V639.2z"/>
		<path class="st0" d="M1181.2,353.8l-2.8,17.6l46.9,40.5c35,30.6,48.7,40.8,54,40.8c5.5,0,11-4.1,20.7-14.9l12.9-15.1l-40.2-35.2
			l-40.5-35.2l31.9-30.3l31.9-30.3l-15.7-17.3c-8.8-9.4-17.1-17.1-18.4-17.1c-1.7,0.3-20.9,17.9-43.2,39.7l-37.6,39.4V353.8z"/>
		<path class="st0" d="M1326.5,483c15.7,0,16,0,14.6-7.2c-0.8-4.1-3.9-8-8-9.6c-3.6-1.4-6.9-2.5-7.4-2.5c-1.4,0-15.4,15.7-15.4,17.3
			C1310.2,482.1,1317.4,483,1326.5,483z"/>
		<path class="st0" d="M403.1,439.9l23.7,1.9l1.4-8.5c1.4-8.5,12.4-122.5,12.4-128c0-1.7,2.2-2.5,5-1.7c2.5,0.8,11.8,3.3,20.7,5.8
			l15.7,4.4v63.3v63.1h24.8h24.8v-63.1V314l20.1-5.2l19.8-5.5l1.9,30.6c1.1,16.8,3,47.4,4.1,67.7l2.2,37.2l25.6,0.8l25.9,0.8
			l-1.7-7.7c-0.6-4.1-2.8-43.2-4.7-86.7l-3.3-79.3l-14.6-11l-14.3-10.7l-42.4,11.8c-39.9,11.3-42.7,11.6-54.5,8.3
			c-6.9-1.9-26.2-7.2-43-11.6l-30.8-8.3l-12.9,9.4c-7.2,5-13.5,9.6-14,10.2c-1.7,1.7-17.6,170.7-16.2,172.1
			C379.2,437.4,390.2,438.8,403.1,439.9z"/>
		<path class="st0" d="M527.4,490.7c15.1-0.8,16-1.1,16.8-8.5l0.8-6.2h-32.5l-32.5-2.8l16.5,5.4c13.5,2.5,16.2,4.1,15.7,8
			C511.5,490.9,513.4,491.5,527.4,490.7z"/>
		<path class="st0" d="M1185.2,429.5c-4.1,11-1.9,14.3,10.7,15.4c6.9,0.6,12.4,0.3,12.1-0.6c0-0.8-5-5.5-10.7-10.5
			C1188.8,426.5,1186.6,425.7,1185.2,429.5z"/>
		<path class="st0" d="M1177.2,466.4c-1.1,6.9-2.8,15.1-3.9,18.4c-0.8,3.6-0.3,6.3,1.4,6.3s3.9-5.5,4.7-11.8
			C1182.2,462,1180,450.2,1177.2,466.4z"/>
		<path class="st0" d="M1085.6,542.2c-22-1.9-22.3-1.9-24,4.4c-2.8,12.4-19.5,159.2-18.2,160.5c1.9,2.2,46.8,6.3,47.9,4.4
			c2.5-4.1,20.7-163.6,18.7-165.5C1109,544.9,1097.7,543,1085.6,542.2z"/>
		<path class="st0" d="M1421.5,464.5c-5.2-0.3-39.1,8.8-41.6,11.3c-1.7,1.4,1.7,16.5,8.8,42.1l4.1,14l22.9-6.1
			c13.8-3.9,22.9-7.7,23.1-10.2c0.6-2.2-2.2-14.3-5.5-27.3C1428.1,470,1425.6,465.1,1421.5,464.5z"/>
		<path class="st0" d="M1412.9,542.2c-18.2-1.7-23.1-1.1-24,1.7c-0.8,2.2-5.2,36.6-9.9,76.8c-4.7,40.2-9.1,76.3-9.9,80.4l-1.4,7.4
			l22.9,2.2c12.7,1.1,24,2.2,25.6,2.2c3,0,23.7-164.4,21.2-166.9C1436.4,544.9,1425.3,543.3,1412.9,542.2z"/>
		<path class="st0" d="M1499.1,457.1c2.5-7.2,9.4-43.8,8.3-44.9c-0.6-0.6-30.6-6.6-66.6-13.5c-35.8-6.6-65.8-12.4-66.1-12.9
			c-0.3-0.3,0.8-11,2.5-24l3-23.4l4.1,17.1c2.8,12.7,5.2,17.3,8.5,17.3c2.5,0,31.1-5.5,63.3-12.4c32.2-6.9,59.8-12.4,61.1-12.4
			c1.1,0,5.8-7.4,10.5-16.5l8.3-16.5l-17.6-35c-15.1-30.8-19-36.1-28.6-41.6c-6.1-3.3-13.8-5.8-17.3-5.8c-3.6,0.3-30.6,2.5-60,5.2
			l-53.4,4.7l-9.9,10.7l-9.9,10.7l-9.4,70.8l-9.1,70.5l8.5,12.4c7.7,11.3,9.9,12.9,24.2,15.7c8.8,1.7,18.2,3.3,20.9,3.9
			c2.5,0.8,19.8-3,38.5-8.3c18.4-5.2,35-8.8,36.6-8.3c1.7,0.6,4.4,8,6.3,16.5c2.8,12.1,4.7,15.7,9.4,16.8
			C1493.1,459.8,1498,460.1,1499.1,457.1z M1383.5,309.8c1.1-8.5,2.8-16.2,3.9-17.6c0.8-1.1,13.5-3,27.8-4.4
			c47.4-4.1,48.7-4.1,53.4,5.2c2.2,4.4,4.1,9.1,4.1,10.5c0,1.4-7.2,4.1-15.7,5.8c-8.8,1.7-29.2,6.1-45.4,9.6l-29.7,6.3L1383.5,309.8
			z"/>
		<path class="st0" d="M1630.2,500c-6.1-3.3-13.8-5.8-17.3-5.8c-3.6,0.3-30.6,2.5-59.8,5.2l-53.1,4.4l-9.9,9.9l-9.6,9.9l-9.6,70.8
			c-10.5,75.7-10.5,73.8,2.8,90c5.8,7.2,10.5,8.5,79,21.2c40.2,7.4,76,14,79.9,14.6c6.3,0.8,7.2-0.3,11.8-22.3
			c2.5-12.7,4.4-23.7,3.6-24.2c-0.6-0.6-30.6-6.6-66.6-13.5c-35.8-6.6-65.8-12.4-66.1-12.9c-0.8-0.8,4.1-39.9,5.5-44.6
			c0.6-1.7,2.5,5,4.4,14.3c2.5,12.7,4.7,17.3,8,17.3c2.5,0,32.2-5.8,65.8-12.9l61.7-12.9l8-16l8-16l-17.6-35
			C1643.7,510.8,1639.8,505.5,1630.2,500z M1597.4,570.8c-8.8,1.7-29.2,6.1-45.4,9.6l-29.7,6.3l1.7-15.4c1.1-8.5,2.8-16.5,3.9-17.6
			c1.1-1.4,13.8-3.3,27.8-4.4c48.2-4.1,48.7-4.1,53.4,5.2c2.2,4.4,4.1,9.1,4.1,10.5C1613.1,566.4,1606,569.1,1597.4,570.8z"/>
		<path class="st0" d="M1348.4,520h-42.1h-42.4v-16.2v-16l-18.4-1.7c-33-3.3-30.3-5-32.5,20.1l-1.9,22h-42.4h-42.4l1.7,21.2
			c0.8,11.8,1.9,23.1,2.8,24.8c0.6,2.8,10.7,3.6,38.5,3.6h37.7l-1.7,14.3c-0.8,8-3,30.3-5,49.6l-3,34.7l8,11.6
			c8,11.6,8,11.6,55.9,25.3c26.2,7.4,49.3,12.9,50.9,12.1c3-1.1,16-43,14-44.9c-0.6-0.6-17.6-5.8-37.7-11.6
			c-23.1-6.6-37.2-11.8-37.7-14.3c-0.8-5,6.6-79.3,8.3-81c0.6-0.6,21.8-2.8,47.1-4.7l46-3.3v-8.3c0-4.7-0.8-15.1-1.7-23.1
			L1348.4,520z"/>
		<path class="st0" d="M1855.7,589.5c-3.9-0.8-31.7-4.7-61.4-9.1l-54.5-7.4l1.7-15.4c1.1-8.5,1.9-15.7,2.2-15.7
			c0.3-0.3,24.2-2.2,53.1-4.4c29.2-2.2,53.7-4.4,54.2-5.2c0.6-0.6,0.6-11.8-0.3-25.3c-1.7-26.7,0.8-24.2-24.2-22
			c-6.1,0.6-33.9,2.8-62,5.2l-50.9,4.1l-9.9,9.6l-9.6,9.4l-3.3,40.5l-3,40.5l9.1,12.4l9.4,12.7l52.9,7.4c28.9,3.9,53.4,8,54.2,8.8
			s-3,9.4-8.8,19c-7.2,12.1-11.8,17.3-14.9,16.8c-8.3-1.9-91.7-17.6-93.9-17.6c-1.9,0-12.4,46.5-10.5,48.2c0.6,0.3,27.5,5.8,60,11.8
			l59.2,11l12.1-6.1c11-5.2,14.3-9.6,37.4-49.8l25.3-44.1l-8.3-17.1C1864.8,594.7,1861.2,590.6,1855.7,589.5z"/>
		<path class="st0" d="M1302,603.8l-12.4,1.7l-0.8,12.7l-0.8,12.7l21.5,6.1c11.8,3.3,23.4,6.6,26.2,7.4c3.3,1.1,4.7-1.1,6.1-9.9
			c0.8-6.1,2.5-16,3.3-22l1.7-11l-16.2,0.6C1321.5,601.9,1308.9,603,1302,603.8z"/>
		<path class="st0" d="M1074.8,431.5l-0.8-19c-0.3-10.5-1.9-45.7-3.3-78.2l-3-59.2l-10.2-9.1c-5.5-5.2-12.1-10.2-14.3-11.3
			s-31.1,2.5-63.9,7.7c-59.8,9.9-60,9.9-69.4,19.5l-9.4,9.6l-10.2,67.2c-5.5,36.6-9.4,67.5-8.8,68c1.4,1.4,47.1,9.1,48.2,8
			c0.8-0.6,17.1-108.2,17.1-112.9c0-2.8,68.6-16.5,70.8-14c0.3,0.3,2.2,28.4,3.9,62.5c1.7,33.9,3.3,63.3,3.9,65
			c1.7,4.7,27,4.4,39.9-0.3L1074.8,431.5z"/>
		<path class="st0" d="M1095.7,464c-5,0.3-42.1,10.5-43.8,12.1c-0.8,0.8,12.9,54.2,14.3,55.9c0.6,0.3,4.4-0.6,8.8-1.9
			c4.4-1.4,14.9-4.7,23.7-6.9l15.4-4.4l-7.2-27.5C1101.8,470.8,1098.8,463.7,1095.7,464z"/>
		<path class="st0" d="M1030.8,517.7c-5.2-3.9-13.8-10.2-19-14l-9.4-7.2l-47.6,66.1c-25.9,36.3-47.5,65.5-48.2,65.5
			c-0.8-0.8-45.2-144.8-45.2-146.5c0-1.9-1.9-1.4-25.3,6.1c-16,5-21.5,8-21.5,11.3c0.3,2.5,13.5,47.9,30,101.1l29.7,96.4l20.1,3.6
			c11,1.9,20.9,2.8,22,1.4c6.1-6.3,123.9-172.1,123.9-174C1040.4,525.9,1036,521.8,1030.8,517.7z"/>
		<path class="st0" d="M956.1,500.3l35-49l-1.4-19.3c-0.8-10.5-2.2-33.9-3.3-51.8c-0.8-17.6-2.8-32.2-4.1-32.2
			c-3.9,0-3.9,0.8-13.5,66.1c-5,32.5-9.4,59.8-9.9,60.3c-0.6,0.8-14.9-0.8-31.9-3.3c-16.8-2.8-31.1-4.1-31.7-3.6
			c-1.7,1.4,20.9,76.5,23.7,79.6C920.1,548.2,936.9,527,956.1,500.3z"/>
		<path class="st0" d="M1131.8,443.6c4.7,5.8,12.9,4.1,14.6-2.8c11.3-49,55.9-256.6,55.3-257.5c-0.6-0.6-9.1-2.8-18.4-5
			c-9.6-2.2-20.1-4.4-23.1-5.2c-5.8-1.1-9.4,13.2-55.3,223.9l-6.1,28.6l5.8-1.7c19.8-5.8,20.4-5.8,22.6,5.8
			C1128.2,435.6,1130.2,441.9,1131.8,443.6z"/>
		<path class="st0" d="M1142.3,488.5c0,1.4,5.2,2.8,11.8,2.5c8.8,0,10.2-0.6,6.1-2.5C1152.5,485.2,1142.3,485.2,1142.3,488.5z"/>
		<path d="M1555.6,549.3c-14,1.1-26.7,3-27.8,4.4c-1.1,1.1-2.8,9.1-3.9,17.6l-1.7,15.4l29.7-6.3c16.2-3.6,36.6-8,45.4-9.6
			c8.5-1.7,15.7-4.4,15.7-5.8c0-1.4-1.9-6.1-4.1-10.5C1604.3,545.2,1603.8,545.2,1555.6,549.3z"/>
		<path d="M1904.6,594.6l-15.4-31.9l-3.3-56.4c-1.7-31.1-3.9-57.3-5-58.1c-0.8-0.8-42.1,1.7-91.7,5.5l-90,7.2l-14,13.8
			c-11.8,11.8-14,12.9-17.1,9.4c-1.9-2.5-11.8-9.1-22.3-14.6l-18.4-10.2l-44.9,3.9c-24.5,2.2-45.4,3.3-46.3,3
			c-1.1-0.6,1.7-18.4,6.1-39.9s7.2-39.9,6.3-41.3c-0.8-1.4-3.6-2.5-6.1-2.5c-3.9,0-3.9-0.3,0.3-3.6c2.5-1.7,10.7-16.8,18.4-33.3
			l14.3-29.7l-24.5-47.9l-24.2-47.9l-20.1-11.3l-20.1-11l-70.8,5.8l-70.8,6.1l-17.9,16.8c-9.6,9.4-18.7,18.2-19.8,19.8
			c-1.4,1.7-10.7-5.8-22.9-18.4l-20.9-20.9l-18.2,16.8c-13.5,12.7-17.9,15.4-16.8,11c7.2-27.8,16.5-75.4,15.1-77.1
			c-1.1-0.8-14.6-4.4-30-8c-32.8-7.4-86.7-9.4-88.9-3.3c-0.8,1.9-6.3,26.4-12.4,54.2s-11.6,51.2-12.4,52c-1.4,1.4-0.8,1.9-28.4-20.1
			l-19.8-15.7L978,228.1l-73.5,11.6l-9.9,9.6c-9.1,8.5-10.2,8.8-11.3,4.1c-0.8-2.8-11.6-13.5-24.2-23.7l-22.6-18.2h-81.2h-81.2
			l-12.4,13.8c-6.9,7.4-13.5,13.8-14.9,13.8c-1.4,0-12.7-7.4-25.1-16.5c-12.7-9.1-24.5-16-27-15.1c-2.2,0.6-22.6,6.3-45.2,12.7
			l-41,11.6L461.8,219l-46.8-12.7l-26.7,19c-22.9,16.2-27,20.4-28.4,28.1c-0.8,5-5.8,52-10.5,104.6l-9.1,95.8h-7.2
			c-4.4,0.3-15.7,7.4-30.8,19.5l-24.2,19.3v13.5c0,21.2-5,18.7-6.9-3.9c-2.2-23.4-1.9-23.1-35.2-45.7l-21.5-14.9l-106.6,26.4
			L1.4,494.4l-0.8,10.5C0,510.6,4.4,534,9.9,557.2L20.4,599l-10.2,39.7C3.9,663.2,0,684.6,0,695.1v17.1l22.6,24l22.9,24l80.1-12.7
			l80.1-12.9l44.6,12.7c24.5,6.9,45.7,11.8,47.1,11c1.7-0.8,2.8-3.9,2.8-6.6c0-3.6,1.9-4.4,9.1-3.9c10.5,1.1,207.6-22.3,210.1-24.8
			c1.1-0.8-0.8-24.2-4.1-52c-3.3-27.8-5.8-52-5.8-54s4.1-3.3,11.3-3.3h11.6l-1.9,19.8c-5.5,59.2-6.6,50.4,10.2,75.2l15.4,21.8
			l71,20.1c39.1,11,72.4,20.1,74.3,20.1c1.7,0,3.9-4.7,5-10.5c3-19,0.8-18.4,56.4-11.8c27.5,3.3,50.4,5.8,50.9,5.2
			c0.6-0.6,2.8-18.2,5.2-39.4c6.6-56.2,6.6-56.2,14.6-31.7c5.5,17.3,6.3,24,5,41c-1.4,17.3-1.1,20.1,2.5,18.7
			c15.1-5.8,29.2-7.7,46.3-6.1c15.7,1.7,21.8,3.9,34.7,12.4c17.3,11.8,18.2,11.6,20.9-9.4c1.4-11.3,6.6-20.4,36.6-62.5
			c19.3-27,35.2-48.7,35.8-48.2c0.6,0.6-2.2,25.6-5.8,55.6s-6.3,55.1-6.1,55.6c1.4,1.1,117.8,14.9,118.7,13.8
			c0.8-0.8,17.9-133.5,17.9-138.2c0-0.8,6.3-1.7,14-1.7h14.3l-1.7,11.6c-0.8,6.6-2.5,22.9-3.6,36.6l-1.7,24.8l15.1,22l15.1,22
			l72.1,20.1c39.7,11.3,73,19.3,74.1,17.9c1.1-1.1,3.6-7.4,5.5-13.8c2.2-8,4.7-11.8,8-11.8c2.5,0,24.5,2.5,48.7,5.5
			c24.2,3,45.7,5.5,47.6,5.5s3.3-3.3,3.3-8c0-14.3,3.3-25.3,6.6-22.6c1.7,1.4,47.6,10.7,102.2,20.9c54.5,9.9,101.1,18.7,103.5,19.5
			c3.6,1.1,5.2-1.7,7.2-11.8c3-15.7-5.2-15.7,77.9-0.6l62,11.3l22-10.7l22-10.5l32.8-57.5l32.8-57.5L1904.6,594.6z M1218.8,296.8
			c22.3-21.8,41.6-39.4,43.2-39.7c1.4,0,9.6,7.7,18.4,17.1l15.7,17.3l-31.9,30.3l-31.9,30.3l40.5,35.2l40.2,35.2l-12.9,15.1
			c-9.6,10.7-15.1,14.9-20.7,14.9c-5.2,0-19-10.2-54-40.8l-46.9-40.5l2.8-17.6v-17.6L1218.8,296.8z M1291.5,351.3
			c-1.9,1.9-3.3,2.2-3.3,0.6c0-3.9,3.3-7.2,5.2-5.2C1294,347.5,1293.2,349.7,1291.5,351.3z M1325.7,463.7c0.6,0,3.9,1.1,7.4,2.5
			c4.1,1.7,7.2,5.5,8,9.6c1.4,7.2,1.1,7.2-14.6,7.2c-9.1,0-16.2-0.8-16.2-1.9C1310.2,479.4,1324.3,463.7,1325.7,463.7z
			 M1208.1,444.4c0.3,0.8-5.2,1.1-12.1,0.6c-12.7-1.1-14.9-4.4-10.7-15.4c1.4-3.9,3.6-3,12.1,4.4
			C1203.1,438.9,1208.1,443.6,1208.1,444.4z M1179.5,479.4c-0.8,6.3-3,11.8-4.7,11.8s-2.2-2.8-1.4-6.3c1.1-3.3,2.8-11.6,3.9-18.4
			C1180,450.2,1182.2,462,1179.5,479.4z M394.8,264.7c0.6-0.6,6.9-5.2,14-10.2l12.9-9.4l30.8,8.3c16.8,4.4,36.1,9.6,43,11.6
			c11.8,3.3,14.6,3,54.5-8.3l42.4-11.8l14.3,10.7l14.6,11l3.3,79.3c1.9,43.5,4.1,82.6,4.7,86.7l1.7,7.7l-25.9-0.8l-25.6-0.8
			l-2.2-37.2c-1.1-20.4-3-50.9-4.1-67.7l-1.9-30.6l-19.8,5.5l-20.1,5.2v63.1v63.1h-24.8h-24.8v-63.1v-63.3l-15.7-4.4
			c-8.8-2.5-18.2-5-20.7-5.8c-2.8-0.8-5,0-5,1.7c0,5.5-11,119.5-12.4,128l-1.4,8.5l-23.7-1.9c-12.9-1.1-24-2.5-24.5-3
			C377.2,435.5,393.2,266.4,394.8,264.7z M496.6,478.6l-16.5-5.4l32.5,2.8h32.5l-0.8,6.2c-0.8,7.4-1.7,7.7-16.8,8.5
			c-14,0.8-16,0.3-15.1-4.1C512.8,482.7,510.1,481,496.6,478.6z M284.8,673.1c-0.8,2.2-3.6,11.8-6.1,21.2
			c-2.2,9.4-5.2,18.2-6.6,19.3c-2.8,3-43.8-8.3-49.6-13.5c-3.6-3-16-1.7-81.2,8.5c-42.1,6.9-78.7,12.4-81,12.4
			c-2.5,0-9.9-6.3-16.5-14l-12.1-14l11.8-45.7c11-43,12.4-46.5,21.8-54.8l9.9-9.1h60h60.3l-1.7-10.5c-0.8-5.5-2.2-16-3.3-23.4
			c-0.8-7.2-2.2-12.9-2.8-12.9c-0.3,0-31.4,7.7-68.8,16.8c-47.9,12.1-68.3,16-69.7,13.8c-2.5-3.9-12.1-44.6-11-45.2
			c3.3-2.2,159.4-39.9,164.9-40.2c3.9,0,12.4,3.9,19.3,9.1l12.7,9.1l3.3,27.3c1.9,14.9,6.6,51.2,10.7,80.1l7.2,52.9l14.9,4.4
			C282.6,667.9,285.9,670.1,284.8,673.1z M480.9,690.8c-0.6,0.6-27.8,4.1-60.9,8.3c-33,3.9-68.8,8.3-79.6,9.6
			c-10.7,1.1-20.9,1.7-22.6,1.1c-1.9-0.8-8-6.9-13.5-13.5l-10.2-12.1l8.3-82.1c4.7-45.2,9.1-84.8,9.6-88.1
			c1.9-8.5,25.3-25.9,32.8-24.2c3,0.6,33,5.5,66.1,11c33.3,5.5,60.9,10.2,61.4,10.5c1.1,1.4-6.3,45.7-8,47.4
			c-0.6,0.8-24-2.5-51.8-6.9c-27.8-4.7-50.9-7.7-51.8-6.9c-0.8,0.6-4.1,26.2-7.2,56.4c-5.5,49-5.5,55.1-1.9,55.1
			c2.5,0,30.8-3.3,63.1-7.2c32.2-4.1,59.2-6.6,60-5.8C476.8,645.4,482.3,689.5,480.9,690.8z M461.6,601.9
			c-0.8,5.8-3.3,6.6-37.2,10.5c-36.3,4.4-36.6,4.4-36.6-1.4c0-11.8,3.6-26.2,6.6-26.2c1.7,0,17.3,2.5,34.7,5.5
			c17.3,3,31.9,5.5,32.5,5.5C462.2,595.8,462.2,598.6,461.6,601.9z M709.3,614c-0.8,7.2-1.7,15.4-1.7,18.7c0,12.4-3,12.9-29.7,5.2
			l-25.3-7.2v-9.9c0-5.5,1.1-11.3,2.2-13.2c2.2-3.3,14-5.2,40.2-5.8l16.2-0.6L709.3,614z M715.9,565.7l-46,3.3
			c-25.3,1.9-46.3,3.9-46.8,4.4c-2.2,1.9-8.5,82.9-6.9,84.5c1.1,0.8,17.1,5.8,35.5,10.7c18.4,5,35,9.9,36.6,11
			c3.9,2.5-7.4,46.8-12.1,46.8c-3,0-48.7-12.4-81.5-22c-16-4.7-18.7-6.9-25.3-17.3l-7.7-12.1l4.1-42.4c2.2-23.4,4.1-45.2,4.1-48.7
			c0-6.1-0.6-6.1-36.9-6.1h-37.2l-1.4-11.8c-0.8-6.3-1.9-17.3-2.5-24.8l-1.4-12.9h42.1h41.9l1.9-10.5c0.8-5.5,1.7-15.7,1.7-22.3
			v-11.8l24.2,1.9c13.2,1.1,24.8,2.5,25.9,3c0.8,0.6,1.1,8,0.3,16.2L627,520h42.7h43l1.7,8.5c0.8,4.7,1.7,15.1,1.7,22.9V565.7z
			 M665.9,479.4c0-2.2,0.8-4.7,1.9-5.5c1.9-1.9,36.6-2.8,36.6-0.8c0,0.6,0.8,3,1.7,5.5c1.4,3.9-1.4,4.4-19.3,4.4
			C671.2,483,665.9,482.1,665.9,479.4z M781.8,711.8c-1.4,1.7-39.1-1.9-46-4.1c-1.9-0.8,0.6-28.4,7.4-83.2
			c5.8-45.4,10.5-82.9,10.5-83.4c0.6-1.7,45.7,3,47.6,5C803.6,547.9,784.6,709,781.8,711.8z M795.6,521.5c-5.5,1.4-16,4.4-23.7,6.6
			c-7.4,2.5-14,3.9-14.3,3.3c-1.1-1.1-14.6-50.7-14.6-53.7c0-2.5,33.9-13.2,42.7-13.8c4.7-0.3,6.6,3.6,12.7,27.3l7.2,27.5
			L795.6,521.5z M777,430.5c-32.8,9.1-38.5,9.6-66.9,9.1l-31.4-0.8l-10.2-15.1l-10.2-15.1l4.1-60.6c5.2-77.4,5-76.8,16.8-89.8
			l9.6-10.7h67.7h67.5l11.6,8.8l11.6,8.8l1.7,47.1c1.1,25.6,1.9,61.1,1.9,78.5v31.7l-13.2,9.1c-11.8,8.3-13.2,8.5-16.2,4.1
			c-1.9-2.5-3.6-6.9-3.6-9.6s-1.1-5-2.8-5C813.7,420.9,796.6,425.3,777,430.5z M916.5,701.3c-1.1,1.4-11,0.6-22-1.4l-20.1-3.6
			L844.6,600c-16.5-53.1-29.7-98.6-30-101.1c0-3.3,5.5-6.3,21.5-11.3c23.4-7.4,25.3-8,25.3-6.1c0,1.7,44.3,145.7,45.2,146.5
			c0.7,0,22.3-29.2,48.2-65.5l47.6-66.1l9.4,7.2c5.2,3.9,13.8,10.2,19,14c5.2,4.1,9.6,8.3,9.6,9.6
			C1040.4,529.2,922.6,695,916.5,701.3z M895.3,467.5c0.6-0.6,14.9,0.8,31.7,3.6c17.1,2.5,31.4,4.1,31.9,3.3
			c0.6-0.6,5-27.8,9.9-60.3c9.6-65.3,9.6-66.1,13.5-66.1c1.4,0,3.3,14.6,4.1,32.2c1.1,17.9,2.5,41.3,3.3,51.8l1.4,19.3l-35,49
			c-19.3,26.7-36.1,47.9-37.2,46.8C916.2,544.1,893.6,468.9,895.3,467.5z M1025.3,435.3c-0.6-1.7-2.2-31.1-3.9-65
			c-1.7-34.1-3.6-62.2-3.9-62.5c-2.2-2.5-70.8,11.3-70.8,14c0,4.7-16.2,112.3-17.1,112.9c-1.1,1.1-46.8-6.6-48.2-8
			c-0.6-0.6,3.3-31.4,8.8-68l10.2-67.2l9.4-9.6c9.4-9.6,9.6-9.6,69.4-19.5c32.8-5.2,61.7-8.8,63.9-7.7s8.8,6.1,14.3,11.3l10.2,9.1
			l3,59.2c1.4,32.5,3,67.7,3.3,78.2l0.8,19l-9.6,3.6C1052.2,439.7,1026.9,440,1025.3,435.3z M1091.3,711.5c-1.1,1.9-46-2.2-47.9-4.4
			c-1.4-1.4,15.4-148.1,18.2-160.5c1.7-6.3,1.9-6.3,24-4.4c12.1,0.8,23.4,2.8,24.5,3.9C1112,547.9,1093.8,707.4,1091.3,711.5z
			 M1098.8,523.2c-8.8,2.2-19.3,5.5-23.7,6.9c-4.4,1.4-8.3,2.2-8.8,1.9c-1.4-1.7-15.1-55.1-14.3-55.9c1.7-1.7,38.8-11.8,43.8-12.1
			c3-0.3,6.1,6.9,11.3,27.3l7.2,27.5L1098.8,523.2z M1104.6,424l-5.8,1.7l6.1-28.6c46-210.6,49.6-225,55.3-223.9
			c3,0.8,13.5,3,23.1,5.2c9.4,2.2,17.9,4.4,18.4,5c0.6,0.8-44.1,208.4-55.3,257.5c-1.7,6.9-9.9,8.5-14.6,2.8
			c-1.7-1.7-3.6-8-4.7-13.8C1124.9,418.3,1124.4,418.3,1104.6,424z M1154.1,490.9c-6.6,0.3-11.8-1.1-11.8-2.5c0-3.3,10.2-3.3,17.9,0
			C1164.3,490.4,1162.9,490.9,1154.1,490.9z M1344.9,612.4c-0.8,6.1-2.5,16-3.3,22c-1.4,8.8-2.8,11-6.1,9.9
			c-2.8-0.8-14.3-4.1-26.2-7.4l-21.5-6.1l0.8-12.7l0.8-12.7l12.4-1.7c6.9-0.8,19.5-1.9,28.4-1.9l16.2-0.6L1344.9,612.4z M1352,565.7
			l-46,3.3c-25.3,1.9-46.5,4.1-47.1,4.7c-1.7,1.7-9.1,76-8.3,81c0.6,2.5,14.6,7.7,37.7,14.3c20.1,5.8,37.2,11,37.7,11.6
			c1.9,1.9-11,43.8-14,44.9c-1.7,0.8-24.8-4.7-50.9-12.1c-47.9-13.8-47.9-13.8-55.9-25.3l-8-11.6l3-34.7c1.9-19.3,4.1-41.6,5-49.6
			l1.7-14.3h-37.7c-27.8,0-38-0.8-38.5-3.6c-0.8-1.7-1.9-12.9-2.8-24.8l-1.7-21.2h42.4h42.4l1.9-22c2.2-25.1-0.6-23.4,32.5-20.1
			l18.4,1.7v16V520h42.4h42.1l1.9,14.3c0.8,8,1.7,18.4,1.7,23.1V565.7z M1416.3,712.9c-1.7,0-12.9-1.1-25.6-2.2l-22.9-2.2l1.4-7.4
			c0.8-4.1,5.2-40.2,9.9-80.4c4.7-40.2,9.1-74.6,9.9-76.8c0.8-2.8,5.8-3.3,24-1.7c12.4,1.1,23.4,2.8,24.5,3.9
			C1439.9,548.5,1419.3,712.9,1416.3,712.9z M1438.8,515.7c-0.3,2.5-9.4,6.3-23.1,10.2l-22.9,6.1l-4.1-14
			c-7.2-25.6-10.5-40.8-8.8-42.1c2.5-2.5,36.3-11.6,41.6-11.3c4.1,0.6,6.6,5.5,11.8,24C1436.6,501.4,1439.4,513.5,1438.8,515.7z
			 M1455.9,437.2c-1.9-8.5-4.7-16-6.3-16.5c-1.7-0.6-18.2,3-36.6,8.3c-18.7,5.2-36.1,9.1-38.5,8.3c-2.8-0.6-12.1-2.2-20.9-3.9
			c-14.3-2.8-16.5-4.4-24.2-15.7l-8.5-12.4l9.1-70.5l9.4-70.8l9.9-10.7l9.9-10.7l53.4-4.7c29.5-2.8,56.4-5,60-5.2
			c3.6,0,11.3,2.5,17.3,5.8c9.6,5.5,13.5,10.7,28.6,41.6l17.6,35l-8.3,16.5c-4.7,9.1-9.4,16.5-10.5,16.5c-1.4,0-28.9,5.5-61.1,12.4
			c-32.2,6.9-60.9,12.4-63.3,12.4c-3.3,0-5.8-4.7-8.5-17.3l-4.1-17.1l-3,23.4c-1.7,12.9-2.8,23.7-2.5,24c0.3,0.6,30.3,6.3,66.1,12.9
			c36.1,6.9,66.1,12.9,66.6,13.5c1.1,1.1-5.8,37.7-8.3,44.9c-1.1,3-6.1,2.8-33.9-3C1460.6,452.9,1458.7,449.4,1455.9,437.2z
			 M1668.5,592.5l-8,16l-61.7,12.9c-33.6,7.2-63.3,12.9-65.8,12.9c-3.3,0-5.5-4.7-8-17.3c-1.9-9.4-3.9-16-4.4-14.3
			c-1.4,4.7-6.3,43.8-5.5,44.6c0.3,0.6,30.3,6.3,66.1,12.9c36.1,6.9,66.1,12.9,66.6,13.5c0.8,0.6-1.1,11.6-3.6,24.2
			c-4.7,22-5.5,23.1-11.8,22.3c-3.9-0.6-39.7-7.2-79.9-14.6c-68.6-12.7-73.2-14-79-21.2c-13.2-16.2-13.2-14.3-2.8-90l9.6-70.8
			l9.6-9.9l9.9-9.9l53.1-4.4c29.2-2.8,56.2-5,59.8-5.2c3.6,0,11.3,2.5,17.3,5.8c9.6,5.5,13.5,10.7,28.6,41.6l17.6,35L1668.5,592.5z
			 M1854.1,668.8c-23.1,40.2-26.4,44.6-37.4,49.8l-12.1,6.1l-59.2-11c-32.5-6.1-59.5-11.6-60-11.8c-1.9-1.7,8.5-48.2,10.5-48.2
			c2.2,0,85.6,15.7,93.9,17.6c3,0.6,7.7-4.7,14.9-16.8c5.8-9.6,9.6-18.2,8.8-19s-25.3-5-54.2-8.8l-52.9-7.4l-9.4-12.7l-9.1-12.4
			l3-40.5l3.3-40.5l9.6-9.4l9.9-9.6l50.9-4.1c28.1-2.5,55.9-4.7,62-5.2c25.1-2.2,22.6-4.7,24.2,22c0.8,13.5,0.8,24.8,0.3,25.3
			c-0.6,0.8-25.1,3-54.2,5.2c-28.9,2.2-52.9,4.1-53.1,4.4c-0.3,0-1.1,7.2-2.2,15.7l-1.7,15.4l54.5,7.4c29.7,4.4,57.5,8.3,61.4,9.1
			c5.5,1.1,9.1,5.2,15.4,18.2l8.3,17.1L1854.1,668.8z"/>
		<path d="M797.1,309.9v-14.3h-41h-40.8l-1.9,33.6c-1.1,18.7-2.5,39.1-3.6,45.4l-1.4,11.8h46h46.3l-1.7-31.1
			C798,338.5,797.1,317.9,797.1,309.9z M757.1,350.8c-8,0-8.5-0.8-8.5-9.9c0-9.1,0.6-9.6,7.7-8.8c6.1,0.6,7.7,2.2,8.3,9.6
			C765.3,350.2,764.8,350.8,757.1,350.8z"/>
		<path d="M98.3,631.5l-4.1,16.8c-3.9,15.7-3.9,16.8,0.6,15.4c2.5-0.6,27.8-4.7,56.2-9.1l51.5-8v-7.4v-7.7h-52H98.3z"/>
		<path d="M1457,309.2c8.5-1.7,15.7-4.4,15.7-5.8c0-1.4-1.9-6.1-4.1-10.5c-4.7-9.4-6.1-9.4-53.4-5.2c-14.3,1.4-27,3.3-27.8,4.4
			c-1.1,1.4-2.8,9.1-3.9,17.6l-1.7,15.4l29.7-6.3C1427.8,315.3,1448.2,310.9,1457,309.2z"/>
	</g>
</g>
</svg>
