<?xml version="1.0" encoding="utf-8"?>
<!-- Generator: Adobe Illustrator 28.1.0, SVG Export Plug-In . SVG Version: 6.00 Build 0)  -->
<svg version="1.1" id="Layer_1" xmlns="http://www.w3.org/2000/svg" xmlns:xlink="http://www.w3.org/1999/xlink" x="0px" y="0px"
	 viewBox="0 0 128 128" style="enable-background:new 0 0 128 128;" xml:space="preserve">
<style type="text/css">
	.st0{fill:none;stroke:#FFFFFF;stroke-width:5.27;stroke-miterlimit:10;}
	.st1{fill:#FFFFFF;}
</style>
<path id="Handle" class="st0" d="M36,26C36,2.7,49.9,2.8,64,2.7c14.1,0.1,28,0,28,23.3"/>
<path class="st1" d="M113.5,120.7l-7.2-88.5c-0.3-3.5-3.2-6.2-6.6-6.2H28.4c-3.5,0-6.3,2.7-6.6,6.2l-7.2,88.5
	c-0.3,3.9,2.7,7.3,6.6,7.3h85.7C110.7,128,113.8,124.6,113.5,120.7z M91,101c-0.1,0.1-0.1,0.2-0.3,0.3C86.9,105,80.9,107,74,107
	c-0.9,0-1.9,0-2.8-0.1c-10.8-0.8-20.9-6.2-27.6-14.8c-0.7-0.9-2.9-3.7-4.8-7.7c-2.3-5-3.2-10.1-2.7-15.1c0.3-2.7,1.4-9.7,6-15.1
	c1.3-1.4,2.4-2.4,3.4-3.3c1.4-1.1,2.8-2.3,4.6-4.7c1-1.3,1.9-2.7,2.9-4.3c0.5-0.8,1.3-1.4,2.3-1.3c0.9,0,1.8,0.6,2.2,1.4
	c0.6,1.3,1.3,2.6,2,3.8c0,0,0,0,0,0c0.3,0.7,0.4,1.5,0.2,2.2c-0.2,0.7-0.8,1.3-1.4,1.6c-0.8,0.4-1.9,1-2.9,2.1c0,0-1.3,1.6-2,4
	c-1.1,4.1-1.4,13,4.1,20.7c4,5.6,9.3,7.8,12.2,8.6c2,0.6,3.8,1.1,5.4,1.5c10,2.8,12.7,3.6,15.9,7.4C92.9,96.4,91.9,99.6,91,101z"/>
</svg>
