<?xml version="1.0" encoding="utf-8"?>
<!-- Generator: Adobe Illustrator 28.1.0, SVG Export Plug-In . SVG Version: 6.00 Build 0)  -->
<svg version="1.1" id="Layer_1" xmlns="http://www.w3.org/2000/svg" xmlns:xlink="http://www.w3.org/1999/xlink" x="0px" y="0px"
	 viewBox="0 0 128 128" style="enable-background:new 0 0 128 128;" xml:space="preserve">
<style type="text/css">
	.st0{fill:#FFFFFF;}
</style>
<path id="Banana" class="st0" d="M115.7,103.1c3.9,4.6,2,10.6,0.3,13.4c-0.1,0.2-0.3,0.4-0.5,0.6c-7.4,7.1-18.9,10.9-32.2,10.9
	c-1.8,0-3.6-0.1-5.4-0.2c-20.9-1.6-40.3-12-53.2-28.5c-1.4-1.8-5.7-7.2-9.2-14.9c-4.5-9.7-6.2-19.4-5.2-29
	c0.5-5.2,2.6-18.6,11.6-29.2c2.4-2.8,4.5-4.6,6.6-6.4c2.6-2.2,5.3-4.5,8.8-9c2-2.5,3.7-5.2,5.5-8.3c0.9-1.6,2.6-2.6,4.4-2.6
	s3.5,1.1,4.3,2.8c1.2,2.5,2.5,4.9,3.8,7.4c0,0,0,0,0,0.1c0.7,1.3,0.8,2.8,0.3,4.2c-0.5,1.4-1.5,2.5-2.7,3.1
	c-1.5,0.7-3.7,1.9-5.6,4.1c0,0-2.6,3-3.8,7.7c-2,7.8-2.7,25.1,7.9,39.9c7.7,10.8,18,15.1,23.4,16.7c3.9,1.1,7.3,2.1,10.4,3
	C104.4,94.4,109.6,95.8,115.7,103.1L115.7,103.1z"/>
</svg>
