<?xml version="1.0" encoding="UTF-8"?>
<svg id="Layer_1" data-name="Layer 1" xmlns="http://www.w3.org/2000/svg" viewBox="0 0 130 115.51">
  <defs>
    <style>
      .cls-1, .cls-2 {
        stroke-width: 0px;
      }

      .cls-3 {
        opacity: 0;
      }

      .cls-2 {
        fill: #fff;
      }
    </style>
  </defs>
  <g id="Bundle">
    <g id="Banana3">
      <path class="cls-2" d="M124.22,63.97c4.71,2.52,5.1,8.08,4.62,10.94-.02.2-.12.43-.22.66-3.78,8.26-12.02,15.14-22.97,19.48-1.48.59-3,1.09-4.51,1.6-17.74,5.5-37.12,3.25-53.12-6.13-1.74-1.03-7.04-4.07-12.44-9.28-6.87-6.52-11.43-13.96-13.74-22.2-1.28-4.45-3.92-16.17.04-27.84,1.06-3.09,2.21-5.26,3.35-7.43,1.42-2.66,2.9-5.44,4.32-10.28.83-2.71,1.35-5.49,1.82-8.63.22-1.61,1.29-2.99,2.78-3.58s3.24-.24,4.46.9c1.8,1.67,3.66,3.22,5.54,4.86l.03.08c1,.84,1.57,2.05,1.62,3.36s-.42,2.55-1.21,3.43c-1.01,1.07-2.43,2.77-3.28,5.2,0,0-1.16,3.32-.62,7.58.9,7.08,5.96,21.56,19.52,30.3,9.87,6.39,19.75,6.57,24.72,6.13,3.57-.37,6.7-.65,9.55-.92,17.61-1.73,22.35-2.27,29.76,1.75h0Z"/>
      <g class="cls-3">
        <path class="cls-1" d="M81.54,100.6c-11.87,0-23.65-3.13-34.04-9.22l-.19-.11c-1.95-1.15-7.14-4.2-12.43-9.31-6.93-6.58-11.64-14.2-14.01-22.65-1.32-4.59-3.98-16.56.05-28.43,1.09-3.17,2.27-5.4,3.41-7.57,1.4-2.61,2.84-5.3,4.24-10.1.9-2.92,1.41-5.93,1.8-8.5.27-1.96,1.57-3.63,3.4-4.36,1.85-.73,4.01-.3,5.51,1.11,1.32,1.22,2.66,2.37,4.07,3.58l1.67,1.5c1.1,1.01,1.72,2.39,1.77,3.92.05,1.53-.48,3.04-1.47,4.14-.95,1.01-2.28,2.58-3.08,4.87-.01.03-1.08,3.17-.57,7.13.88,6.99,5.9,21.1,19.07,29.58,9.59,6.21,19.21,6.41,24.09,5.97,2.79-.29,5.32-.52,7.65-.74l2.71-.26c16.86-1.66,21.95-2.16,29.51,1.95,5.19,2.77,5.66,8.84,5.13,11.99-.02.28-.16.6-.28.88-3.86,8.44-12.21,15.54-23.53,20.02-1.49.59-3.03,1.1-4.52,1.6-6.52,2.02-13.25,3.02-19.95,3.02ZM35.63,2c-.38,0-.76.07-1.12.21-1.16.46-1.98,1.52-2.15,2.78-.4,2.65-.93,5.76-1.86,8.79-1.46,4.99-3.02,7.9-4.39,10.46-1.16,2.19-2.25,4.26-3.29,7.28-3.84,11.33-1.29,22.82-.02,27.24,2.27,8.1,6.8,15.42,13.47,21.75,5.13,4.95,10.17,7.91,12.06,9.03l.19.11c15.78,9.25,34.85,11.45,52.32,6.04,1.49-.5,3-1,4.44-1.57,10.83-4.29,18.8-11.02,22.43-18.97.04-.1.12-.28.13-.34.46-2.69.09-7.72-4.09-9.96h0c-7.02-3.82-11.54-3.37-28.36-1.72l-2.72.26c-2.33.22-4.85.46-7.65.74-5.15.46-15.28.25-25.37-6.28-13.79-8.88-19.04-23.67-19.97-31.01-.57-4.45.62-7.89.67-8.04.69-1.99,1.84-3.81,3.49-5.56.63-.7.98-1.7.94-2.71-.04-1.04-.48-1.98-1.26-2.63l-1.49-1.33c-1.36-1.17-2.77-2.38-4.13-3.64-.64-.6-1.47-.92-2.29-.92Z"/>
      </g>
    </g>
    <g id="Banana2">
      <path class="cls-2" d="M112.21,76.99c4.34,3.12,3.99,8.69,3.12,11.46-.04.19-.17.41-.3.62-4.85,7.69-13.92,13.41-25.36,16.26-1.55.38-3.12.68-4.69.98-18.31,3.09-37.22-1.7-51.84-13.13-1.59-1.25-6.44-4.97-11.1-10.85-5.94-7.38-9.48-15.36-10.67-23.83-.68-4.58-1.74-16.55,3.73-27.59,1.47-2.92,2.89-4.92,4.31-6.91,1.77-2.45,3.6-5,5.64-9.62,1.19-2.58,2.07-5.26,2.96-8.31.43-1.57,1.68-2.79,3.23-3.18s3.24.2,4.3,1.49c1.57,1.89,3.2,3.68,4.85,5.55l.02.09c.88.97,1.29,2.24,1.16,3.55s-.76,2.47-1.66,3.24c-1.14.92-2.78,2.42-3.94,4.72,0,0-1.59,3.14-1.62,7.43-.05,7.13,3.04,22.16,15.32,32.62,8.93,7.64,18.71,9.14,23.69,9.36,3.59.11,6.73.25,9.58.36,17.69.62,22.46.72,29.26,5.69h0Z"/>
      <g class="cls-3">
        <path class="cls-1" d="M74.01,108.23c-14.93,0-29.59-4.97-41.48-14.26l-.17-.14c-1.78-1.4-6.52-5.11-11.09-10.88-5.99-7.44-9.65-15.62-10.88-24.31-.7-4.72-1.74-16.94,3.83-28.17,1.5-3,2.97-5.06,4.39-7.05,1.73-2.4,3.52-4.88,5.54-9.45,1.27-2.77,2.18-5.69,2.91-8.19.53-1.91,2.04-3.39,3.95-3.87,1.93-.48,4.02.24,5.31,1.83,1.15,1.39,2.32,2.71,3.56,4.1l1.44,1.69c.95,1.15,1.39,2.6,1.24,4.12-.15,1.52-.88,2.95-2,3.9-1.07.87-2.6,2.25-3.7,4.41-.01.03-1.49,3-1.51,6.99-.05,7.05,3.04,21.69,14.97,31.85,8.68,7.43,18.19,8.9,23.09,9.12,2.72.08,5.19.18,7.48.27l2.92.11c16.93.6,22.04.78,28.99,5.85,4.77,3.44,4.44,9.52,3.49,12.57-.06.27-.24.58-.4.84-4.94,7.85-14.17,13.77-25.97,16.71-1.58.39-3.19.7-4.74.99-3.71.63-7.45.93-11.17.93ZM32.22,3.77c-.24,0-.49.03-.73.09-1.21.3-2.17,1.25-2.51,2.47-.75,2.58-1.69,5.59-3.01,8.47-2.1,4.75-4.04,7.42-5.74,9.79-1.43,2.02-2.79,3.92-4.22,6.78-5.31,10.72-4.31,22.45-3.64,26.99,1.17,8.33,4.69,16.18,10.46,23.35,4.43,5.59,9.03,9.19,10.76,10.55l.17.14c14.41,11.26,33.02,15.98,51.06,12.93,1.51-.29,3.09-.59,4.61-.97,11.3-2.81,20.1-8.43,24.75-15.82.05-.09.15-.26.17-.32.81-2.61,1.12-7.64-2.73-10.42h0c-6.45-4.72-10.99-4.88-27.88-5.47l-2.93-.11c-2.28-.09-4.75-.19-7.47-.27-5.17-.23-15.17-1.78-24.31-9.6-12.49-10.64-15.73-25.99-15.67-33.39.03-4.48,1.66-7.74,1.73-7.88.95-1.88,2.33-3.53,4.2-5.05.71-.61,1.19-1.55,1.29-2.56.1-1.04-.22-2.02-.9-2.78l-1.29-1.51c-1.2-1.35-2.44-2.74-3.62-4.16-.65-.8-1.6-1.24-2.56-1.24Z"/>
      </g>
    </g>
    <g id="Banana1">
      <path class="cls-2" d="M94.64,92.44c3.46,4.08,1.77,9.39.27,11.87-.09.18-.27.35-.44.53-6.56,6.29-16.75,9.66-28.53,9.66-1.59,0-3.19-.09-4.78-.18-18.52-1.42-35.71-10.63-47.14-25.25-1.24-1.59-5.05-6.38-8.15-13.2C1.86,67.28.36,58.68,1.24,50.18c.44-4.61,2.3-16.48,10.28-25.87,2.13-2.48,3.99-4.08,5.85-5.67,2.3-1.95,4.7-3.99,7.8-7.97,1.77-2.22,3.28-4.61,4.87-7.35.8-1.42,2.3-2.3,3.9-2.3s3.1.97,3.81,2.48c1.06,2.22,2.22,4.34,3.37,6.56v.09c.62,1.15.71,2.48.27,3.72s-1.33,2.22-2.39,2.75c-1.33.62-3.28,1.68-4.96,3.63,0,0-2.3,2.66-3.37,6.82-1.77,6.91-2.39,22.24,7,35.35,6.82,9.57,15.95,13.38,20.73,14.8,3.46.97,6.47,1.86,9.22,2.66,17.01,4.87,21.62,6.11,27.03,12.58h0Z"/>
      <g class="cls-3">
        <path class="cls-2" d="M65.93,115.51c-1.62,0-3.26-.09-4.84-.18-18.82-1.44-36.26-10.78-47.87-25.63l-.14-.18c-1.39-1.79-5.09-6.53-8.13-13.22C.92,67.62-.66,58.8.25,50.07c.46-4.75,2.4-16.86,10.51-26.42,2.18-2.54,4.1-4.19,5.96-5.78,2.26-1.92,4.59-3.89,7.66-7.83,1.9-2.38,3.49-5,4.8-7.24C30.15,1.08,31.97,0,33.94,0s3.84,1.2,4.71,3.06c.78,1.62,1.6,3.18,2.46,4.82l1,2.01c.65,1.34.72,2.86.21,4.3-.51,1.44-1.57,2.64-2.89,3.31-1.25.58-3.07,1.56-4.65,3.39-.02.02-2.17,2.55-3.16,6.42-1.75,6.83-2.28,21.79,6.84,34.52,6.63,9.3,15.51,13.03,20.21,14.42,2.73.77,5.19,1.49,7.46,2.15l2.53.73c16.29,4.67,21.21,6.07,26.73,12.67,3.8,4.49,2.01,10.31.36,13.04-.12.25-.37.5-.59.72-6.69,6.42-17.07,9.95-29.24,9.95ZM33.94,2c-1.24,0-2.4.69-3.03,1.79-1.35,2.32-2.99,5.02-4.96,7.49-3.19,4.1-5.71,6.23-7.93,8.11-1.88,1.61-3.66,3.14-5.73,5.56-7.74,9.12-9.6,20.74-10.04,25.32-.87,8.37.65,16.84,4.52,25.18,2.95,6.48,6.54,11.09,7.89,12.83l.14.18c11.26,14.41,28.19,23.47,46.43,24.87,1.53.08,3.14.17,4.71.17,11.65,0,21.54-3.33,27.84-9.38.08-.08.21-.21.25-.27,1.41-2.33,2.93-7.15-.14-10.77h0c-5.12-6.14-9.49-7.39-25.74-12.04l-2.54-.74c-2.27-.66-4.72-1.38-7.46-2.15-4.96-1.47-14.3-5.39-21.28-15.18-9.55-13.34-8.99-29.02-7.15-36.18,1.11-4.34,3.48-7.11,3.58-7.23,1.38-1.59,3.11-2.86,5.29-3.88.84-.42,1.53-1.22,1.87-2.18.35-.98.28-2.02-.2-2.91l-.89-1.79c-.83-1.59-1.7-3.23-2.5-4.89-.55-1.17-1.69-1.91-2.91-1.91Z"/>
      </g>
    </g>
  </g>
</svg>