<?xml version="1.0" encoding="utf-8"?>
<!-- Generator: Adobe Illustrator 28.1.0, SVG Export Plug-In . SVG Version: 6.00 Build 0)  -->
<svg version="1.1" id="Layer_1" xmlns="http://www.w3.org/2000/svg" xmlns:xlink="http://www.w3.org/1999/xlink" x="0px" y="0px"
	 viewBox="0 0 128 128" style="enable-background:new 0 0 128 128;" xml:space="preserve">
<style type="text/css">
	.st0{fill:#FFFFFF;stroke:#FFFFFF;stroke-width:4;stroke-miterlimit:10;stroke-opacity:0;}
</style>
<g>
	<path class="st0" d="M56.4,71.7l7.6,0V56.3H48l0-7.3c0-4.1-3.1-7.7-7.3-8.1C36,40.5,32,44.1,32,48.6v7.7H16v15.4l-7.6,0
		c-4.2,0-8,3-8.4,7c-0.4,4.6,3.3,8.4,8,8.4h8v15.4h48V87.1h-8c-4.7,0-8.4-3.8-8-8.4C48.4,74.7,52.2,71.7,56.4,71.7z"/>
	<path class="st0" d="M96,56.3V64c0,4.3-3.6,7.7-8,7.7s-8-3.5-8-7.7v-7.7H64v15.4h-8c-4.4,0-8,3.5-8,7.7s3.6,7.7,8,7.7h8v15.4h16
		v7.7c0,4.3,3.6,7.7,8,7.7s8-3.5,8-7.7v-7.7h16V56.3H96z"/>
	<path class="st0" d="M72,25.4h-8V10H16v46.3h16v-7.7c0-4.3,3.6-7.7,8-7.7s8,3.5,8,7.7v7.7h16V40.9h8c4.4,0,8-3.5,8-7.7
		S76.4,25.4,72,25.4z"/>
	<path class="st0" d="M120,25.4h-8V10H64v15.4h8c4.4,0,8,3.5,8,7.7s-3.6,7.7-8,7.7h-8v15.4h16V64c0,4.3,3.6,7.7,8,7.7s8-3.5,8-7.7
		v-7.7h16V40.9h8c4.4,0,8-3.5,8-7.7S124.4,25.4,120,25.4z"/>
</g>
</svg>
