<?xml version="1.0" encoding="utf-8"?>
<!-- Generator: Adobe Illustrator 27.8.1, SVG Export Plug-In . SVG Version: 6.00 Build 0)  -->
<svg version="1.1" id="Layer_1" xmlns="http://www.w3.org/2000/svg" xmlns:xlink="http://www.w3.org/1999/xlink" x="0px" y="0px"
	 viewBox="0 0 128 128" style="enable-background:new 0 0 128 128;" xml:space="preserve">
<style type="text/css">
	.st0{fill:#FFFFFF;}
</style>
<g>
	<path class="st0" d="M119.1,72.8H8.9c-4.9,0-8.9-4-8.9-8.9v0c0-4.9,4-8.9,8.9-8.9h110.3c4.9,0,8.9,4,8.9,8.9v0
		C128,68.8,124,72.8,119.1,72.8z"/>
	<path class="st0" d="M119.1,17.7H8.9C4,17.7,0,13.8,0,8.9v0C0,4,4,0,8.9,0l110.3,0c4.9,0,8.9,4,8.9,8.9v0
		C128,13.8,124,17.7,119.1,17.7z"/>
	<path class="st0" d="M119.1,128H8.9C4,128,0,124,0,119.1v0c0-4.9,4-8.9,8.9-8.9h110.3c4.9,0,8.9,4,8.9,8.9v0
		C128,124,124,128,119.1,128z"/>
</g>
</svg>
