<?xml version="1.0" encoding="utf-8"?>
<!-- Generator: Adobe Illustrator 28.1.0, SVG Export Plug-In . SVG Version: 6.00 Build 0)  -->
<svg version="1.1" id="Layer_1" xmlns="http://www.w3.org/2000/svg" xmlns:xlink="http://www.w3.org/1999/xlink" x="0px" y="0px"
	 viewBox="0 0 128 128" style="enable-background:new 0 0 128 128;" xml:space="preserve">
<style type="text/css">
	.st0{fill:#FFFFFF;}
</style>
<path id="Face" class="st0" d="M128,61.9C126.9,28.4,99.6,1.1,66.1,0C29.1-1.1-1.1,29.1,0,66.1c1.1,33.5,28.4,60.8,61.9,61.9
	C98.9,129.2,129.1,98.9,128,61.9z M30.7,58.2C30.7,52,35.5,47,41.5,47s10.8,5,10.8,11.2s-4.8,11.2-10.8,11.2S30.7,64.4,30.7,58.2z
	 M85.7,85.9c-3.2,20.1-40.3,20.1-43.5,0c-0.2-1.5,1-2.9,2.5-2.9h38.5C84.7,83,85.9,84.4,85.7,85.9z M86.5,69.4
	c-6,0-10.8-5-10.8-11.2S80.5,47,86.5,47c6,0,10.8,5,10.8,11.2S92.5,69.4,86.5,69.4z"/>
</svg>