<?xml version="1.0" encoding="utf-8"?>
<!-- Generator: Adobe Illustrator 28.1.0, SVG Export Plug-In . SVG Version: 6.00 Build 0)  -->
<svg version="1.1" id="Layer_1" xmlns="http://www.w3.org/2000/svg" xmlns:xlink="http://www.w3.org/1999/xlink" x="0px" y="0px"
	 viewBox="0 0 128 128" style="enable-background:new 0 0 128 128;" xml:space="preserve">
<style type="text/css">
	.st0{fill:#FFFFFF;}
</style>
<path id="Settings" class="st0" d="M115.7,63.8c-1-13,15-12.7,11.8-22.9c-1.6-5.1-4.6-11.8-11.1-9.8c-11.4,4.2-23.9-8.1-19.7-19.7
	c2-6.3-4.7-9.6-9.8-11.1C76.6-2.7,77.2,13.1,64,12.2c-13,1-12.7-14.9-22.9-11.7c-5.1,1.6-11.8,4.6-9.8,11.1
	c4.2,11.4-8.3,24-19.8,19.8c-3.4-1.1-7.2,0.7-8.7,4c-2.5,4.6-5,11.7,0.9,14.7c11.1,5.1,11.1,22.8,0,28c-3.2,1.7-4.6,5.6-3.3,8.9
	c4.9,19,16.2,2.4,27,13.7c9.9,8.5-1.7,19.5,7.9,24.6c4.6,2.4,11.7,5,14.7-0.9c5.1-11.1,22.8-11.1,28,0c1.7,3.2,5.6,4.6,8.9,3.3
	c19-4.9,2.4-16.2,13.7-27c10.6-11.3,22.1,5.3,27-13.7C130.7,76.6,114.8,77,115.7,63.8z M64,86.8c-30.2-0.5-30.2-45.4,0-45.9
	C94.2,41.4,94.2,86.3,64,86.8z"/>
</svg>
